<?xml version="1.0" encoding="UTF-8" standalone="no"?>
<!-- Created with Inkscape (http://www.inkscape.org/) -->

<svg
   version="1.1"
   id="svg1"
   width="256"
   height="343.01141"
   viewBox="0 0 256 343.01142"
   sodipodi:docname="cat02.svg"
   inkscape:version="1.3.2 (091e20ef0f, 2023-11-25, custom)"
   inkscape:export-filename="cat02.png"
   inkscape:export-xdpi="96"
   inkscape:export-ydpi="96"
   xmlns:inkscape="http://www.inkscape.org/namespaces/inkscape"
   xmlns:sodipodi="http://sodipodi.sourceforge.net/DTD/sodipodi-0.dtd"
   xmlns="http://www.w3.org/2000/svg"
   xmlns:svg="http://www.w3.org/2000/svg">
  <defs
     id="defs1" />
  <sodipodi:namedview
     id="namedview1"
     pagecolor="#505050"
     bordercolor="#ffffff"
     borderopacity="1"
     inkscape:showpageshadow="0"
     inkscape:pageopacity="0"
     inkscape:pagecheckerboard="1"
     inkscape:deskcolor="#d1d1d1"
     showgrid="false"
     inkscape:zoom="1.7090717"
     inkscape:cx="126.96951"
     inkscape:cy="169.39021"
     inkscape:window-width="1920"
     inkscape:window-height="1031"
     inkscape:window-x="0"
     inkscape:window-y="0"
     inkscape:window-maximized="0"
     inkscape:current-layer="g1" />
  <g
     inkscape:groupmode="layer"
     inkscape:label="Image"
     id="g1"
     transform="translate(-304.10923,-144.22506)">
    <g
       id="g5"
       transform="matrix(0.32660983,0,0,0.32660983,621.0838,105.90323)">
      <path
         style="fill:#d0d3d2;fill-opacity:1;stroke:none;stroke-width:1px;stroke-linecap:butt;stroke-linejoin:miter;stroke-opacity:1"
         d="m -849.95721,467.83806 -2.10748,72.86626 c 45.41322,8.35918 84.92556,-10.65695 119.36323,-53.21535 -47.06928,10.57715 -86.39048,4.53299 -117.25575,-19.65091 z"
         id="path5"
         sodipodi:nodetypes="cccc" />
      <path
         style="fill:#ced0cd;fill-opacity:1;stroke:none;stroke-width:1px;stroke-linecap:butt;stroke-linejoin:miter;stroke-opacity:1"
         d="m -496.4205,523.25348 c -37.63077,-29.50387 -57.2419,-51.51982 -60.34937,-94.37058 l 31.03974,-24.82032 z"
         id="path3"
         sodipodi:nodetypes="cccc" />
      <path
         style="fill:#fedfd0;fill-opacity:1;stroke:none;stroke-width:1px;stroke-linecap:butt;stroke-linejoin:miter;stroke-opacity:1"
         d="m -483.73476,523.56159 -12.02101,-27.23232 c 233.72224,44.34518 313.48384,287.21306 295.80604,414.66503 l -77.6113,-85.59839 C -290.07384,598.47854 -440.7422,532.41678 -483.73476,523.56159 Z"
         id="path4"
         sodipodi:nodetypes="ccccc" />
      <path
         style="fill:#ffddcf;fill-opacity:1;stroke:none;stroke-width:1px;stroke-linecap:butt;stroke-linejoin:miter;stroke-opacity:1"
         d="m -649.97152,213.94815 c 22.65802,-43.95284 43.26685,-71.8386 91.11395,-83.24627 l 8.54054,33.72401 23.83487,-2.09361 c 1.03767,53.20986 0.65992,104.57407 -37.58818,146.84089 -17.98402,-42.38886 -49.86876,-70.88029 -85.90118,-95.22502 z"
         id="path2"
         sodipodi:nodetypes="cccccc" />
      <path
         style="fill:#040404;stroke:none"
         d="m -770.9934,323.44475 c 5.9362,-3.19906 9.26237,-9.37419 14.6862,-13.43001 10.79024,-8.06869 25.43176,-11.23625 38.65226,-8.61735 5.75948,1.14095 33.61596,14.08276 25.7788,22.55045 -4.89204,5.28573 -15.90213,-7.10539 -20.4506,-9.1307 -12.87744,-5.73396 -30.92431,-4.26302 -39.99999,7.29427 26.41927,11.36988 48.97806,20.80176 70.23355,41.33334 23.89262,23.07885 40.08488,53.95255 72.4331,66.76545 25.40837,10.06405 66.43302,10.32658 80,-18.76546 h 1.33333 c 0,54.63444 17.01107,98.07479 50.5175,141.33333 9.78002,12.62654 22.64371,26.61303 36.14916,35.26855 5.83065,3.73682 16.8654,6.61409 18.33643,-3.32715 1.56112,-10.55029 -13.01709,-18.33569 -19.65023,-24.3221 -17.07674,-15.41178 -32.4777,-36.34472 -42.68619,-56.95263 38.88915,16.73217 76.49259,26.70011 111.99999,51.6276 109.81762,77.09602 162.66662,202.36278 162.66662,333.70571 h -1.3333 c -1.6903,-16.52043 -13.8233,-34.18132 -24.1121,-46.66667 -34.6654,-42.06599 -88.88,-57.8378 -141.22122,-44.64811 -101.6276,25.60954 -126.48844,156.2275 -62.66666,229.98133 -40.97941,0 -79.50594,0.275 -120,-8 -11.58129,-2.3667 -33.34118,-4.0683 -42.03702,-12.8146 -6.76998,-6.80943 -3.75956,-27.92053 -2.51237,-36.51863 4.73645,-32.65274 11.51143,-62.42659 29.95678,-90.66666 12.25839,-18.76774 27.99854,-36.18538 46.59261,-48.88272 7.15528,-4.88615 26.97957,-12.36996 29.33333,-20.4506 h -5.33333 v -1.33334 l 2.66667,-2.66666 h 1.33333 l 2.66667,2.66666 4,-4 v -1.33333 h -6.66667 l 2.66667,-5.33333 h -9.33334 v 5.33333 l -1.33333,-4 c -24.01172,3.59928 -48.68082,24.41162 -63.99487,42.10083 -39.32002,45.41837 -53.33846,97.64908 -53.33846,156.56582 -25.53617,-13.3374 -48.17756,-29.5454 -61.37243,-55.99999 -11.84314,-23.74447 -5.26485,-51.50586 -15.43929,-76 -19.21871,-46.26749 -75.87796,-34.97363 -108.5216,-14.66666 -12.66878,-53.46078 -46.39314,-98.39355 -51.77364,-154.66666 -6.66479,-69.70508 21.10698,-132.74885 21.10698,-201.33332 6.91963,4.02352 39.01501,18.96753 39.49796,1.3282 0.30477,-11.13151 -21.18221,-13.83544 -28.8313,-17.6595 -22.92089,-11.45907 -44.15645,-29.82479 -55.84053,-53.00203 -54.39853,-107.90844 43.19104,-240.49852 159.84053,-242.66665 -14.06494,-24.56177 -46.91968,-46.91455 -72,-58.96297 -10.83606,-5.20557 -23.68469,-11.43172 -34.60905,-3.03801 -6.87475,5.28223 -9.71598,14.32959 -13.01647,22.00098 -6.51136,15.13444 -11.113,31.69474 -13.52983,48.00512 -1.39172,9.39225 -0.41113,21.87923 -3.64917,30.66154 -5.46037,14.80973 -23.74646,28.40308 -31.9578,42.66666 -14.18392,24.63827 -19.07638,49.35474 -27.23767,76 -11.62665,-3.05306 -29.65301,1.43986 -39.99383,7.22225 -6.54114,3.65763 -11.71914,13.38973 -2.59465,17.81478 5.17025,2.5074 11.14026,-1.6211 15.92181,-3.3982 8.66103,-3.21891 17.48983,-4.29939 26.66667,-4.3055 v 17.33333 c -14.42401,1.86272 -30.08822,6.76701 -41.30762,16.43832 -5.45092,4.69881 -9.92293,15.24007 0.0998,18.22526 5.70269,1.69848 11.43481,-4.16211 15.87449,-6.91154 8.54402,-5.2911 17.89441,-9.5363 28,-10.4187 3.47188,25.76131 17.58231,49.20019 33.18416,69.33333 6.52055,8.4143 21.08837,16.15218 23.7253,26.66666 7.33231,29.2369 -3.72079,61.15682 -10.3971,89.33333 -7.81844,32.99674 -12.12304,67.39192 -10.38582,101.33333 1.8359,35.86938 10.21057,73.4204 23.88786,106.66666 10.16377,24.70581 27.81628,52.10953 31.92488,78.66666 1.09924,7.1053 -6.875,15.42903 -10.23148,21.33333 -7.34534,12.92106 -11.88318,26.83724 -15.02161,41.33333 -11.29785,52.18356 4.8929,97.43869 31.98047,141.33329 -32.80062,9.5108 -59.52311,45.5042 -38.66667,78.6666 -10.49963,-0.08 -23.11743,-2.3672 -33.3282,0.5731 -5.86031,1.6874 -10.58346,7.925 -6.73352,13.7891 5.47453,8.3386 24.91544,5.2324 33.39506,4.9249 30.78861,-1.1166 62.00426,0.5312 92.88679,0.3724 130.17333,-0.6696 260.36929,1.1092 390.54734,10e-4 38.16797,-0.3249 77.13313,-2.162 115.23249,-0.9444 9.1095,0.2911 34.3586,5.3386 36.6101,-8.0689 1.7642,-10.5057 -11.1066,-10.6446 -17.9434,-10.6472 h -66.66669 c 184.5002,-125.5063 153.2748,-426.77494 5.3138,-568.70153 -32.24707,-30.93196 -71.67399,-59.06648 -113.31379,-75.85392 -16.50065,-6.65234 -33.45695,-12.11474 -50.66667,-16.57088 -6.70516,-1.73616 -16.86694,-1.00944 -21.34155,-7.07104 -20.11979,-27.2557 -10.89486,-72.67968 -10.6626,-103.80249 0.17994,-24.10929 -1.52075,-46.92415 -5.66251,-70.66666 -1.79476,-10.28865 -8.24194,-21.62093 -7.90023,-32 0.39925,-12.1276 6.34758,-23.98038 8.05143,-36.00406 3.95246,-27.89164 1.55288,-57.70382 -6.66644,-85.33757 -2.93242,-9.85893 -20.2193,5.30268 -22.63248,2.02932 -3.10894,-4.21713 -0.30992,-32.70946 -6.83465,-34.68959 -6.54458,-1.98615 -22.09549,2.58217 -34.33143,7.56571 -18.47418,7.5243 -36.63541,20.13273 -51.33435,33.44239 -7.33972,6.64599 -15.6687,19.54174 -24.91666,23.24788 -8.46594,3.39274 -23.6416,-1.44987 -33.10185,-0.80143 -25.70463,1.76196 -50.99003,14.5743 -65.90637,35.88069 -13.63106,19.47046 -19.29654,43.29842 -14.81278,66.66666 1.45162,7.5656 8.0721,16.59343 7.84159,24 -0.15637,5.02425 -4.62256,9.70248 -5.7891,14.66667 m 209.33332,-26.66667 c -7.22192,-31.21606 -30.94547,-61.08585 -60,-74.66666 6.54444,-7.91846 16.80831,-12.39339 26.66667,-14.80037 5.81791,-1.42049 14.15267,-0.83732 17.71712,-6.70581 4.35392,-7.16822 -7.30574,-11.0013 -12.38379,-11.57503 -14.52543,-1.64104 -28.80025,7.23128 -41.33333,13.08121 6.81779,-12.80696 15.94527,-25.81038 26.71916,-35.61417 12.68526,-11.54305 27.76643,-21.18067 43.9475,-26.93319 4.25179,-1.51155 -0.10892,27.68359 4.22067,30.06689 9.06632,4.99072 23.0417,-4.5861 24.34004,4.48047 4.52303,31.58553 -1.20654,63.98649 -12.83235,93.33333 -3.7898,9.56657 -7.90878,23.73934 -17.06169,29.33333 m -275.99998,92 h 2.66666 c 11.50802,24.15242 51.96411,21.62207 69.33333,6.41976 5.76298,-5.04403 15.58797,-13.67066 14.11727,-22.41358 -0.96777,-5.75317 -7.30534,-9.28857 -12.53804,-6.42798 -6.43124,3.51579 -10.35287,11.98886 -16.24589,16.56372 -13.13147,10.19426 -32.82031,6.69483 -43.86007,-4.86621 -6.68518,-7.00089 -9.12825,-16.00244 -2.50207,-23.92285 4.25708,-5.08854 14.25468,-10.44921 9.7325,-18.38273 -4.68262,-8.215 -23.6816,-6.45906 -31.37036,-4.30346 l -1.33333,-4 18.66666,-13.33333 c -5.68469,-14.67351 -22.04007,-23.66187 -37.33333,-18.52678 -6.90942,2.31999 -20.05651,9.10042 -18.16976,18.27368 1.12818,5.48503 6.57015,4.38192 10.16976,2.25716 7.39832,-4.36694 24.36886,-13.28401 29.11007,0.78809 2.16703,6.4318 -8.35946,14.18986 -8.68209,21.20784 -0.67944,14.77881 19.31897,23.96346 5.71297,39.86011 -2.78141,3.24967 -6.98917,6.28874 -11.47428,5.99691 -3.90816,-0.25432 -12.6154,-7.21867 -14.18416,-0.31999 -4.8901,21.50415 30.57177,18.33325 38.18416,5.12964 m 129.33332,190.30964 c -12.75256,2.5743 -28.87178,20.23453 -35.06274,31.02368 -3.97062,6.91976 -1.74573,18.50667 8.39197,16.4445 9.67924,-1.96892 17.64721,-17.86719 25.33744,-23.92497 3.7373,-2.94393 9.21411,-4.7391 11.76131,-8.95785 4.46371,-7.39306 -2.15747,-16.25488 -10.42798,-14.58536 m 218.66666,215.02367 1.33333,1.33333 -1.33333,-1.33333 m -13.33334,5.77783 c 1.03117,0 0.21355,0.66374 -0.44441,0.44433 l 0.44441,-0.44433 m -6.66666,2.22217 -1.33334,1.33333 1.33334,-1.33333 m 8,0 -1.33334,1.33333 1.33334,-1.33333 m 9.33333,2.66666 1.33333,1.33334 -1.33333,-1.33334 m -16,1.33334 -1.33333,1.33333 1.33333,-1.33333 m 4,0 -1.33333,1.33333 1.33333,-1.33333 m 0,4 -1.33333,1.33333 1.33333,-1.33333 m 8,0 1.33333,1.33333 -1.33333,-1.33333 m -271.99998,337.33321 h -46.66667 c -7.5708,0 -16.11946,1.1906 -22.60905,-3.537 -24.10738,-17.5619 -0.79378,-58.5789 25.22323,-57.6656 7.05367,0.2476 12.45125,7.1221 17.33333,11.4876 5.08692,4.5487 14.00688,9.3646 17.34981,15.2943 2.5859,4.5868 0.92823,10.7389 1.80762,15.7541 1.17521,6.7022 5.269,12.3663 7.56173,18.6666 m 13.33333,-18.6666 36,17.3333 v 1.3333 c -12.8597,0 -35.97966,-0.1051 -36,-18.6666 m -184.36008,17.1646 c -13.03226,5.0468 -6.60408,25.0701 7.00619,20.5586 14.08213,-4.6678 5.69391,-25.4768 -7.00619,-20.5586 m 741.69741,-0.081 c -14.3488,0.5286 -13.0742,22.1479 1.3293,21.2232 13.52301,-0.8681 12.57261,-21.7352 -1.3293,-21.2232 z"
         id="path1"
         sodipodi:nodetypes="csssscssccsssscsccsscssssscccccccccccccscsscscssscsssssscsssccssscssssssssccsssssssccsssssssssssssssssscccssscssssscccssssssscccssssssssccsssscccccccccccccccccccccccccccccssssssccccccscsss" />
    </g>
  </g>
</svg>
