<?xml version="1.0" encoding="UTF-8" standalone="no"?>
<!-- Created with Inkscape (http://www.inkscape.org/) -->

<svg
   width="210mm"
   height="297mm"
   viewBox="0 0 210 297"
   version="1.1"
   id="svg1"
   xml:space="preserve"
   inkscape:version="1.3.2 (091e20ef0f, 2023-11-25, custom)"
   sodipodi:docname="logo.svg"
   xmlns:inkscape="http://www.inkscape.org/namespaces/inkscape"
   xmlns:sodipodi="http://sodipodi.sourceforge.net/DTD/sodipodi-0.dtd"
   xmlns="http://www.w3.org/2000/svg"
   xmlns:svg="http://www.w3.org/2000/svg"><sodipodi:namedview
     id="namedview1"
     pagecolor="#505050"
     bordercolor="#ffffff"
     borderopacity="1"
     inkscape:showpageshadow="0"
     inkscape:pageopacity="0"
     inkscape:pagecheckerboard="1"
     inkscape:deskcolor="#d1d1d1"
     inkscape:document-units="mm"
     inkscape:zoom="0.84100812"
     inkscape:cx="228.89196"
     inkscape:cy="763.96409"
     inkscape:window-width="1920"
     inkscape:window-height="1031"
     inkscape:window-x="0"
     inkscape:window-y="0"
     inkscape:window-maximized="0"
     inkscape:current-layer="layer1"
     showgrid="false" /><defs
     id="defs1" /><g
     inkscape:label="Layer 1"
     inkscape:groupmode="layer"
     id="layer1"><path
       style="fill:#000000;stroke-width:1.75097"
       d="m 6.4187279,188.81579 v -0.59636 H 105.21676 204.0148 v 0.59636 0.59637 H 105.21676 6.4187279 Z"
       id="path1"
       sodipodi:nodetypes="ccccccccc" /><path
       d="m 187.24165,139.07883 c -0.16371,-0.028 -1.59475,-0.19291 -3.18009,-0.36641 -1.58535,-0.17352 -3.4639,-0.3946 -4.17456,-0.49131 -3.34472,-0.45518 -4.34985,-0.56381 -5.32253,-0.57521 -0.93112,-0.0105 -1.06901,0.0415 -1.23104,0.46767 -0.10033,0.26399 -0.34415,0.52967 -0.54175,0.59041 -0.5774,0.17749 -6.21322,-0.43069 -7.91325,-0.85393 -0.43734,-0.10891 -1.68971,-0.38047 -2.78305,-0.60351 -2.56372,-0.52298 -4.10735,-0.88235 -5.46669,-1.27269 -0.60133,-0.17265 -1.71952,-0.49372 -2.48485,-0.71345 -2.0542,-0.58973 -5.64933,-1.79093 -6.56003,-2.19185 -0.43734,-0.19252 -1.15298,-0.46177 -1.59032,-0.59831 -1.0898,-0.34025 -7.19607,-3.33288 -9.14428,-4.48154 -1.67647,-0.98842 -4.59961,-2.90608 -5.82953,-3.82431 -2.89451,-2.161 -7.43205,-6.42555 -9.25932,-8.70231 -2.46229,-3.06795 -2.95706,-3.72441 -4.04039,-5.36072 -2.20526,-3.33093 -4.50645,-7.51548 -5.44207,-9.89603 -0.22424,-0.570543 -0.52756,-1.305723 -0.67407,-1.633733 -1.34024,-3.00083 -3.05031,-8.33895 -3.88461,-12.12612 -0.0963,-0.43732 -0.31654,-1.37661 -0.48935,-2.08728 -0.17282,-0.71066 -0.40358,-1.78413 -0.51286,-2.38546 -0.10926,-0.601341 -0.28498,-1.540614 -0.39051,-2.087285 -0.49611,-2.5699 -0.94278,-6.160266 -1.08814,-8.746449 -0.0553,-0.983853 -0.14201,-1.923126 -0.19251,-2.08728 -0.0506,-0.164066 -0.23139,-1.501562 -0.40181,-2.972062 -0.47942,-4.136301 -0.57101,-3.981918 -1.18746,2.001552 -0.26336,2.556312 -0.5325,4.916217 -0.59807,5.244209 -0.0655,0.328009 -0.24707,1.714568 -0.40332,3.081237 -0.32314,2.826346 -0.55569,4.209963 -0.85204,5.069112 -0.11312,0.327996 -0.38219,1.669816 -0.59791,2.981836 -0.21572,1.312 -0.49752,2.74328 -0.62621,3.18062 -0.1287,0.43732 -0.27927,1.01878 -0.33456,1.29212 -0.0553,0.27333 -0.173874,0.67588 -0.263684,0.89454 -0.28163,0.68634 -1.596013,4.85115 -1.596013,5.05721 0,0.10803 -0.58377,1.59839 -1.29729,3.31187 -4.138262,9.937883 -9.796857,17.868843 -17.064996,23.917913 -2.380462,1.98119 -3.071902,2.49643 -5.396368,4.02121 -5.017687,3.29143 -10.931639,6.12525 -16.496065,7.9045 -1.093339,0.3496 -2.1668,0.7125 -2.385466,0.80644 -0.366894,0.15759 -2.684706,0.82811 -5.227907,1.51226 -0.579336,0.15584 -1.229099,0.28338 -1.443915,0.28338 -0.214818,0 -0.545909,0.0821 -0.735759,0.18231 -0.189851,0.10033 -1.016096,0.28506 -1.8361,0.41066 -0.820004,0.12554 -1.818257,0.31307 -2.218339,0.41662 -0.400083,0.10348 -1.33936,0.17911 -2.087283,0.16792 -0.747922,-0.0105 -1.672361,0.077 -2.054307,0.19621 -0.381948,0.11907 -1.098178,0.2166 -1.591624,0.2166 -0.493446,0 -1.201236,0.0872 -1.572869,0.1938 -0.625462,0.17937 -0.724123,0.14235 -1.327162,-0.49698 -0.738883,-0.78344 -1.169219,-0.83964 -3.716293,-0.48539 -0.812122,0.11294 -2.22751,0.28823 -3.145309,0.38949 -0.917798,0.1012 -3.178203,0.35212 -5.02312,0.55749 -1.844917,0.20537 -3.589288,0.33895 -3.876381,0.29684 -1.357096,-0.19901 -2.172186,-0.5791 -3.056544,-1.42529 -0.794517,-0.76023 -0.944246,-1.02048 -0.944246,-1.64118 0,-0.82154 0.677286,-1.79119 1.564293,-2.23956 0.786637,-0.39765 2.320073,-0.69272 4.154516,-0.79948 0.904,-0.0525 1.753823,-0.16459 1.888494,-0.24908 0.134667,-0.0844 1.944498,-0.31766 4.021841,-0.51839 6.212151,-0.60023 5.953281,-0.54856 6.028263,-1.20351 0.03553,-0.31034 -0.05899,-0.71289 -0.210049,-0.89455 -0.449148,-0.54018 -0.749098,-1.39651 -0.749098,-2.13864 0,-0.94528 -0.496572,-1.83664 -1.108785,-1.99029 -0.277852,-0.0697 -0.924775,-0.0592 -1.437603,0.0235 -0.512829,0.0826 -1.424419,0.14411 -2.025755,0.1364 -1.655862,-0.021 -7.994638,-0.005 -12.126117,0.0294 l -3.677593,0.0312 -1.148076,-0.59076 c -1.337395,-0.68814 -2.07264,-1.39177 -2.3065313,-2.2073 -0.228609,-0.79712 0.5014173,-1.92565 1.6163093,-2.49864 1.014923,-0.5216 3.741671,-0.69724 11.777737,-0.75859 2.84268,-0.0217 5.794694,-0.0994 6.560031,-0.17264 l 1.391523,-0.13325 -0.03467,-0.59637 c -0.01907,-0.32801 -0.167096,-1.17782 -0.328962,-1.88849 -0.16186,-0.71068 -0.39126,-1.76869 -0.509773,-2.35115 -0.118505,-0.58246 -0.258959,-1.12938 -0.312105,-1.21537 -0.214077,-0.34638 -6.104169,-0.55399 -8.65454,-0.30503 -0.382669,0.0373 -2.495134,0.0847 -4.694369,0.10523 -3.981396,0.0371 -4.003215,0.035 -5.069113,-0.49935 -1.8948573,-0.94986 -2.5077633,-1.85144 -2.1469623,-3.15815 0.449368,-1.62748 2.3725153,-2.30966 6.5737423,-2.33188 1.568513,-0.009 3.925302,-0.0932 5.237308,-0.18858 1.312006,-0.0954 3.615849,-0.20531 5.119651,-0.24419 1.684677,-0.0436 2.820915,-0.15741 2.960131,-0.29661 0.276573,-0.27658 -0.06209,-5.27646 -0.383781,-5.66607 -0.197282,-0.23894 0.0049,-4.528343 0.249846,-5.300033 0.05544,-0.17475 0.191873,-1.07762 0.303189,-2.00658 0.11131,-0.92894 0.295494,-2.35991 0.409283,-3.1799 0.113795,-0.82 0.230219,-1.71455 0.258734,-1.9879 0.09574,-0.91775 1.336731,-6.04363 1.94915,-8.050922 0.790937,-2.592435 2.115226,-6.650888 2.33516,-7.15641 0.09513,-0.218662 0.453603,-1.094497 0.796595,-1.946274 l 0.623623,-1.548756 -0.318402,-1.731308 c -0.175121,-0.952212 -0.401143,-2.290392 -0.502272,-2.973743 -0.369699,-2.498057 -0.563097,-3.754851 -0.772399,-5.019402 -0.289353,-1.748204 -0.582447,-3.928145 -0.801817,-5.963666 -0.100155,-0.929345 -0.278301,-2.450081 -0.395879,-3.379408 -0.295288,-2.333992 -0.633347,-6.004832 -0.695662,-7.553985 -0.02859,-0.710667 -0.150321,-2.231403 -0.270523,-3.37941 -0.86436,-8.255301 -0.87112,-18.711747 -0.01663,-25.84254 0.579743,-4.8384574 1.41772,-9.0431864 2.051512,-10.2939224 0.631223,-1.245658 1.652106,-2.13769 2.855443,-2.49504504 0.98175,-0.291537 1.624321,-0.226366 4.720375,0.47883804 5.5655,1.267667 14.327639,6.041549 21.86473,11.9125544 1.052701,0.819997 2.234063,1.736157 2.625265,2.035888 1.604449,1.229392 8.835324,7.789998 10.54723,9.569545 1.06783,1.110045 1.999066,1.9122 2.219898,1.9122 0.209206,0 0.812713,-0.186216 1.341121,-0.413807 1.49244,-0.642816 6.254117,-2.170451 6.765348,-2.170451 0.181278,0 0.604313,-0.0865 0.940079,-0.192291 5.218522,-1.643864 14.781376,-2.64218 20.886946,-2.180519 5.1973,0.393005 11.32743,1.24487 12.01467,1.669603 0.1033,0.06391 0.70737,0.208208 1.34236,0.320778 0.63501,0.112587 1.82546,0.41097 2.64546,0.66311 0.82001,0.252122 2.02765,0.618776 2.68366,0.814762 0.656,0.196003 1.8338,0.611158 2.61736,0.922586 0.78355,0.311428 1.57343,0.566229 1.7553,0.566229 0.18185,0 1.50878,-1.189207 2.9487,-2.64267 3.16031,-3.190006 7.7748,-7.327444 10.46603,-9.384047 0.5723,-0.43734 1.78508,-1.376613 2.69506,-2.087279 4.13125,-3.2263564 8.28661,-5.8281944 13.47277,-8.4358284 2.27698,-1.144871 5.05899,-2.257841 5.17604,-2.070732 0.19053,0.304599 0.72897,2.985562 0.63133,3.143535 -0.0685,0.110661 -0.0256,0.537934 0.0954,0.949412 0.12099,0.411461 0.34943,2.166126 0.50782,3.8992544 0.15846,1.733111 0.33764,3.231486 0.39834,3.329698 0.22943,0.371223 0.73655,0.138677 2.62002,-1.201761 1.06679,-0.759186 2.20801,-1.56507 2.53602,-1.790858 0.32799,-0.22577 1.39422,-0.9939034 2.36941,-1.7069684 0.97519,-0.713066 1.84484,-1.224682 1.93258,-1.136958 0.16197,0.161789 0.44189,1.759112 0.76777,4.3792474 0.0989,0.794923 0.22957,1.525936 0.29047,1.624463 0.51762,0.837525 0.51937,25.223818 0.002,26.061149 -0.0525,0.08492 -0.18941,1.213669 -0.30423,2.508214 -0.19928,2.246968 -0.36569,4.027478 -0.76803,8.218006 -0.0998,1.038658 -0.28389,2.559393 -0.40924,3.379408 -0.12537,0.819997 -0.31885,2.206555 -0.43004,3.081218 -0.35739,2.811796 -0.54588,4.149888 -0.74209,5.2679 -0.54741,3.119354 -0.79694,4.822838 -0.91727,6.261856 -0.12449,1.488483 -0.093,1.685782 0.49167,3.081218 0.98205,2.344042 1.54159,3.936532 2.58431,7.355198 0.35016,1.148007 0.71775,2.292756 0.81687,2.543898 0.0991,0.251143 0.18021,0.671843 0.18021,0.934893 0,0.26305 0.0791,0.68376 0.17595,0.9349 0.40892,1.06126 0.91369,3.6237 1.40763,7.14588 0.0867,0.61772 0.22584,1.23375 0.30937,1.36891 0.42789,0.69232 1.0312,8.559783 0.72356,9.435253 -0.33122,0.94254 -0.47994,5.41226 -0.18613,5.59384 0.26056,0.16109 4.3468,0.37982 11.9818,0.6415 5.2516,0.18 6.02072,0.34085 6.95836,1.45516 0.36254,0.43087 0.49623,0.82251 0.49623,1.45378 0,1.10546 -0.62265,1.87638 -2.09873,2.59857 l -1.08655,0.5316 -7.20378,-0.12222 c -7.58707,-0.1287 -9.64271,-0.031 -9.89834,0.47084 -0.0835,0.16406 -0.25648,1.05855 -0.3843,1.98787 -0.12782,0.92935 -0.37726,2.11479 -0.55434,2.63432 -0.25627,0.75192 -0.27165,0.99492 -0.0753,1.19124 0.18487,0.18488 2.47543,0.27979 9.14633,0.37896 9.82806,0.14603 9.71931,0.13185 11.03287,1.44541 0.55206,0.55206 0.72457,0.88701 0.72457,1.40678 0,1.16454 -1.51487,2.53784 -3.28002,2.97352 -0.57907,0.14288 -4.27652,0.15006 -14.48494,0.0278 l -4.94306,-0.0592 -0.37018,0.81507 c -0.20358,0.44829 -0.37211,1.06685 -0.37451,1.37458 -0.002,0.30774 -0.19063,0.99247 -0.41826,1.52163 -0.22764,0.52916 -0.38419,1.17194 -0.34788,1.42837 0.0623,0.44027 0.18793,0.47909 2.25268,0.69617 1.20267,0.12642 2.76814,0.32647 3.47881,0.4445 0.71066,0.11802 2.96991,0.38552 5.02052,0.59441 3.10916,0.31675 3.88502,0.46129 4.67154,0.87033 0.89865,0.46739 2.01577,1.73376 2.02988,2.30111 0.014,0.56483 -1.26965,2.0254 -2.16252,2.46052 -0.83211,0.40549 -2.66396,0.73304 -3.39749,0.6075 z M 70.661812,104.56139 c 3.891987,-0.83577 6.700894,-3.41959 8.266525,-7.604093 0.549314,-1.46816 0.591705,-4.84051 0.07984,-6.34831 -1.29388,-3.81107 -3.906818,-6.4624 -7.524288,-7.63482 -1.233682,-0.39985 -4.809966,-0.3018 -6.057462,0.16599 -4.40369,1.65155 -7.391074,5.92022 -7.391074,10.56108 0,4.19768 2.515935,8.209273 6.244346,9.956463 2.375629,1.11325 4.201874,1.37183 6.382144,0.90362 z m -2.917429,-3.92513 c -2.143433,-0.31747 -4.129717,-1.769643 -5.081527,-3.715073 -0.757731,-1.54873 -0.887005,-4.20296 -0.282694,-5.80414 0.825478,-2.1872 3.002162,-4.00959 5.205005,-4.35782 1.253485,-0.19814 3.165559,0.0732 4.186603,0.59407 0.923181,0.47097 2.427948,1.94099 2.87828,2.81186 0.393776,0.76148 0.308399,0.85354 -2.112861,2.27834 -1.082713,0.63713 -1.972048,1.25717 -1.976303,1.37784 -0.0035,0.12064 0.931534,0.79078 2.07954,1.4891 1.335781,0.81254 2.08728,1.39148 2.08728,1.60804 0,0.51524 -2.096017,2.66744 -3.040578,3.122103 -1.067182,0.51367 -2.764835,0.77015 -3.942745,0.59568 z m 72.299887,3.92862 c 4.32303,-0.82446 7.64393,-4.22206 8.61663,-8.815673 0.33139,-1.56494 0.34354,-1.92813 0.11504,-3.43941 -0.42713,-2.82423 -1.3192,-4.61937 -3.26822,-6.57671 -5.11793,-5.139785 -13.46805,-3.6461 -16.7625,2.99851 -1.13844,2.29614 -1.45453,5.86306 -0.72472,8.17858 0.87609,2.77973 3.04406,5.426853 5.39402,6.586193 2.60047,1.28293 4.17498,1.53668 6.62982,1.06851 z m -4.58658,-4.47251 c -4.71541,-2.238613 -5.41916,-8.889753 -1.27502,-12.050133 1.23785,-0.94397 2.34301,-1.29853 4.04765,-1.29853 1.84852,0 3.05702,0.42517 4.24537,1.49359 1.1442,1.02875 2.11659,2.375 1.93162,2.67431 -0.0732,0.11854 -1.06922,0.76617 -2.21327,1.43925 -1.23655,0.72751 -2.05683,1.33307 -2.02275,1.49325 0.0315,0.14813 0.95142,0.82922 2.0442,1.51338 1.09277,0.68415 2.01439,1.38689 2.04804,1.56162 0.034,0.17643 -0.49591,0.89164 -1.19171,1.60853 -1.54204,1.588743 -2.81199,2.131373 -4.98764,2.131123 -1.16424,-1.2e-4 -1.65797,-0.10663 -2.62649,-0.56639 z m -35.38442,36.81942 c -2.082567,-0.79562 -2.877947,-1.22958 -4.050577,-2.20993 -2.263355,-1.89224 -3.332498,-3.78515 -4.6317,-8.20038 -0.421774,-1.43343 -0.322967,-4.68278 0.175307,-5.76488 1.217152,-2.64326 4.666673,-4.01459 10.85175,-4.31405 2.2865,-0.11067 5.99065,0.32522 7.27106,0.85571 0.36869,0.15269 0.80657,0.27772 0.97307,0.27772 0.64607,0 2.95879,1.641 3.48503,2.47283 1.48568,2.34833 0.86732,7.77737 -1.29943,11.40873 -0.84592,1.41771 -3.18393,3.80402 -4.35724,4.44724 -1.72625,0.94634 -3.42667,1.35225 -5.61801,1.34105 -1.29556,-0.007 -2.28523,-0.11767 -2.79926,-0.31404 z"
       style="fill:#000000;stroke-width:1.75097"
       id="path1-0" /><path
       d="m -13.366535,59.461466 c -0.0144,-0.0025 -0.14072,-0.01702 -0.2806,-0.03233 -0.1399,-0.01531 -0.30566,-0.03482 -0.36838,-0.04335 -0.29513,-0.04016 -0.38383,-0.04975 -0.46965,-0.05075 -0.0822,-9.26e-4 -0.0943,0.0037 -0.10863,0.04126 -0.009,0.02329 -0.0304,0.04674 -0.0478,0.05209 -0.051,0.01566 -0.54826,-0.038 -0.69827,-0.07535 -0.0386,-0.0096 -0.1491,-0.03357 -0.24558,-0.05325 -0.22622,-0.04614 -0.36243,-0.07785 -0.48238,-0.112303 -0.0531,-0.01524 -0.15174,-0.04356 -0.21927,-0.06295 -0.18126,-0.05204 -0.4985,-0.158032 -0.57886,-0.193409 -0.0386,-0.01699 -0.10173,-0.04074 -0.14032,-0.05279 -0.0962,-0.03002 -0.63499,-0.294095 -0.8069,-0.395453 -0.14793,-0.08722 -0.40587,-0.256433 -0.5144,-0.337458 -0.25542,-0.190687 -0.65581,-0.566993 -0.81704,-0.767895 -0.21727,-0.270717 -0.26094,-0.328643 -0.35653,-0.473032 -0.19459,-0.293923 -0.39765,-0.663169 -0.48021,-0.873229 -0.0198,-0.05034 -0.0466,-0.115217 -0.0595,-0.144161 -0.11825,-0.264794 -0.26915,-0.735832 -0.34278,-1.070013 -0.008,-0.03859 -0.0279,-0.121472 -0.0432,-0.184182 -0.0152,-0.06271 -0.0356,-0.157432 -0.0453,-0.210493 -0.01,-0.05306 -0.0251,-0.135944 -0.0344,-0.184183 -0.0438,-0.226769 -0.0832,-0.543583 -0.096,-0.771789 -0.005,-0.08682 -0.0125,-0.169698 -0.017,-0.184183 -0.004,-0.01448 -0.0204,-0.132498 -0.0355,-0.262256 -0.0423,-0.364988 -0.0504,-0.351366 -0.10478,0.176618 -0.0232,0.22557 -0.047,0.433809 -0.0528,0.46275 -0.006,0.02894 -0.0218,0.151294 -0.0356,0.271891 -0.0285,0.249396 -0.049,0.371488 -0.0752,0.447299 -0.01,0.02894 -0.0337,0.147345 -0.0528,0.263118 -0.019,0.115772 -0.0439,0.242068 -0.0553,0.28066 -0.0113,0.03859 -0.0246,0.08989 -0.0295,0.114017 -0.005,0.02412 -0.0154,0.05964 -0.0233,0.07893 -0.0248,0.06056 -0.14083,0.428067 -0.14083,0.44625 0,0.0095 -0.0515,0.141042 -0.11447,0.29224 -0.36516,0.876923 -0.86447,1.576752 -1.50582,2.110524 -0.21005,0.174822 -0.27107,0.220286 -0.47618,0.354833 -0.44276,0.290438 -0.96461,0.540494 -1.45562,0.697496 -0.0965,0.03085 -0.1912,0.06287 -0.21049,0.07116 -0.0324,0.0139 -0.2369,0.07307 -0.46132,0.133443 -0.0511,0.01375 -0.10844,0.025 -0.12741,0.025 -0.0189,0 -0.0482,0.0072 -0.0649,0.01609 -0.0168,0.0089 -0.0897,0.02515 -0.16202,0.03623 -0.0724,0.01108 -0.16044,0.02762 -0.19574,0.03676 -0.0353,0.0091 -0.11819,0.0158 -0.18419,0.01482 -0.066,-9.27e-4 -0.14757,0.0068 -0.18127,0.01731 -0.0337,0.01051 -0.0969,0.01911 -0.14044,0.01911 -0.0435,0 -0.10601,0.0077 -0.1388,0.0171 -0.0552,0.01583 -0.0639,0.01256 -0.11711,-0.04385 -0.0652,-0.06913 -0.10316,-0.07408 -0.32793,-0.04283 -0.0717,0.01 -0.19655,0.02543 -0.27753,0.03437 -0.081,0.0089 -0.28045,0.03107 -0.44325,0.04919 -0.1628,0.01812 -0.31672,0.02991 -0.34205,0.02619 -0.11975,-0.01756 -0.19167,-0.0511 -0.26971,-0.125767 -0.0701,-0.06708 -0.0833,-0.09005 -0.0833,-0.144819 0,-0.07249 0.0598,-0.158055 0.13804,-0.19762 0.0694,-0.03509 0.20472,-0.06112 0.36659,-0.07054 0.0798,-0.0046 0.15476,-0.01452 0.16664,-0.02198 0.0119,-0.0074 0.17158,-0.02803 0.35489,-0.04574 0.54816,-0.05296 0.52532,-0.0484 0.53193,-0.106197 0.003,-0.02738 -0.005,-0.0629 -0.0185,-0.07894 -0.0396,-0.04766 -0.0661,-0.123228 -0.0661,-0.188714 0,-0.08341 -0.0438,-0.162066 -0.0978,-0.175624 -0.0245,-0.0061 -0.0816,-0.0052 -0.12686,0.0021 -0.0452,0.0073 -0.12568,0.01272 -0.17875,0.01204 -0.1461,-0.0019 -0.70544,-4.5e-4 -1.07001,0.0026 l -0.32451,0.0028 -0.10131,-0.05213 c -0.118,-0.06072 -0.18289,-0.12281 -0.20353,-0.194772 -0.0202,-0.07033 0.0443,-0.16992 0.14263,-0.220481 0.0896,-0.04602 0.33017,-0.06152 1.03927,-0.06693 0.25084,-0.0019 0.51132,-0.0088 0.57886,-0.01523 l 0.12278,-0.01176 -0.003,-0.05262 c -0.002,-0.02894 -0.0147,-0.103931 -0.029,-0.166641 -0.0143,-0.06271 -0.0345,-0.15607 -0.045,-0.207466 -0.0104,-0.05139 -0.0229,-0.09966 -0.0275,-0.107245 -0.0189,-0.03056 -0.53863,-0.04888 -0.76368,-0.02692 -0.0338,0.0033 -0.22017,0.0075 -0.41423,0.0093 -0.35132,0.0033 -0.35325,0.0031 -0.44731,-0.04406 -0.1672,-0.08382 -0.22128,-0.163371 -0.18944,-0.278676 0.0396,-0.14361 0.20934,-0.203805 0.58007,-0.205766 0.1384,-7.93e-4 0.34637,-0.0082 0.46214,-0.01664 0.11577,-0.0084 0.31906,-0.01812 0.45176,-0.02155 0.14866,-0.0038 0.24891,-0.01389 0.2612,-0.02617 0.0244,-0.02441 -0.005,-0.465597 -0.0339,-0.499976 -0.0174,-0.02108 5.3e-4,-0.399583 0.022,-0.467677 0.005,-0.01542 0.0169,-0.09509 0.0268,-0.17706 0.01,-0.08197 0.0261,-0.20824 0.0361,-0.280596 0.0101,-0.07235 0.0203,-0.151292 0.0228,-0.175413 0.008,-0.08098 0.11796,-0.533292 0.17199,-0.710416 0.0698,-0.228758 0.18665,-0.586876 0.20606,-0.631484 0.008,-0.01929 0.04,-0.09658 0.0703,-0.17174 l 0.055,-0.136663 -0.0281,-0.15277 c -0.0155,-0.08403 -0.0354,-0.202106 -0.0443,-0.262405 -0.0326,-0.220429 -0.0497,-0.33133 -0.0682,-0.442913 -0.0255,-0.154262 -0.0514,-0.346621 -0.0708,-0.526237 -0.009,-0.082 -0.0246,-0.216195 -0.0349,-0.298199 -0.0261,-0.205953 -0.0559,-0.529869 -0.0614,-0.666566 -0.003,-0.06271 -0.0132,-0.1969 -0.0239,-0.298201 -0.0763,-0.72845 -0.0769,-1.65113 -0.002,-2.280354 0.0511,-0.426946 0.1251,-0.797973 0.18103,-0.908339 0.0557,-0.109918 0.14578,-0.18863 0.25196,-0.220163 0.0866,-0.02572 0.14333,-0.01997 0.41653,0.04225 0.4911,0.11186 1.26428,0.533109 1.92935,1.051168 0.0929,0.07235 0.19714,0.153199 0.23165,0.179648 0.14158,0.108481 0.77964,0.687392 0.93069,0.844419 0.0942,0.09796 0.17641,0.168733 0.19589,0.168733 0.0185,0 0.0717,-0.01643 0.11834,-0.03651 0.13169,-0.05672 0.55187,-0.191521 0.59698,-0.191521 0.016,0 0.0533,-0.0076 0.083,-0.01697 0.46048,-0.145055 1.30431,-0.233147 1.84307,-0.19241 0.45861,0.03468 0.99953,0.109848 1.06018,0.147327 0.009,0.0056 0.0624,0.01837 0.11844,0.0283 0.056,0.0099 0.16108,0.03626 0.23345,0.05851 0.0724,0.02225 0.17892,0.0546 0.2368,0.07189 0.0579,0.01729 0.16182,0.05393 0.23096,0.08141 0.0691,0.02748 0.13884,0.04996 0.15489,0.04996 0.016,0 0.13313,-0.104936 0.26019,-0.23319 0.27887,-0.281488 0.68605,-0.646576 0.92353,-0.828051 0.0505,-0.03859 0.15752,-0.121473 0.23781,-0.184183 0.36454,-0.284694 0.73121,-0.514282 1.18884,-0.744379 0.20092,-0.101024 0.44641,-0.199233 0.45674,-0.182723 0.0168,0.02688 0.0643,0.263447 0.0557,0.277386 -0.006,0.0098 -0.002,0.04746 0.008,0.08377 0.0107,0.0363 0.0308,0.191141 0.0448,0.344072 0.014,0.15293 0.0298,0.285148 0.0351,0.293813 0.0203,0.03276 0.065,0.01224 0.23119,-0.106043 0.0941,-0.06699 0.19484,-0.138102 0.22378,-0.158027 0.0289,-0.01992 0.12303,-0.0877 0.20908,-0.150623 0.0861,-0.06292 0.16279,-0.108066 0.17054,-0.100326 0.0143,0.01428 0.039,0.155226 0.0677,0.386428 0.009,0.07014 0.0203,0.134649 0.0256,0.143342 0.0457,0.0739 0.0458,2.225758 1.8e-4,2.299644 -0.005,0.0075 -0.0167,0.107096 -0.0268,0.221326 -0.0176,0.198273 -0.0323,0.355386 -0.0678,0.72516 -0.009,0.09165 -0.025,0.225841 -0.0361,0.298199 -0.0111,0.07235 -0.0281,0.194708 -0.0379,0.271889 -0.0315,0.248113 -0.0482,0.366186 -0.0655,0.46484 -0.0483,0.275254 -0.0703,0.42557 -0.0809,0.552548 -0.011,0.131345 -0.008,0.148754 0.0434,0.271889 0.0866,0.206839 0.13602,0.34736 0.22804,0.649024 0.0309,0.101301 0.0633,0.202314 0.0721,0.224476 0.009,0.02216 0.0159,0.05928 0.0159,0.0825 0,0.02321 0.007,0.06033 0.0155,0.08249 0.0361,0.09365 0.0806,0.319757 0.12421,0.630555 0.008,0.0545 0.0199,0.108867 0.0273,0.120793 0.0378,0.06109 0.091,0.755317 0.0638,0.832569 -0.0292,0.08317 -0.0424,0.47758 -0.0164,0.493603 0.023,0.01421 0.38356,0.03351 1.05727,0.0566 0.46341,0.01588 0.53127,0.03008 0.61401,0.128403 0.032,0.03802 0.0438,0.07258 0.0438,0.128283 0,0.09755 -0.0549,0.165572 -0.18519,0.229299 l -0.0959,0.04691 -0.63566,-0.01079 c -0.66949,-0.01136 -0.85089,-0.0027 -0.87344,0.04154 -0.007,0.01448 -0.0226,0.09341 -0.0339,0.175411 -0.0113,0.08201 -0.0333,0.186609 -0.0489,0.232453 -0.0226,0.06635 -0.024,0.08779 -0.007,0.105115 0.0163,0.01631 0.21843,0.02469 0.80707,0.03344 0.86723,0.01289 0.85764,0.01163 0.97354,0.127543 0.0487,0.04871 0.0639,0.07827 0.0639,0.124135 0,0.102759 -0.13367,0.223939 -0.28943,0.262385 -0.0511,0.01261 -0.37736,0.01324 -1.27816,0.0025 l -0.43617,-0.0052 -0.0327,0.07193 c -0.018,0.03956 -0.0328,0.09414 -0.033,0.121293 -1.8e-4,0.02715 -0.0168,0.08757 -0.0369,0.134269 -0.0201,0.04669 -0.0339,0.103413 -0.0307,0.12604 0.006,0.03885 0.0166,0.04227 0.19878,0.06143 0.10612,0.01116 0.24426,0.02881 0.30697,0.03922 0.0627,0.01041 0.26207,0.03402 0.44301,0.05245 0.27435,0.02795 0.34282,0.0407 0.41222,0.07679 0.0793,0.04124 0.17787,0.152988 0.17911,0.203051 10e-4,0.04984 -0.11202,0.178722 -0.19082,0.217117 -0.0734,0.03578 -0.23506,0.06468 -0.2998,0.0536 z m -10.28704,-3.045829 c 0.34343,-0.07375 0.59128,-0.301746 0.72944,-0.670988 0.0485,-0.129551 0.0522,-0.427128 0.007,-0.560177 -0.11417,-0.33629 -0.34474,-0.570245 -0.66395,-0.673699 -0.10885,-0.03528 -0.42442,-0.02663 -0.53451,0.01465 -0.38858,0.145734 -0.65219,0.522402 -0.65219,0.931914 0,0.370404 0.22201,0.724388 0.55101,0.87856 0.20962,0.09824 0.37077,0.121051 0.56316,0.07973 z m -0.25744,-0.346355 c -0.18913,-0.02801 -0.3644,-0.156154 -0.44839,-0.327819 -0.0669,-0.136661 -0.0783,-0.370871 -0.025,-0.51216 0.0728,-0.192998 0.26491,-0.353807 0.45929,-0.384535 0.11061,-0.01748 0.27933,0.0065 0.36943,0.05242 0.0815,0.04156 0.21424,0.171273 0.25398,0.24812 0.0347,0.06719 0.0272,0.07532 -0.18644,0.201041 -0.0955,0.05622 -0.17402,0.110933 -0.17439,0.121581 -2.7e-4,0.01064 0.0822,0.06977 0.1835,0.131398 0.11787,0.07169 0.18418,0.122785 0.18418,0.141895 0,0.04546 -0.18495,0.235376 -0.26831,0.275494 -0.0942,0.04532 -0.24396,0.06796 -0.34791,0.05256 z m 6.37977,0.346663 c 0.38147,-0.07276 0.6745,-0.372556 0.76034,-0.777899 0.0292,-0.13809 0.0303,-0.170138 0.0102,-0.303494 -0.0377,-0.249211 -0.11642,-0.407615 -0.2884,-0.58033 -0.4516,-0.453536 -1.18842,-0.321734 -1.47912,0.264588 -0.10046,0.202613 -0.12835,0.517358 -0.0639,0.721681 0.0773,0.245284 0.26861,0.478867 0.47597,0.581167 0.22946,0.113207 0.3684,0.135598 0.58501,0.09429 z m -0.40472,-0.394657 c -0.41608,-0.197536 -0.47819,-0.784434 -0.11251,-1.063306 0.10923,-0.08329 0.20675,-0.114583 0.35716,-0.114583 0.16312,0 0.26976,0.03751 0.37462,0.131795 0.10096,0.09078 0.18677,0.20957 0.17045,0.235981 -0.006,0.01046 -0.0943,0.0676 -0.1953,0.127001 -0.10912,0.06419 -0.1815,0.11763 -0.17848,0.131764 0.003,0.01307 0.0839,0.07317 0.18038,0.133541 0.0964,0.06037 0.17775,0.12238 0.18072,0.137798 0.003,0.01557 -0.0438,0.07867 -0.10517,0.141937 -0.13607,0.140191 -0.24812,0.188073 -0.44011,0.188051 -0.10273,-1.1e-5 -0.14629,-0.0094 -0.23176,-0.04998 z m -3.12234,3.248958 c -0.18376,-0.0702 -0.25394,-0.108498 -0.35742,-0.195005 -0.19972,-0.166972 -0.29405,-0.334003 -0.4087,-0.723604 -0.0372,-0.126486 -0.0285,-0.413209 0.0155,-0.508695 0.10741,-0.233242 0.41179,-0.354248 0.95757,-0.380673 0.20176,-0.0098 0.52861,0.0287 0.64159,0.0755 0.0325,0.01347 0.0712,0.02451 0.0859,0.02451 0.057,0 0.26109,0.144803 0.30752,0.218203 0.1311,0.207219 0.0765,0.686278 -0.11467,1.006711 -0.0746,0.125099 -0.28095,0.335667 -0.38448,0.392426 -0.15232,0.08351 -0.30237,0.119323 -0.49573,0.118335 -0.11433,-6.09e-4 -0.20165,-0.01038 -0.24701,-0.02771 z"
       style="fill:#000000;stroke-width:0.154506"
       id="path1-0-5"
       inkscape:export-filename="logo64.png"
       inkscape:export-xdpi="96"
       inkscape:export-ydpi="96" /><path
       d="m 91.378544,177.87056 c -0.157937,-0.26513 -0.255869,-6.98968 -0.200048,-13.7429 l 0.04973,-6.01336 h 2.110463 c 2.086894,0 2.109289,0.005 2.00649,0.44727 -0.05726,0.24601 -0.258601,1.07347 -0.447584,1.8388 -0.279244,1.13085 -0.360664,2.63507 -0.43459,8.02963 l -0.09105,6.63813 5.751375,-0.1448 5.75139,-0.14481 -0.33839,1.34428 c -0.24092,0.95701 -0.44993,1.38554 -0.72553,1.48748 -0.5878,0.21745 -13.310927,0.46381 -13.432304,0.26011 z M 72.40981,174.40982 c -3.591345,-0.37816 -6.598794,-2.17082 -8.162078,-4.86517 -0.425346,-0.73308 -0.712172,-1.00999 -1.092898,-1.0551 l -0.5162,-0.0611 0.08771,1.65147 c 0.04824,0.90832 0.121079,1.98694 0.16186,2.39694 l 0.07415,0.74546 -1.919274,-0.004 c -1.0556,-0.002 -2.02394,-0.0697 -2.151862,-0.15093 -0.167778,-0.10681 -0.256015,-2.11363 -0.316668,-7.20305 -0.04624,-3.88031 -0.15328,-7.25637 -0.237873,-7.50238 l -0.153788,-0.44727 h 3.673645 c 4.192965,0 5.2384,0.14936 7.031042,1.00497 1.85258,0.88415 2.362357,1.7153 2.362357,3.85165 0,2.42756 -0.697901,3.4264 -3.330223,4.76624 -0.874924,0.44534 -0.900908,0.59115 -0.270682,1.51862 0.944473,1.38993 3.347225,2.17737 6.643812,2.17737 h 1.376452 l -0.163365,0.84486 c -0.08983,0.46466 -0.167393,1.22504 -0.172121,1.68971 l -0.0088,0.84484 -0.745458,-0.027 c -0.410004,-0.014 -1.386432,-0.0946 -2.169817,-0.17697 z m -6.653459,-9.38447 c 1.366265,-0.50817 1.815984,-0.9626 1.815984,-1.83502 0,-1.41414 -2.193389,-2.9742 -3.610291,-2.56783 -1.018838,0.29218 -1.341388,0.94016 -1.390721,2.79383 -0.05372,2.0186 0.139482,2.33485 1.307777,2.14052 0.445937,-0.0742 1.290693,-0.31335 1.877251,-0.5315 z m 115.423789,9.38556 c -2.8102,-0.3007 -4.62658,-1.06719 -6.45929,-2.72569 -0.67409,-0.61 -1.49542,-1.58719 -1.8252,-2.17151 -0.46458,-0.82322 -0.70718,-1.0624 -1.07756,-1.0624 -0.4454,0 -0.4773,0.0711 -0.46779,1.04365 0.005,0.574 0.0774,1.64746 0.15934,2.38548 l 0.14918,1.34182 -1.8988,-0.004 c -1.04435,-0.002 -2.00273,-0.0692 -2.12971,-0.14989 -0.16547,-0.10523 -0.25599,-2.14723 -0.31943,-7.20306 -0.0487,-3.88087 -0.15881,-7.26635 -0.24477,-7.52329 l -0.15618,-0.46716 4.35203,0.0884 c 4.16175,0.0846 4.40921,0.11171 5.65937,0.62224 1.9897,0.8125 3.16542,2.26893 3.16542,3.92116 0,2.15462 -1.03099,3.76916 -3.0545,4.78334 -0.67071,0.33615 -1.25492,0.64349 -1.29825,0.68298 -0.19014,0.17334 1.04695,1.71327 1.75002,2.17854 0.91192,0.60348 3.21198,1.06486 5.35923,1.07503 l 1.46437,0.007 -0.13465,1.34182 c -0.0741,0.73801 -0.18,1.49837 -0.23534,1.6897 -0.11049,0.38199 -0.40035,0.39723 -2.75749,0.14498 z m -7.79028,-9.05685 c 2.1967,-0.56923 2.90273,-1.10726 2.91364,-2.22034 0.005,-0.49181 -0.18082,-0.8332 -0.77745,-1.42982 -0.99126,-0.99126 -2.06301,-1.34515 -3.06866,-1.01326 -0.97586,0.32206 -1.16058,0.76082 -1.19086,2.8284 -0.0336,2.30011 0.0499,2.3723 2.12333,1.83502 z m -51.84637,8.35506 c -2.25867,-1.55425 -4.00419,-3.68903 -5.88164,-7.19321 -0.48244,-0.90047 -0.97574,-1.63847 -1.09619,-1.64001 -0.23931,-0.004 -0.47781,2.37101 -0.46907,4.66875 0.005,1.21704 0.26748,2.34253 0.85885,3.67761 0.11644,0.26266 -0.73795,0.29064 -7.17278,0.23487 -4.01768,-0.0348 -7.33169,-0.0902 -7.36448,-0.12291 -0.0327,-0.0327 -0.14253,-2.41958 -0.2439,-5.304 -0.10138,-2.88441 -0.231651,-6.29547 -0.289538,-7.58016 l -0.105233,-2.33576 h 5.094761 5.09479 l -0.13973,1.7394 c -0.0769,0.95668 -0.20381,1.80492 -0.28223,1.88497 -0.0785,0.08 -0.50786,-0.0352 -0.95427,-0.25601 -0.68041,-0.33664 -1.12937,-0.39232 -2.77663,-0.34435 l -1.96497,0.0573 -0.0581,1.54063 -0.0581,1.54061 h 2.65867 2.65867 l -0.0804,1.14303 c -0.0441,0.62867 -0.11487,1.25215 -0.15689,1.38553 -0.0538,0.17019 -0.83471,0.25907 -2.61969,0.29817 l -2.54309,0.0557 -0.0995,1.46101 c -0.0546,0.80353 -0.0439,1.55039 0.0238,1.65965 0.2125,0.34247 5.52914,0.11628 6.27474,-0.26698 0.76887,-0.3952 0.84386,-0.27792 0.88694,1.38684 0.0606,2.34042 0.32235,-1.69922 0.47772,-7.37143 l 0.1511,-5.5164 h 0.52948 c 0.29122,0 0.98142,0.1343 1.53378,0.29824 1.67214,0.49658 2.933,1.96141 4.63718,5.38734 0.78311,1.57428 1.49472,2.86234 1.58134,2.86234 0.17089,0 0.32158,-1.73734 0.52287,-6.0298 l 0.12905,-2.74979 1.96279,0.0662 c 1.07954,0.0364 1.9629,0.0779 1.96303,0.0921 1.4e-4,0.014 -0.21416,0.59577 -0.47621,1.29213 -0.76712,2.03853 -0.98972,4.61706 -0.85945,9.95577 0.087,3.56927 0.0578,4.72589 -0.11924,4.71763 -0.12905,-0.005 -0.68188,-0.31875 -1.22855,-0.69493 z m 30.61347,-0.0571 c -2.06884,-1.31672 -3.94274,-3.61104 -5.79835,-7.09922 -0.87659,-1.64782 -1.2385,-2.02468 -1.27896,-1.33187 -0.0105,0.19133 -0.0769,0.83989 -0.14603,1.44122 -0.0692,0.60134 -0.12607,1.89842 -0.12625,2.88243 -4.2e-4,1.52015 0.0788,1.95913 0.52713,2.92007 l 0.52762,1.13095 -2.12046,-0.11469 c -1.16623,-0.063 -2.12566,-0.12467 -2.13205,-0.13693 -0.007,-0.0122 0.0751,-3.35453 0.181,-7.42722 l 0.1926,-7.40489 h 0.62844 c 0.94269,0 2.31958,0.53191 3.15107,1.2173 1.01194,0.83412 2.18605,2.61759 3.32523,5.05106 0.52554,1.12258 1.04283,2.09503 1.14955,2.16099 0.11714,0.0723 0.23902,-0.53077 0.30749,-1.52077 0.12046,-1.74109 0.39603,-6.20889 0.41391,-6.70979 0.009,-0.24391 0.34461,-0.29535 1.8458,-0.28262 1.00933,0.009 1.88152,0.062 1.93817,0.11854 0.0567,0.0567 -0.0242,0.40747 -0.17956,0.77958 -0.15549,0.37214 -0.44491,1.39223 -0.64331,2.26691 -0.30849,1.35995 -0.3552,2.40379 -0.32256,7.20609 0.021,3.08868 -0.0261,5.61495 -0.10471,5.6139 -0.0786,-0.001 -0.67968,-0.34349 -1.33568,-0.76101 z m 3.59455,-0.39945 c -0.75633,-0.18142 -1.40995,-0.43423 -1.45246,-0.56177 -0.0426,-0.12747 0.14568,-0.97707 0.41818,-1.88784 0.27251,-0.91078 1.08694,-3.98179 1.80982,-6.82447 0.72291,-2.84266 1.36513,-5.33855 1.4272,-5.54639 0.10751,-0.36032 0.30206,-0.37252 4.18425,-0.26245 2.23928,0.0636 4.10056,0.14463 4.13619,0.18021 0.0356,0.0355 0.0877,0.69044 0.11574,1.45518 l 0.0511,1.39041 -1.33753,0.059 c -1.61725,0.0713 -1.71478,0.22257 -1.15053,1.78372 0.91408,2.5291 2.84076,8.83246 2.73272,8.94048 -0.29236,0.29236 -2.84837,1.24354 -3.34164,1.24354 -0.55077,0 -0.55241,-0.004 -0.55241,-1.37497 0,-0.75906 -0.0909,-1.40526 -0.20303,-1.44262 -0.3217,-0.10717 -3.96694,0.16249 -4.10846,0.304 -0.0702,0.0702 -0.22635,0.73154 -0.34702,1.46968 -0.25608,1.56629 -0.2821,1.57802 -2.38215,1.07429 z m 6.44429,-5.61651 c 0,-0.18844 -1.03568,-3.93862 -1.30617,-4.72965 -0.15531,-0.45415 -0.27479,-0.17282 -0.88881,2.09206 -0.81602,3.01016 -0.85927,2.85641 0.80347,2.85641 0.88007,0 1.39151,-0.0804 1.39151,-0.21882 z M 47.811,172.7749 c -0.0546,-0.35532 -0.146312,-2.16679 -0.203834,-4.02547 -0.05752,-1.85867 -0.165047,-5.01196 -0.238975,-7.00731 l -0.134404,-3.62789 h 5.020537 5.020537 l -0.06948,1.77279 c -0.03821,0.97502 -0.12789,1.83107 -0.199304,1.90236 -0.0714,0.0713 -0.492753,-0.0555 -0.936328,-0.28188 -0.649272,-0.33123 -1.177421,-0.41144 -2.709152,-0.41144 -1.348593,0 -1.92504,0.0723 -1.979534,0.24848 -0.04229,0.13658 -0.131428,0.85232 -0.198085,1.59032 l -0.121203,1.34182 h 2.714033 2.714034 l -0.124249,0.62121 c -0.06834,0.34167 -0.124249,0.96785 -0.124249,1.39153 v 0.77031 h -2.473128 c -1.360221,0 -2.51344,0.0671 -2.56271,0.149 -0.04927,0.082 -0.12164,0.82 -0.160827,1.64 l -0.07125,1.49091 2.882437,-0.005 c 2.355555,-0.005 3.000533,-0.0693 3.528502,-0.353 l 0.646064,-0.34707 v 1.89359 1.89361 h -5.060075 -5.060108 z m 32.413967,-3.28001 c -0.07197,-2.15935 -0.188808,-5.60337 -0.259512,-7.65337 l -0.128521,-3.72729 h 5.0242 5.0242 l -0.08527,1.7838 c -0.04693,0.9811 -0.138677,1.83715 -0.203831,1.90236 -0.06514,0.0651 -0.481482,-0.0665 -0.925055,-0.29289 -0.649277,-0.33123 -1.17744,-0.41144 -2.709172,-0.41144 -1.34858,0 -1.925034,0.0723 -1.979525,0.24848 -0.04237,0.13658 -0.131497,0.85232 -0.198087,1.59032 l -0.121167,1.34182 h 2.714039 2.71404 l -0.124319,0.62121 c -0.06829,0.34167 -0.124319,0.96785 -0.124319,1.39153 v 0.77031 h -2.473125 c -1.360224,0 -2.513449,0.0671 -2.562721,0.149 -0.0492,0.082 -0.121692,0.82 -0.160914,1.64 l -0.07127,1.49091 h 2.891448 c 2.419071,0 2.978139,-0.0569 3.422115,-0.34786 0.291869,-0.19135 0.578538,-0.34789 0.637055,-0.34789 0.05848,0 0.106459,0.84983 0.106459,1.88851 v 1.88849 h -5.137943 -5.137943 z m 56.045043,3.18063 c 0.0678,-0.30068 0.20041,-0.85976 0.29488,-1.24244 0.26404,-1.0695 0.37409,-3.62597 0.37966,-8.81896 l 0.005,-4.74377 2.07529,0.0769 c 1.14142,0.0422 2.1265,0.128 2.1891,0.19061 0.0625,0.0627 -0.0594,0.5078 -0.27079,0.98937 -0.76426,1.73996 -0.91336,3.20792 -0.89154,8.77742 l 0.0208,5.31762 h -1.9628 -1.96282 z m -97.522059,0.17229 c -1.25463,-0.27441 -2.313675,-0.96529 -2.94824,-1.92332 -1.093474,-1.65084 -1.325718,-2.65872 -1.325718,-5.75322 0,-2.71217 0.01593,-2.81687 0.629071,-4.11088 0.83275,-1.75774 2.019013,-3.02769 3.205992,-3.43214 1.354697,-0.46159 2.802667,-0.58316 3.786627,-0.31793 1.517538,0.40908 3.240647,2.38922 3.685052,4.23476 0.307546,1.27719 -1.41249,2.93042 -3.048839,2.93042 -0.509368,0 -1.099767,-0.13132 -1.311999,-0.29186 -0.363168,-0.27468 -0.364504,-0.29222 -0.02269,-0.29818 0.55258,-0.0105 1.525321,-1.08777 1.525321,-1.69061 0,-1.37028 -1.213437,-2.28705 -2.528085,-1.91001 -1.030964,0.29567 -1.819319,0.85176 -2.124083,1.49828 -0.743492,1.57723 -0.858741,4.69077 -0.228114,6.16265 0.339189,0.79166 1.214215,1.59893 2.162538,1.99507 0.712186,0.29749 0.80154,0.29427 1.39141,-0.0503 0.346694,-0.20248 0.827827,-0.72019 1.069185,-1.15048 0.395171,-0.70448 0.410016,-0.82629 0.1492,-1.22434 -0.159303,-0.24312 -0.28963,-0.48991 -0.28963,-0.54842 0,-0.0585 0.984004,-0.10646 2.186677,-0.10646 1.202672,0 2.183832,0.0671 2.180354,0.149 -0.0035,0.082 -0.137661,0.32273 -0.298183,0.53496 -0.160529,0.21224 -0.291861,0.68544 -0.291861,1.05156 0,0.81697 -0.566577,1.95831 -1.333716,2.6867 -1.203862,1.14303 -4.433473,1.95536 -6.22026,1.56453 z m 89.454969,6.5e-4 c -2.91863,-0.63567 -4.52297,-3.73262 -4.33875,-8.37527 0.0667,-1.68182 0.15549,-2.06038 0.80371,-3.42519 1.01131,-2.12953 2.12101,-3.17745 3.81545,-3.60308 1.79207,-0.45016 2.65462,-0.40808 3.85046,0.18783 1.15765,0.57687 1.82933,1.28833 2.53957,2.68993 0.84726,1.672 0.52443,2.7341 -1.13934,3.74847 -0.73971,0.451 -2.12955,0.53659 -2.80896,0.173 -0.41734,-0.22337 -0.40832,-0.23946 0.26058,-0.46469 1.60599,-0.54074 1.70385,-2.5855 0.15987,-3.34021 -0.62282,-0.30444 -0.86059,-0.32454 -1.57204,-0.13289 -1.83927,0.49528 -2.66841,2.28113 -2.52986,5.44898 0.0925,2.11335 0.43568,2.8822 1.6646,3.72857 1.24182,0.85524 1.71507,0.88832 2.52576,0.17653 0.38265,-0.33598 0.80802,-0.88193 0.94524,-1.21321 0.21244,-0.51288 0.20131,-0.6556 -0.0749,-0.96081 -0.17843,-0.19716 -0.3244,-0.41852 -0.3244,-0.4919 0,-0.0734 0.99358,-0.13342 2.20795,-0.13342 2.0261,0 2.19588,0.0287 2.0614,0.34788 -0.0805,0.19133 -0.2195,0.77612 -0.30864,1.29953 -0.21502,1.26226 -0.92458,2.50765 -1.74278,3.05875 -1.54936,1.04359 -4.34398,1.6409 -5.99492,1.28132 z"
       style="fill:#000000;stroke-width:1.75097"
       id="path1-8" /><g
       id="g1"
       transform="matrix(0.17646893,0,0,0.17646893,4.2777189,-25.08374)"
       inkscape:export-filename="logo128.png"
       inkscape:export-xdpi="96"
       inkscape:export-ydpi="96"><path
         d="m -92.324306,304.76397 c -0.16371,-0.028 -1.59475,-0.19291 -3.18009,-0.36641 -1.58535,-0.17352 -3.4639,-0.3946 -4.17456,-0.49131 -3.344724,-0.45518 -4.349854,-0.56381 -5.322534,-0.57521 -0.93112,-0.0105 -1.06901,0.0415 -1.23104,0.46767 -0.10033,0.26399 -0.34415,0.52967 -0.54175,0.59041 -0.5774,0.17749 -6.21322,-0.43069 -7.91325,-0.85393 -0.43734,-0.10891 -1.68971,-0.38047 -2.78305,-0.60351 -2.56372,-0.52298 -4.10735,-0.88235 -5.46669,-1.27269 -0.60133,-0.17265 -1.71952,-0.49372 -2.48485,-0.71345 -2.0542,-0.58973 -5.64933,-1.79093 -6.56003,-2.19185 -0.43734,-0.19252 -1.15298,-0.46177 -1.59032,-0.59831 -1.0898,-0.34025 -7.19607,-3.33288 -9.14428,-4.48154 -1.67647,-0.98842 -4.59961,-2.90608 -5.82953,-3.82431 -2.89451,-2.161 -7.43205,-6.42555 -9.25932,-8.70231 -2.46229,-3.06795 -2.95706,-3.72441 -4.04039,-5.36072 -2.20526,-3.33093 -4.50645,-7.51548 -5.44207,-9.89603 -0.22424,-0.57054 -0.52756,-1.30572 -0.67407,-1.63373 -1.34024,-3.00083 -3.05031,-8.33895 -3.88461,-12.12612 -0.0963,-0.43732 -0.31654,-1.37661 -0.48935,-2.08728 -0.17282,-0.71066 -0.40358,-1.78413 -0.51286,-2.38546 -0.10926,-0.60134 -0.28498,-1.54062 -0.39051,-2.08729 -0.49611,-2.5699 -0.94278,-6.16026 -1.08814,-8.74645 -0.0553,-0.98385 -0.14201,-1.92312 -0.19251,-2.08728 -0.0506,-0.16406 -0.23139,-1.50156 -0.40181,-2.97206 -0.47942,-4.1363 -0.57101,-3.98192 -1.18746,2.00155 -0.26336,2.55632 -0.5325,4.91622 -0.59807,5.24421 -0.0655,0.32801 -0.24707,1.71457 -0.40332,3.08124 -0.32314,2.82635 -0.55569,4.20996 -0.85204,5.06911 -0.11312,0.328 -0.38219,1.66982 -0.59791,2.98184 -0.21572,1.312 -0.49752,2.74328 -0.62621,3.18062 -0.1287,0.43732 -0.27927,1.01878 -0.33456,1.29212 -0.0553,0.27333 -0.17387,0.67588 -0.26368,0.89454 -0.28163,0.68634 -1.59602,4.85115 -1.59602,5.05721 0,0.10803 -0.58377,1.59839 -1.29729,3.31187 -4.13826,9.93788 -9.79685,17.86884 -17.06499,23.91791 -2.38046,1.98119 -3.0719,2.49643 -5.39637,4.02121 -5.01768,3.29143 -10.93163,6.12525 -16.49606,7.9045 -1.09334,0.3496 -2.1668,0.7125 -2.38547,0.80644 -0.36689,0.15759 -2.6847,0.82811 -5.2279,1.51226 -0.57934,0.15584 -1.2291,0.28338 -1.44392,0.28338 -0.21482,0 -0.54591,0.0821 -0.73576,0.18231 -0.18985,0.10033 -1.01609,0.28506 -1.8361,0.41066 -0.82,0.12554 -1.81825,0.31307 -2.21834,0.41662 -0.40008,0.10348 -1.33936,0.17911 -2.08728,0.16792 -0.74792,-0.0105 -1.67236,0.077 -2.05431,0.19621 -0.38194,0.11907 -1.09817,0.2166 -1.59162,0.2166 -0.49345,0 -1.20124,0.0872 -1.57287,0.1938 -0.62546,0.17937 -0.72412,0.14235 -1.32716,-0.49698 -0.73888,-0.78344 -1.16922,-0.83964 -3.71629,-0.48539 -0.81213,0.11294 -2.22751,0.28823 -3.14531,0.38949 -0.9178,0.1012 -3.17821,0.35212 -5.02312,0.55749 -1.84492,0.20537 -3.58929,0.33895 -3.87638,0.29684 -1.3571,-0.19901 -2.17219,-0.5791 -3.05655,-1.42529 -0.79452,-0.76023 -0.94424,-1.02048 -0.94424,-1.64118 0,-0.82154 0.67728,-1.79119 1.56429,-2.23956 0.78664,-0.39765 2.32007,-0.69272 4.15451,-0.79948 0.904,-0.0525 1.75383,-0.16459 1.8885,-0.24908 0.13467,-0.0844 1.9445,-0.31766 4.02184,-0.51839 6.21215,-0.60023 5.95328,-0.54856 6.02826,-1.20351 0.0355,-0.31034 -0.059,-0.71289 -0.21005,-0.89455 -0.44914,-0.54018 -0.74909,-1.39651 -0.74909,-2.13864 0,-0.94528 -0.49658,-1.83664 -1.10879,-1.99029 -0.27785,-0.0697 -0.92477,-0.0592 -1.4376,0.0235 -0.51283,0.0826 -1.42442,0.14411 -2.02576,0.1364 -1.65586,-0.021 -7.99464,-0.005 -12.12611,0.0294 l -3.6776,0.0312 -1.14807,-0.59076 c -1.3374,-0.68814 -2.07264,-1.39177 -2.30653,-2.2073 -0.22861,-0.79712 0.50141,-1.92565 1.6163,-2.49864 1.01493,-0.5216 3.74168,-0.69724 11.77774,-0.75859 2.84268,-0.0217 5.7947,-0.0994 6.56003,-0.17264 l 1.39153,-0.13325 -0.0347,-0.59637 c -0.0191,-0.32801 -0.1671,-1.17782 -0.32897,-1.88849 -0.16186,-0.71068 -0.39126,-1.76869 -0.50977,-2.35115 -0.1185,-0.58246 -0.25896,-1.12938 -0.3121,-1.21537 -0.21408,-0.34638 -6.10417,-0.55399 -8.65454,-0.30503 -0.38267,0.0373 -2.49514,0.0847 -4.69437,0.10523 -3.9814,0.0371 -4.00322,0.035 -5.06912,-0.49935 -1.89485,-0.94986 -2.50776,-1.85144 -2.14696,-3.15815 0.44937,-1.62748 2.37252,-2.30966 6.57374,-2.33188 1.56852,-0.009 3.92531,-0.0932 5.23731,-0.18858 1.31201,-0.0954 3.61585,-0.20531 5.11965,-0.24419 1.68468,-0.0436 2.82092,-0.15741 2.96013,-0.29661 0.27658,-0.27658 -0.0621,-5.27646 -0.38378,-5.66607 -0.19728,-0.23894 0.005,-4.52834 0.24985,-5.30003 0.0554,-0.17475 0.19187,-1.07762 0.30319,-2.00658 0.11131,-0.92894 0.29549,-2.35991 0.40928,-3.1799 0.1138,-0.82 0.23022,-1.71455 0.25873,-1.9879 0.0957,-0.91775 1.33674,-6.04363 1.94915,-8.05092 0.79094,-2.59244 2.11523,-6.65089 2.33516,-7.15641 0.0951,-0.21867 0.45361,-1.0945 0.7966,-1.94628 l 0.62362,-1.54875 -0.3184,-1.73131 c -0.17512,-0.95221 -0.40114,-2.29039 -0.50227,-2.97374 -0.3697,-2.49806 -0.5631,-3.75486 -0.7724,-5.01941 -0.28935,-1.7482 -0.58245,-3.92814 -0.80182,-5.96366 -0.10015,-0.92935 -0.2783,-2.45008 -0.39588,-3.37941 -0.29528,-2.33399 -0.63334,-6.00483 -0.69566,-7.55399 -0.0286,-0.71066 -0.15032,-2.2314 -0.27052,-3.37941 -0.86436,-8.2553 -0.87112,-18.71174 -0.0166,-25.84253 0.57974,-4.83846 1.41772,-9.04319 2.05151,-10.29392 0.63122,-1.24566 1.65211,-2.13769 2.85544,-2.49505 0.98175,-0.29154 1.62432,-0.22636 4.72038,0.47884 5.5655,1.26767 14.32764,6.04155 21.86473,11.91255 1.0527,0.82 2.23406,1.73616 2.62526,2.03589 1.60445,1.22939 8.83533,7.79 10.54723,9.56955 1.06783,1.11004 1.99906,1.91219 2.2199,1.91219 0.2092,0 0.81271,-0.18621 1.34112,-0.4138 1.49244,-0.64282 6.25411,-2.17045 6.76535,-2.17045 0.18127,0 0.60431,-0.0865 0.94007,-0.19229 5.21853,-1.64387 14.78138,-2.64218 20.88695,-2.18052 5.1973,0.393 11.32743,1.24487 12.01467,1.6696 0.1033,0.0639 0.70737,0.20821 1.34236,0.32078 0.63501,0.11259 1.82546,0.41097 2.64546,0.66311 0.82001,0.25212 2.02765,0.61878 2.68366,0.81476 0.656,0.196 1.8338,0.61116 2.61736,0.92259 0.78355,0.31142 1.57343,0.56622 1.7553,0.56622 0.18185,0 1.50878,-1.1892 2.9487,-2.64266 3.16031,-3.19001 7.7748,-7.32745 10.46603,-9.38405 0.5723,-0.43734 1.78508,-1.37661 2.69506,-2.08728 4.13125,-3.22636 8.28661,-5.82819 13.47277,-8.43583 2.27698,-1.14487 5.05899,-2.25784 5.17604,-2.07073 0.19053,0.3046 0.72897,2.98556 0.63133,3.14354 -0.0685,0.11066 -0.0256,0.53793 0.0954,0.94941 0.12099,0.41146 0.34943,2.16612 0.50782,3.89925 0.15846,1.73311 0.33764,3.23149 0.39834,3.3297 0.22943,0.37122 0.73655,0.13868 2.62002,-1.20176 1.06679,-0.75919 2.20801,-1.56507 2.53602,-1.79086 0.32799,-0.22577 1.39422,-0.9939 2.36941,-1.70697 0.97519,-0.71306 1.84484,-1.22468 1.93258,-1.13696 0.16197,0.16179 0.44189,1.75912 0.76777,4.37925 0.0989,0.79492 0.22957,1.52594 0.29047,1.62446 0.51762,0.83753 0.51937,25.22382 0.002,26.06115 -0.0525,0.0849 -0.18941,1.21367 -0.30423,2.50821 -0.19928,2.24697 -0.36569,4.02748 -0.76803,8.21801 -0.0998,1.03866 -0.28389,2.55939 -0.40924,3.37941 -0.12537,0.81999 -0.31885,2.20655 -0.43004,3.08122 -0.35739,2.81179 -0.54588,4.14988 -0.74209,5.2679 -0.54741,3.11935 -0.79694,4.82283 -0.91727,6.26185 -0.12449,1.48848 -0.093,1.68578 0.49167,3.08122 0.98205,2.34404 1.54159,3.93653 2.58431,7.3552 0.35016,1.148 0.71775,2.29275 0.81687,2.5439 0.0991,0.25114 0.18021,0.67184 0.18021,0.93489 0,0.26305 0.0791,0.68376 0.17595,0.9349 0.40892,1.06126 0.91369,3.6237 1.407634,7.14588 0.0867,0.61772 0.22584,1.23375 0.30937,1.36891 0.42789,0.69232 1.0312,8.55978 0.72356,9.43525 -0.33122,0.94254 -0.47994,5.41226 -0.18613,5.59384 0.26056,0.16109 4.3468,0.37982 11.9818,0.6415 5.2516,0.18 6.02072,0.34085 6.95836,1.45516 0.36254,0.43087 0.49623,0.82251 0.49623,1.45378 0,1.10546 -0.62265,1.87638 -2.09873,2.59857 l -1.08655,0.5316 -7.20378,-0.12222 c -7.58707,-0.1287 -9.64271,-0.031 -9.89834,0.47084 -0.0835,0.16406 -0.256484,1.05855 -0.384304,1.98787 -0.12782,0.92935 -0.37726,2.11479 -0.55434,2.63432 -0.25627,0.75192 -0.27165,0.99492 -0.0753,1.19124 0.18487,0.18488 2.475434,0.27979 9.146334,0.37896 9.82806,0.14603 9.71931,0.13185 11.03287,1.44541 0.55206,0.55206 0.72457,0.88701 0.72457,1.40678 0,1.16454 -1.51487,2.53784 -3.28002,2.97352 -0.57907,0.14288 -4.27652,0.15006 -14.48494,0.0278 l -4.943064,-0.0592 -0.37018,0.81507 c -0.20358,0.44829 -0.37211,1.06685 -0.37451,1.37458 -0.002,0.30774 -0.19063,0.99247 -0.41826,1.52163 -0.22764,0.52916 -0.38419,1.17194 -0.34788,1.42837 0.0623,0.44027 0.18793,0.47909 2.25268,0.69617 1.20267,0.12642 2.768144,0.32647 3.478814,0.4445 0.71066,0.11802 2.96991,0.38552 5.02052,0.59441 3.10916,0.31675 3.88502,0.46129 4.67154,0.87033 0.89865,0.46739 2.01577,1.73376 2.02988,2.30111 0.014,0.56483 -1.26965,2.0254 -2.16252,2.46052 -0.83211,0.40549 -2.66396,0.73304 -3.39749,0.6075 z M -208.90414,270.24653 c 3.89198,-0.83577 6.70089,-3.41959 8.26652,-7.60409 0.54931,-1.46816 0.5917,-4.84051 0.0798,-6.34831 -1.29388,-3.81107 -3.90682,-6.4624 -7.52429,-7.63482 -1.23368,-0.39985 -4.80996,-0.3018 -6.05746,0.16599 -4.40369,1.65155 -7.39107,5.92022 -7.39107,10.56108 0,4.19768 2.51593,8.20927 6.24434,9.95646 2.37563,1.11325 4.20188,1.37183 6.38215,0.90362 z m -2.91743,-3.92513 c -2.14343,-0.31747 -4.12972,-1.76964 -5.08153,-3.71507 -0.75773,-1.54873 -0.887,-4.20296 -0.28269,-5.80414 0.82548,-2.1872 3.00216,-4.00959 5.205,-4.35782 1.25349,-0.19814 3.16556,0.0732 4.18661,0.59407 0.92318,0.47097 2.42794,1.94099 2.87828,2.81186 0.39377,0.76148 0.30839,0.85354 -2.11287,2.27834 -1.08271,0.63713 -1.97204,1.25717 -1.9763,1.37784 -0.004,0.12064 0.93154,0.79078 2.07954,1.4891 1.33578,0.81254 2.08728,1.39148 2.08728,1.60804 0,0.51524 -2.09602,2.66744 -3.04058,3.1221 -1.06718,0.51367 -2.76483,0.77015 -3.94274,0.59568 z m 72.29988,3.92862 c 4.32303,-0.82446 7.64393,-4.22206 8.61663,-8.81567 0.33139,-1.56494 0.34354,-1.92813 0.11504,-3.43941 -0.42713,-2.82423 -1.3192,-4.61937 -3.26822,-6.57671 -5.11793,-5.13979 -13.46805,-3.6461 -16.7625,2.99851 -1.13844,2.29614 -1.45453,5.86306 -0.72472,8.17858 0.87609,2.77973 3.04406,5.42685 5.39402,6.58619 2.60047,1.28293 4.17498,1.53668 6.62982,1.06851 z m -4.58658,-4.47251 c -4.71541,-2.23861 -5.41916,-8.88975 -1.27502,-12.05013 1.23785,-0.94397 2.34301,-1.29853 4.04765,-1.29853 1.84852,0 3.05702,0.42517 4.24537,1.49359 1.1442,1.02875 2.11659,2.375 1.93162,2.67431 -0.0732,0.11854 -1.06922,0.76617 -2.21327,1.43925 -1.23655,0.72751 -2.05683,1.33307 -2.02275,1.49325 0.0315,0.14813 0.95142,0.82922 2.0442,1.51338 1.09277,0.68415 2.01439,1.38689 2.04804,1.56162 0.034,0.17643 -0.49591,0.89164 -1.19171,1.60853 -1.54204,1.58874 -2.81199,2.13137 -4.98764,2.13112 -1.16424,-1.2e-4 -1.65797,-0.10663 -2.62649,-0.56639 z m -35.38442,36.81942 c -2.08257,-0.79562 -2.87795,-1.22958 -4.05058,-2.20993 -2.26335,-1.89224 -3.33249,-3.78515 -4.6317,-8.20038 -0.42177,-1.43343 -0.32296,-4.68278 0.17531,-5.76488 1.21715,-2.64326 4.66667,-4.01459 10.85175,-4.31405 2.2865,-0.11067 5.99065,0.32522 7.27106,0.85571 0.36869,0.15269 0.80657,0.27772 0.97307,0.27772 0.64607,0 2.95879,1.641 3.48503,2.47283 1.48568,2.34833 0.86732,7.77737 -1.29943,11.40873 -0.84592,1.41771 -3.18393,3.80402 -4.35724,4.44724 -1.72625,0.94634 -3.42667,1.35225 -5.61801,1.34105 -1.29556,-0.007 -2.28523,-0.11767 -2.79926,-0.31404 z"
         style="fill:#000000;stroke-width:1.75097"
         id="path1-0-2" /><path
         d="m -188.6716,335.52842 c -0.15794,-0.26513 -0.25587,-6.98968 -0.20005,-13.7429 l 0.0497,-6.01336 h 2.11046 c 2.08689,0 2.10929,0.005 2.00649,0.44727 -0.0573,0.24601 -0.2586,1.07347 -0.44758,1.8388 -0.27925,1.13085 -0.36067,2.63507 -0.43459,8.02963 l -0.091,6.63813 5.75137,-0.1448 5.75139,-0.14481 -0.33839,1.34428 c -0.24092,0.95701 -0.44993,1.38554 -0.72553,1.48748 -0.5878,0.21745 -13.31093,0.46381 -13.4323,0.26011 z m -18.96873,-3.46074 c -3.59135,-0.37816 -6.5988,-2.17082 -8.16208,-4.86517 -0.42535,-0.73308 -0.71217,-1.00999 -1.0929,-1.0551 l -0.5162,-0.0611 0.0877,1.65147 c 0.0482,0.90832 0.12108,1.98694 0.16186,2.39694 l 0.0742,0.74546 -1.91927,-0.004 c -1.0556,-0.002 -2.02394,-0.0697 -2.15187,-0.15093 -0.16777,-0.10681 -0.25601,-2.11363 -0.31666,-7.20305 -0.0462,-3.88031 -0.15328,-7.25637 -0.23788,-7.50238 l -0.15379,-0.44727 h 3.67365 c 4.19296,0 5.2384,0.14936 7.03104,1.00497 1.85258,0.88415 2.36236,1.7153 2.36236,3.85165 0,2.42756 -0.6979,3.4264 -3.33022,4.76624 -0.87493,0.44534 -0.90091,0.59115 -0.27069,1.51862 0.94448,1.38993 3.34723,2.17737 6.64382,2.17737 h 1.37644 l -0.16336,0.84486 c -0.0898,0.46466 -0.16739,1.22504 -0.17212,1.68971 l -0.009,0.84484 -0.74546,-0.027 c -0.41,-0.014 -1.38643,-0.0946 -2.16981,-0.17697 z m -6.65346,-9.38447 c 1.36626,-0.50817 1.81598,-0.9626 1.81598,-1.83502 0,-1.41414 -2.19339,-2.9742 -3.61029,-2.56783 -1.01884,0.29218 -1.34139,0.94016 -1.39072,2.79383 -0.0537,2.0186 0.13948,2.33485 1.30778,2.14052 0.44593,-0.0742 1.29069,-0.31335 1.87725,-0.5315 z m 115.423781,9.38556 c -2.810201,-0.3007 -4.626581,-1.06719 -6.459291,-2.72569 -0.67409,-0.61 -1.49542,-1.58719 -1.8252,-2.17151 -0.46458,-0.82322 -0.70718,-1.0624 -1.07756,-1.0624 -0.4454,0 -0.4773,0.0711 -0.46779,1.04365 0.005,0.574 0.0774,1.64746 0.15934,2.38548 l 0.14918,1.34182 -1.8988,-0.004 c -1.04435,-0.002 -2.00273,-0.0692 -2.12971,-0.14989 -0.16547,-0.10523 -0.25599,-2.14723 -0.31943,-7.20306 -0.0487,-3.88087 -0.15881,-7.26635 -0.24477,-7.52329 l -0.15618,-0.46716 4.35203,0.0884 c 4.16175,0.0846 4.40921,0.11171 5.65937,0.62224 1.9897,0.8125 3.165421,2.26893 3.165421,3.92116 0,2.15462 -1.030991,3.76916 -3.054501,4.78334 -0.67071,0.33615 -1.25492,0.64349 -1.29825,0.68298 -0.19014,0.17334 1.04695,1.71327 1.75002,2.17854 0.91192,0.60348 3.211981,1.06486 5.359231,1.07503 l 1.46437,0.007 -0.13465,1.34182 c -0.0741,0.73801 -0.18,1.49837 -0.23534,1.6897 -0.11049,0.38199 -0.40035,0.39723 -2.75749,0.14498 z m -7.790281,-9.05685 c 2.1967,-0.56923 2.90273,-1.10726 2.91364,-2.22034 0.005,-0.49181 -0.18082,-0.8332 -0.77745,-1.42982 -0.99126,-0.99126 -2.06301,-1.34515 -3.06866,-1.01326 -0.97586,0.32206 -1.16058,0.76082 -1.19086,2.8284 -0.0336,2.30011 0.0499,2.3723 2.12333,1.83502 z m -51.84637,8.35506 c -2.25867,-1.55425 -4.00419,-3.68903 -5.88164,-7.19321 -0.48244,-0.90047 -0.97574,-1.63847 -1.09619,-1.64001 -0.23931,-0.004 -0.47781,2.37101 -0.46907,4.66875 0.005,1.21704 0.26748,2.34253 0.85885,3.67761 0.11644,0.26266 -0.73795,0.29064 -7.17278,0.23487 -4.01768,-0.0348 -7.33169,-0.0902 -7.36448,-0.12291 -0.0327,-0.0327 -0.14253,-2.41958 -0.2439,-5.304 -0.10138,-2.88441 -0.23165,-6.29547 -0.28954,-7.58016 l -0.10523,-2.33576 h 5.09476 5.09479 l -0.13973,1.7394 c -0.0769,0.95668 -0.20381,1.80492 -0.28223,1.88497 -0.0785,0.08 -0.50786,-0.0352 -0.95427,-0.25601 -0.68041,-0.33664 -1.12937,-0.39232 -2.77663,-0.34435 l -1.96497,0.0573 -0.0581,1.54063 -0.0581,1.54061 h 2.65867 2.65867 l -0.0804,1.14303 c -0.0441,0.62867 -0.11487,1.25215 -0.15689,1.38553 -0.0538,0.17019 -0.83471,0.25907 -2.61969,0.29817 l -2.54309,0.0557 -0.0995,1.46101 c -0.0546,0.80353 -0.0439,1.55039 0.0238,1.65965 0.2125,0.34247 5.52914,0.11628 6.27474,-0.26698 0.76887,-0.3952 0.84386,-0.27792 0.88694,1.38684 0.0606,2.34042 0.32235,-1.69922 0.47772,-7.37143 l 0.1511,-5.5164 h 0.52948 c 0.29122,0 0.98142,0.1343 1.53378,0.29824 1.67214,0.49658 2.933,1.96141 4.63718,5.38734 0.78311,1.57428 1.49472,2.86234 1.58134,2.86234 0.17089,0 0.32158,-1.73734 0.52287,-6.0298 l 0.12905,-2.74979 1.96279,0.0662 c 1.07954,0.0364 1.9629,0.0779 1.96303,0.0921 1.4e-4,0.014 -0.21416,0.59577 -0.47621,1.29213 -0.76712,2.03853 -0.98972,4.61706 -0.85945,9.95577 0.087,3.56927 0.0578,4.72589 -0.11924,4.71763 -0.12905,-0.005 -0.68188,-0.31875 -1.22855,-0.69493 z m 30.61347,-0.0571 c -2.06884,-1.31672 -3.94274,-3.61104 -5.79835,-7.09922 -0.87659,-1.64782 -1.2385,-2.02468 -1.27896,-1.33187 -0.0105,0.19133 -0.0769,0.83989 -0.14603,1.44122 -0.0692,0.60134 -0.12607,1.89842 -0.12625,2.88243 -4.2e-4,1.52015 0.0788,1.95913 0.52713,2.92007 l 0.52762,1.13095 -2.12046,-0.11469 c -1.16623,-0.063 -2.12566,-0.12467 -2.13205,-0.13693 -0.007,-0.0122 0.0751,-3.35453 0.181,-7.42722 l 0.1926,-7.40489 h 0.62844 c 0.94269,0 2.31958,0.53191 3.15107,1.2173 1.01194,0.83412 2.18605,2.61759 3.32523,5.05106 0.52554,1.12258 1.04283,2.09503 1.14955,2.16099 0.11714,0.0723 0.23902,-0.53077 0.30749,-1.52077 0.12046,-1.74109 0.39603,-6.20889 0.41391,-6.70979 0.009,-0.24391 0.34461,-0.29535 1.8458,-0.28262 1.00933,0.009 1.88152,0.062 1.93817,0.11854 0.0567,0.0567 -0.0242,0.40747 -0.17956,0.77958 -0.15549,0.37214 -0.44491,1.39223 -0.64331,2.26691 -0.30849,1.35995 -0.3552,2.40379 -0.32256,7.20609 0.021,3.08868 -0.0261,5.61495 -0.10471,5.6139 -0.0786,-10e-4 -0.67968,-0.34349 -1.33568,-0.76101 z m 3.59455,-0.39945 c -0.75633,-0.18142 -1.40995,-0.43423 -1.45246,-0.56177 -0.0426,-0.12747 0.14568,-0.97707 0.41818,-1.88784 0.27251,-0.91078 1.08694,-3.98179 1.80982,-6.82447 0.72291,-2.84266 1.36513,-5.33855 1.4272,-5.54639 0.10751,-0.36032 0.30206,-0.37252 4.18425,-0.26245 2.23928,0.0636 4.10056,0.14463 4.13619,0.18021 0.0356,0.0355 0.0877,0.69044 0.11574,1.45518 l 0.0511,1.39041 -1.33753,0.059 c -1.61725,0.0713 -1.71478,0.22257 -1.15053,1.78372 0.91408,2.5291 2.84076,8.83246 2.73272,8.94048 -0.29236,0.29236 -2.84837,1.24354 -3.34164,1.24354 -0.55077,0 -0.55241,-0.004 -0.55241,-1.37497 0,-0.75906 -0.0909,-1.40526 -0.20303,-1.44262 -0.3217,-0.10717 -3.96694,0.16249 -4.10846,0.304 -0.0702,0.0702 -0.22635,0.73154 -0.34702,1.46968 -0.25608,1.56629 -0.2821,1.57802 -2.38215,1.07429 z m 6.44429,-5.61651 c 0,-0.18844 -1.03568,-3.93862 -1.30617,-4.72965 -0.15531,-0.45415 -0.27479,-0.17282 -0.88881,2.09206 -0.81602,3.01016 -0.85927,2.85641 0.80347,2.85641 0.88007,0 1.39151,-0.0804 1.39151,-0.21882 z m -114.38479,5.13884 c -0.0546,-0.35532 -0.14632,-2.16679 -0.20384,-4.02547 -0.0575,-1.85867 -0.16505,-5.01196 -0.23897,-7.00731 l -0.13441,-3.62789 h 5.02054 5.02054 l -0.0695,1.77279 c -0.0382,0.97502 -0.12789,1.83107 -0.19931,1.90236 -0.0714,0.0713 -0.49275,-0.0555 -0.93633,-0.28188 -0.64927,-0.33123 -1.17742,-0.41144 -2.70915,-0.41144 -1.34859,0 -1.92504,0.0723 -1.97953,0.24848 -0.0423,0.13658 -0.13143,0.85232 -0.19809,1.59032 l -0.1212,1.34182 h 2.71403 2.71404 l -0.12425,0.62121 c -0.0683,0.34167 -0.12425,0.96785 -0.12425,1.39153 v 0.77031 h -2.47313 c -1.36022,0 -2.51344,0.0671 -2.56271,0.149 -0.0493,0.082 -0.12164,0.82 -0.16083,1.64 l -0.0713,1.49091 2.88244,-0.005 c 2.35556,-0.005 3.00053,-0.0693 3.5285,-0.353 l 0.64607,-0.34707 v 1.89359 1.89361 h -5.06008 -5.06011 z m 32.41396,-3.28001 c -0.072,-2.15935 -0.18881,-5.60337 -0.25951,-7.65337 l -0.12853,-3.72729 h 5.0242 5.02421 l -0.0853,1.7838 c -0.0469,0.9811 -0.13868,1.83715 -0.20384,1.90236 -0.0651,0.0651 -0.48148,-0.0665 -0.92505,-0.29289 -0.64928,-0.33123 -1.17744,-0.41144 -2.70917,-0.41144 -1.34858,0 -1.92504,0.0723 -1.97953,0.24848 -0.0424,0.13658 -0.13149,0.85232 -0.19808,1.59032 l -0.12117,1.34182 h 2.71404 2.71404 l -0.12432,0.62121 c -0.0683,0.34167 -0.12432,0.96785 -0.12432,1.39153 v 0.77031 h -2.47313 c -1.36022,0 -2.51344,0.0671 -2.56272,0.149 -0.0492,0.082 -0.12169,0.82 -0.16091,1.64 l -0.0713,1.49091 h 2.89145 c 2.41907,0 2.97814,-0.0569 3.42211,-0.34786 0.29187,-0.19135 0.57854,-0.34789 0.63706,-0.34789 0.0585,0 0.10646,0.84983 0.10646,1.88851 v 1.88849 h -5.13795 -5.13794 z m 56.04504,3.18063 c 0.0678,-0.30068 0.20041,-0.85976 0.29488,-1.24244 0.26404,-1.0695 0.37409,-3.62597 0.37966,-8.81896 l 0.005,-4.74377 2.07529,0.0769 c 1.14142,0.0422 2.1265,0.128 2.1891,0.19061 0.0625,0.0627 -0.0594,0.5078 -0.27079,0.98937 -0.76426,1.73996 -0.91336,3.20792 -0.89154,8.77742 l 0.0208,5.31762 h -1.9628 -1.96282 z m -97.52205,0.17229 c -1.25463,-0.27441 -2.31368,-0.96529 -2.94824,-1.92332 -1.09348,-1.65084 -1.32572,-2.65872 -1.32572,-5.75322 0,-2.71217 0.0159,-2.81687 0.62907,-4.11088 0.83275,-1.75774 2.01901,-3.02769 3.20599,-3.43214 1.3547,-0.46159 2.80267,-0.58316 3.78663,-0.31793 1.51754,0.40908 3.24065,2.38922 3.68505,4.23476 0.30755,1.27719 -1.41249,2.93042 -3.04884,2.93042 -0.50937,0 -1.09977,-0.13132 -1.312,-0.29186 -0.36317,-0.27468 -0.3645,-0.29222 -0.0227,-0.29818 0.55258,-0.0105 1.52532,-1.08777 1.52532,-1.69061 0,-1.37028 -1.21343,-2.28705 -2.52808,-1.91001 -1.03097,0.29567 -1.81932,0.85176 -2.12408,1.49828 -0.7435,1.57723 -0.85875,4.69077 -0.22812,6.16265 0.33919,0.79166 1.21422,1.59893 2.16254,1.99507 0.71219,0.29749 0.80154,0.29427 1.39141,-0.0503 0.34669,-0.20248 0.82783,-0.72019 1.06918,-1.15048 0.39518,-0.70448 0.41002,-0.82629 0.1492,-1.22434 -0.1593,-0.24312 -0.28963,-0.48991 -0.28963,-0.54842 0,-0.0585 0.98401,-0.10646 2.18668,-0.10646 1.20267,0 2.18383,0.0671 2.18036,0.149 -0.004,0.082 -0.13767,0.32273 -0.29819,0.53496 -0.16053,0.21224 -0.29186,0.68544 -0.29186,1.05156 0,0.81697 -0.56658,1.95831 -1.33371,2.6867 -1.20387,1.14303 -4.43348,1.95536 -6.22026,1.56453 z m 89.45496,6.5e-4 c -2.91863,-0.63567 -4.52297,-3.73262 -4.33875,-8.37527 0.0667,-1.68182 0.15549,-2.06038 0.80371,-3.42519 1.01131,-2.12953 2.12101,-3.17745 3.81545,-3.60308 1.79207,-0.45016 2.65462,-0.40808 3.85046,0.18783 1.15765,0.57687 1.82933,1.28833 2.53957,2.68993 0.84726,1.672 0.52443,2.7341 -1.13934,3.74847 -0.73971,0.451 -2.12955,0.53659 -2.80896,0.173 -0.41734,-0.22337 -0.40832,-0.23946 0.26058,-0.46469 1.60599,-0.54074 1.70385,-2.5855 0.15987,-3.34021 -0.62282,-0.30444 -0.86059,-0.32454 -1.57204,-0.13289 -1.83927,0.49528 -2.66841,2.28113 -2.52986,5.44898 0.0925,2.11335 0.43568,2.8822 1.6646,3.72857 1.24182,0.85524 1.71507,0.88832 2.52576,0.17653 0.38265,-0.33598 0.80802,-0.88193 0.94524,-1.21321 0.21244,-0.51288 0.20131,-0.6556 -0.0749,-0.96081 -0.17843,-0.19716 -0.3244,-0.41852 -0.3244,-0.4919 0,-0.0734 0.99358,-0.13342 2.20795,-0.13342 2.0261,0 2.19588,0.0287 2.0614,0.34788 -0.0805,0.19133 -0.2195,0.77612 -0.30864,1.29953 -0.21502,1.26226 -0.92458,2.50765 -1.74278,3.05875 -1.54936,1.04359 -4.34398,1.6409 -5.99492,1.28132 z"
         style="fill:#000000;stroke-width:1.75097"
         id="path1-8-9" /></g><path
       d="m 56.359887,232.36446 c -1.835943,-0.58063 -3.140854,-1.71336 -3.91627,-3.39951 -0.396307,-0.8618 -0.457084,-1.31115 -0.457084,-3.37941 0,-2.21151 0.04068,-2.46833 0.557832,-3.52145 1.220057,-2.48452 3.542884,-3.65142 6.970097,-3.50152 1.503629,0.0658 2.04333,0.1811 2.97096,0.63495 1.325028,0.64827 2.117955,1.58661 2.264599,2.6799 0.129397,0.9644 -0.415856,1.62082 -1.346198,1.62082 -0.828472,0 -1.265339,-0.26701 -1.768288,-1.0808 -0.904831,-1.46404 -2.763994,-1.93085 -4.388795,-1.10194 -2.404886,1.22689 -2.921903,5.70858 -0.913298,7.91682 1.034675,1.1375 2.917447,1.41074 4.797376,0.69622 l 0.993939,-0.37779 0.06006,-1.03836 0.06006,-1.03836 h -1.173448 c -0.645408,0 -1.455179,-0.0982 -1.79949,-0.21824 -0.535622,-0.18673 -0.626024,-0.31525 -0.626024,-0.88997 0,-1.13027 0.549279,-1.33226 3.394414,-1.24826 3.130647,0.0925 3.165614,0.12659 3.165614,3.08732 0,1.14307 -0.09263,2.25147 -0.205932,2.46309 -0.24855,0.46445 -1.685834,1.21686 -3.159871,1.65422 -1.294037,0.38393 -4.326018,0.40732 -5.480303,0.0422 z m 13.467105,-0.10471 c -1.649078,-0.76759 -2.495288,-2.17567 -2.852976,-4.74732 -0.287054,-2.06385 0.04272,-4.51675 0.824007,-6.12856 0.985583,-2.03335 2.369865,-2.76059 5.001679,-2.6277 1.807527,0.0912 2.732652,0.62321 3.375626,1.94094 0.386527,0.79215 0.399974,0.92593 0.139903,1.39151 -0.225385,0.40337 -0.465986,0.5282 -1.109083,0.57539 -0.701648,0.0515 -0.874434,-0.0175 -1.186405,-0.47145 -0.691703,-1.00726 -1.242909,-1.47731 -1.732375,-1.47731 -0.785538,0 -1.670006,0.89765 -2.008906,2.03888 -0.454797,1.53145 -0.430879,1.57421 0.620474,1.10914 1.350786,-0.59752 3.149996,-0.45443 4.274487,0.33993 1.258965,0.88937 1.661794,1.83032 1.661794,3.88174 0,1.52765 -0.05691,1.79009 -0.548352,2.53287 -0.301605,0.45574 -0.921045,1.07539 -1.376525,1.377 -0.717075,0.47483 -1.056781,0.55576 -2.532867,0.60347 -1.363463,0.0441 -1.873976,-0.0236 -2.550376,-0.33853 z m 3.31154,-2.11656 c 1.949864,-1.64069 0.424768,-5.57574 -1.718455,-4.43393 -1.583105,0.84341 -1.653494,3.33049 -0.128171,4.53029 0.693367,0.54541 1.1098,0.52368 1.846661,-0.0963 z m 7.996088,2.23195 c -0.994061,-1.19776 0.575684,-6.25521 3.032173,-9.76926 l 0.884625,-1.26548 -2.882167,-0.0641 c -2.581246,-0.0574 -2.911567,-0.10436 -3.163899,-0.44996 -0.371031,-0.50819 -0.357688,-1.19947 0.03064,-1.58782 0.264554,-0.26454 0.964697,-0.31237 4.572152,-0.31237 4.065001,0 4.278882,0.0191 4.678051,0.41829 0.600898,0.6009 0.392235,1.29762 -0.904639,3.02068 -1.453131,1.93064 -2.586604,4.40011 -2.983707,6.50047 -0.40682,2.1518 -0.692491,3.21492 -0.948168,3.5285 -0.273361,0.33527 -2.033052,0.32088 -2.315081,-0.0189 z m 11.080965,-0.0436 c -3.015784,-0.92861 -3.729673,-5.50274 -1.089402,-6.98032 0.324105,-0.18138 0.303619,-0.24834 -0.243332,-0.79529 -0.799336,-0.79935 -1.105423,-1.96193 -0.817528,-3.10522 0.451855,-1.79447 1.942964,-2.71201 4.418697,-2.719 2.959579,-0.009 4.517691,1.2388 4.514751,3.61367 -0.001,1.08431 -0.35502,1.8658 -1.107972,2.44828 -0.37604,0.29089 -0.37597,0.29861 0.005,0.52543 1.017082,0.60559 1.698442,1.86881 1.698442,3.14891 0,1.75398 -1.362632,3.52285 -3.038971,3.94496 -1.213773,0.30563 -3.203891,0.26828 -4.339676,-0.0814 z m 3.173494,-1.95808 c 1.5916,-0.82304 1.42392,-3.29972 -0.27133,-4.00804 -1.252785,-0.52345 -2.545176,0.47707 -2.545176,1.97037 0,1.7336 1.419126,2.76028 2.816506,2.03767 z m 0.313319,-6.89044 c 0.674403,-0.80148 0.654215,-1.46605 -0.06636,-2.18671 -0.760517,-0.76052 -1.6377,-0.78143 -2.310861,-0.055 -1.010118,1.08992 -0.283903,2.85341 1.175059,2.85341 0.52375,0 0.810209,-0.14568 1.202234,-0.61163 z m 7.844152,8.84852 c -3.0158,-0.92861 -3.729669,-5.50274 -1.08942,-6.98032 0.32412,-0.18138 0.30364,-0.24834 -0.24331,-0.79529 -0.79934,-0.79935 -1.10543,-1.96193 -0.81753,-3.10522 0.45184,-1.79447 1.94295,-2.71201 4.41871,-2.719 2.95957,-0.009 4.51769,1.2388 4.51473,3.61367 -0.001,1.08431 -0.35501,1.8658 -1.10798,2.44828 -0.37602,0.29089 -0.37595,0.29861 0.005,0.52543 1.0171,0.60559 1.69846,1.86881 1.69846,3.14891 0,1.75398 -1.36264,3.52285 -3.03897,3.94496 -1.21377,0.30563 -3.20391,0.26828 -4.33969,-0.0814 z m 3.17351,-1.95808 c 1.59159,-0.82304 1.42392,-3.29972 -0.27135,-4.00804 -1.25279,-0.52345 -2.54517,0.47707 -2.54517,1.97037 0,1.7336 1.41912,2.76028 2.81652,2.03767 z m 0.3133,-6.89044 c 0.67442,-0.80148 0.65423,-1.46605 -0.0664,-2.18671 -0.76051,-0.76052 -1.63768,-0.78143 -2.31084,-0.055 -1.01013,1.08992 -0.2839,2.85341 1.17506,2.85341 0.52375,0 0.81021,-0.14568 1.20222,-0.61163 z m 9.97549,8.72787 c -0.26547,-0.37901 -0.31656,-1.13452 -0.31656,-4.68167 0,-2.32636 -0.0408,-4.22973 -0.0905,-4.22973 -0.0499,0 -0.42051,0.22391 -0.82378,0.49757 -1.59443,1.08201 -2.90748,1.07958 -3.17992,-0.005 -0.1915,-0.76302 0.0105,-1.02814 1.2725,-1.66488 1.45995,-0.73696 2.26634,-1.40818 3.03629,-2.52728 0.5352,-0.77787 0.68306,-0.87167 1.37406,-0.87167 1.38215,0 1.39365,0.0567 1.39032,6.85274 -0.004,6.9194 -0.005,6.93075 -1.42466,7.02292 -0.77105,0.0501 -0.9727,-0.014 -1.23769,-0.39211 z m 11.33096,0 c -0.26548,-0.37901 -0.31655,-1.13452 -0.31655,-4.68167 0,-2.32636 -0.0408,-4.22973 -0.0905,-4.22973 -0.0497,0 -0.42051,0.22391 -0.82378,0.49757 -1.59443,1.08201 -2.90748,1.07958 -3.17992,-0.005 -0.1915,-0.76302 0.0105,-1.02814 1.2725,-1.66488 1.45993,-0.73696 2.26632,-1.40818 3.03629,-2.52728 0.53519,-0.77787 0.68305,-0.87167 1.37406,-0.87167 1.38214,0 1.39365,0.0567 1.3903,6.85274 -0.004,6.9194 -0.005,6.93075 -1.42464,7.02292 -0.77107,0.0501 -0.9727,-0.014 -1.23769,-0.39211 z m 20.53061,0.12065 c -3.0158,-0.92861 -3.72969,-5.50274 -1.08942,-6.98032 0.3241,-0.18138 0.30362,-0.24834 -0.24333,-0.79529 -0.79934,-0.79935 -1.10541,-1.96193 -0.81753,-3.10522 0.45185,-1.79447 1.94296,-2.71201 4.4187,-2.719 2.95959,-0.009 4.51771,1.2388 4.51475,3.61367 -0.001,1.08431 -0.35501,1.8658 -1.10798,2.44828 -0.37602,0.29089 -0.37595,0.29861 0.005,0.52543 1.01709,0.60559 1.69845,1.86881 1.69845,3.14891 0,1.75398 -1.36263,3.52285 -3.03897,3.94496 -1.21377,0.30563 -3.20389,0.26828 -4.33966,-0.0814 z m 3.17349,-1.95808 c 1.59158,-0.82304 1.42393,-3.29972 -0.27135,-4.00804 -1.25278,-0.52345 -2.54517,0.47707 -2.54517,1.97037 0,1.7336 1.41913,2.76028 2.81652,2.03767 z m 0.3133,-6.89044 c 0.67442,-0.80148 0.65424,-1.46605 -0.0664,-2.18671 -0.76051,-0.76052 -1.6377,-0.78143 -2.31086,-0.055 -1.01012,1.08992 -0.2839,2.85341 1.17508,2.85341 0.52375,0 0.81019,-0.14568 1.20221,-0.61163 z m -16.88452,8.47672 c -0.58507,-0.58509 -0.5964,-0.76178 -0.11556,-1.80203 0.33286,-0.72002 1.18071,-1.58826 5.02479,-5.14556 0.83937,-0.77673 1.1624,-1.2309 1.26518,-1.77874 0.17818,-0.9498 -0.15636,-1.74828 -0.92209,-2.20057 -1.04481,-0.6172 -2.29332,0.0502 -2.76449,1.47794 -0.34529,1.04622 -0.95699,1.47316 -1.8663,1.30256 -0.74555,-0.1399 -0.91462,-0.40438 -0.91462,-1.43105 0,-1.48862 1.20156,-3.00582 2.74727,-3.46891 1.10936,-0.33237 3.93758,-0.15917 4.87414,0.29836 1.1285,0.5514 1.78765,1.67246 1.88534,3.20647 0.10944,1.71915 -0.39857,2.73072 -2.11738,4.21593 -0.72439,0.62596 -1.85589,1.65078 -2.51443,2.27738 l -1.19735,1.13927 2.5252,0.004 c 1.43447,0.002 2.73663,0.10016 3.01468,0.22677 0.60267,0.27461 0.78419,0.88505 0.46273,1.55616 l -0.2428,0.50691 -4.32627,0.0536 -4.32626,0.0536 z"
       style="fill:#000000;stroke-width:1.75097"
       id="path1-1" /><path
       d="m 10.954063,206.14717 c -0.136138,-0.13622 -0.247506,-0.39703 -0.247506,-0.57978 0,-0.40613 2.693871,-7.26374 3.098496,-7.88765 0.344246,-0.53079 1.66224,-0.62786 2.133015,-0.15706 0.159601,0.15951 0.989694,2.0434 1.84464,4.1862 1.704446,4.27195 1.727328,4.51747 0.431394,4.6288 -0.680511,0.0585 -0.715881,0.0266 -1.159482,-1.04363 l -0.457559,-1.10395 h -1.663269 -1.663268 l -0.292859,0.74546 c -0.161071,0.41 -0.366803,0.87963 -0.45718,1.04364 -0.209973,0.38103 -1.242636,0.49178 -1.566422,0.16792 z m 5.068731,-3.5971 c -0.05148,-0.13675 -0.296674,-0.80758 -0.544878,-1.49092 -0.248202,-0.68333 -0.50668,-1.24242 -0.574395,-1.24242 -0.13092,0 -1.016344,2.41368 -1.016344,2.7706 0,0.12397 0.460297,0.21124 1.114607,0.21124 0.809078,0 1.088951,-0.0681 1.02101,-0.2485 z m 5.641298,3.48678 c -0.876468,-0.43178 -1.439746,-1.35424 -1.370446,-2.24435 0.0505,-0.64871 0.10005,-0.69576 0.73284,-0.69576 0.570701,0 0.739148,0.11066 1.058781,0.69576 0.51547,0.94353 0.887225,1.19273 1.779344,1.19273 1.256108,0 1.99712,-1.1171 1.241944,-1.87228 -0.170702,-0.17072 -0.819255,-0.45056 -1.44122,-0.62189 -2.58426,-0.71191 -3.284389,-1.30206 -3.284389,-2.76846 0,-1.0869 0.324784,-1.61595 1.296255,-2.11157 0.67363,-0.34366 1.093776,-0.4054 2.3654,-0.34765 1.704146,0.0774 2.442385,0.44208 2.936584,1.45071 0.634135,1.29423 -0.934626,2.17788 -1.692858,0.95355 -0.507797,-0.81996 -0.864815,-1.04365 -1.665684,-1.04365 -0.6995,0 -1.384336,0.45963 -1.384336,0.9291 0,0.4252 0.791759,0.8844 2.195839,1.27348 2.46111,0.682 3.088752,1.27495 3.053294,2.88448 -0.03863,1.75305 -1.311833,2.66864 -3.700602,2.66118 -0.942096,-0.004 -1.684126,-0.1203 -2.120746,-0.33538 z m 8.969102,-0.0795 c -1.855846,-0.91861 -2.672989,-3.39888 -1.936669,-5.87834 0.598749,-2.01621 1.807408,-2.83775 4.174982,-2.83775 2.874255,0 4.47476,1.59062 4.471641,4.444 -0.0023,2.11698 -0.80688,3.65051 -2.261886,4.31126 -1.171348,0.53193 -3.332768,0.5129 -4.448068,-0.0392 z m 3.476607,-1.48435 c 0.697555,-0.45114 1.126086,-1.46036 1.133676,-2.66993 0.0086,-1.37633 -0.517348,-2.34776 -1.545002,-2.8534 -0.675447,-0.33235 -0.826827,-0.34177 -1.482223,-0.0923 -1.093344,0.41612 -1.630884,1.34834 -1.630507,2.82765 3.87e-4,1.51618 0.455186,2.48284 1.391214,2.95702 0.736767,0.37322 1.372308,0.32286 2.132842,-0.16897 z m 6.396646,1.44124 c -2.267234,-1.19707 -2.789626,-5.44762 -0.916329,-7.45589 1.588666,-1.70315 5.21946,-1.63383 6.470815,0.12362 0.553717,0.77762 0.564417,1.74405 0.02252,2.03406 -0.578505,0.30961 -1.007442,0.0968 -1.634711,-0.81129 -0.679225,-0.98322 -1.351822,-1.27301 -2.259451,-0.97347 -0.984303,0.32484 -1.536533,1.23168 -1.628373,2.67399 -0.132181,2.07592 0.762653,3.38256 2.286918,3.33935 0.79852,-0.0226 1.34664,-0.46049 1.876797,-1.49923 0.420023,-0.82298 1.0858,-0.9976 1.650491,-0.43291 0.648404,0.6484 -0.291619,2.51113 -1.557313,3.08596 -1.204753,0.54714 -3.189111,0.50843 -4.311368,-0.084 z m 7.766274,-0.0473 c -0.106634,-0.28046 -0.193867,-2.10845 -0.193867,-4.06224 0,-4.16318 0.09672,-4.57213 1.081424,-4.57213 0.482376,0 0.756372,0.11714 0.89947,0.38451 0.121289,0.22661 0.205782,1.94619 0.205782,4.18762 0,2.24144 -0.0845,3.96103 -0.205782,4.18764 -0.143107,0.26737 -0.417094,0.38451 -0.89947,0.38451 -0.561717,0 -0.73057,-0.097 -0.887557,-0.50991 z m 3.433049,0.28033 c -0.13612,-0.13623 -0.247506,-0.39704 -0.247506,-0.57978 0,-0.40614 2.69387,-7.26375 3.098496,-7.88765 0.344246,-0.53079 1.66224,-0.62787 2.133015,-0.15707 0.159601,0.15952 0.989692,2.0434 1.844641,4.18621 1.704445,4.27194 1.727327,4.51747 0.431393,4.62879 -0.680511,0.0585 -0.715881,0.0266 -1.159482,-1.04363 l -0.45756,-1.10395 h -1.663268 -1.663268 l -0.29286,0.74546 c -0.161072,0.41 -0.366803,0.87963 -0.457179,1.04365 -0.209973,0.38102 -1.242637,0.49177 -1.566422,0.16791 z m 5.068729,-3.59711 c -0.05148,-0.13675 -0.296672,-0.80758 -0.544876,-1.49092 -0.248203,-0.68333 -0.50668,-1.24241 -0.574395,-1.24241 -0.130938,0 -1.016344,2.41367 -1.016344,2.77059 0,0.12397 0.460295,0.21124 1.114607,0.21124 0.809078,0 1.088949,-0.0681 1.021008,-0.2485 z m 5.598711,3.36411 c -2.267228,-1.19707 -2.78962,-5.44762 -0.916318,-7.4559 1.588656,-1.70315 5.219451,-1.63383 6.470816,0.12362 0.55371,0.77762 0.564408,1.74405 0.02259,2.03407 -0.578503,0.3096 -1.007439,0.0968 -1.634723,-0.8113 -0.679219,-0.98322 -1.351819,-1.27301 -2.259452,-0.97347 -0.984291,0.32484 -1.53653,1.23169 -1.628368,2.674 -0.132198,2.07591 0.762653,3.38256 2.286925,3.33934 0.798513,-0.0226 1.346637,-0.46049 1.876796,-1.49923 0.420021,-0.82298 1.085793,-0.9976 1.650481,-0.43291 0.648402,0.6484 -0.291607,2.51114 -1.557312,3.08596 -1.204756,0.54715 -3.189096,0.50843 -4.311363,-0.084 z m 7.766289,-0.0473 c -0.106634,-0.28045 -0.193885,-2.10845 -0.193885,-4.06224 0,-4.16317 0.09665,-4.57213 1.081435,-4.57213 0.482375,0 0.756363,0.11714 0.89947,0.38451 0.121342,0.22661 0.205774,1.94619 0.205774,4.18762 0,2.24144 -0.08457,3.96103 -0.205774,4.18764 -0.143054,0.26738 -0.417095,0.38452 -0.89947,0.38452 -0.561712,0 -0.730575,-0.097 -0.88755,-0.50992 z m 5.618756,0.0904 c -1.855853,-0.91861 -2.672996,-3.39888 -1.936678,-5.87834 0.598762,-2.01621 1.807422,-2.83775 4.174997,-2.83775 2.874253,0 4.474745,1.59062 4.471628,4.444 -0.0018,2.11698 -0.806882,3.65051 -2.261886,4.31126 -1.171347,0.53193 -3.332762,0.51289 -4.448061,-0.0392 z m 3.476605,-1.48435 c 0.697552,-0.45114 1.126084,-1.46036 1.133684,-2.66993 0.0088,-1.37634 -0.51736,-2.34776 -1.545004,-2.8534 -0.675455,-0.33235 -0.826826,-0.34177 -1.482232,-0.0923 -1.093341,0.41612 -1.630889,1.34834 -1.630504,2.82764 3.85e-4,1.51619 0.455183,2.48284 1.391216,2.95702 0.736756,0.37322 1.372306,0.32287 2.13284,-0.16896 z m 4.831751,1.51932 c -0.121692,-0.22733 -0.205774,-1.9686 -0.205774,-4.25977 0,-4.32351 0.05113,-4.50001 1.304263,-4.50001 0.653182,0 0.75269,0.10961 2.570057,2.83167 l 1.890541,2.83169 v -2.44717 c 0,-1.34594 0.09263,-2.62021 0.205791,-2.83167 0.260965,-0.48763 1.481461,-0.53909 1.661444,-0.07 0.239953,0.62529 0.134124,8.33931 -0.117841,8.59129 -0.253295,0.25331 -1.114738,0.31703 -1.627229,0.12029 -0.169319,-0.065 -1.093621,-1.33699 -2.053836,-2.82661 l -1.745858,-2.70843 -0.05586,2.56524 c -0.03222,1.47565 -0.148132,2.67627 -0.272836,2.82663 -0.333438,0.40177 -1.313421,0.32405 -1.552761,-0.1231 z m 14.287377,-0.0781 c -2.267244,-1.19707 -2.789628,-5.44762 -0.916335,-7.45589 1.588673,-1.70315 5.219467,-1.63383 6.470807,0.12362 0.55371,0.77762 0.56443,1.74405 0.0226,2.03406 -0.5785,0.30961 -1.00744,0.0968 -1.6347,-0.81129 -0.67922,-0.98322 -1.35182,-1.27301 -2.25945,-0.97347 -0.984309,0.32484 -1.53653,1.23168 -1.628369,2.67399 -0.132198,2.07592 0.762653,3.38256 2.286909,3.33935 0.79853,-0.0226 1.34665,-0.46049 1.87679,-1.49923 0.42002,-0.82298 1.08581,-0.9976 1.6505,-0.43291 0.6484,0.6484 -0.29163,2.51113 -1.55732,3.08596 -1.20475,0.54714 -3.189102,0.50843 -4.311352,-0.084 z m 8.014202,0.15304 c -0.43137,-0.30213 -0.4418,-0.40288 -0.4418,-4.26269 0,-4.8997 -0.25335,-4.57213 3.5361,-4.57213 1.45887,0 2.82551,0.0926 3.03699,0.20577 0.46357,0.2481 0.51051,1.09487 0.07,1.26387 -0.173,0.0664 -1.24641,0.12064 -2.38547,0.12064 h -2.07103 v 0.99396 0.99394 h 1.97369 c 1.52921,0 2.04405,0.0704 2.28607,0.31237 0.17177,0.17177 0.31239,0.38906 0.31239,0.48278 0,0.0937 -0.1406,0.31097 -0.31239,0.48277 -0.24202,0.24204 -0.75686,0.31238 -2.28607,0.31238 h -1.97369 v 1.19274 1.19273 h 2.24632 c 2.31207,0 2.7234,0.12502 2.7234,0.82793 0,0.6118 -0.69541,0.76239 -3.5209,0.76239 -2.16893,0 -2.84547,-0.0655 -3.19368,-0.30947 z m 8.15496,0.08 c -0.30156,-0.30156 -0.35002,-8.04722 -0.0532,-8.51725 0.14147,-0.22414 0.67899,-0.315 2.16463,-0.36592 2.50724,-0.086 4.05448,0.21626 4.58942,0.89632 0.9631,1.22439 0.6526,3.0247 -0.63707,3.69397 l -0.74357,0.3859 0.68368,0.79872 c 1.63208,1.90672 1.80032,3.33772 0.39241,3.33772 -0.64204,0 -0.7558,-0.0972 -1.43422,-1.22436 -1.0788,-1.79253 -1.82178,-2.56019 -2.52596,-2.60991 l -0.59637,-0.042 -0.0994,1.88849 -0.0995,1.8885 -0.69662,0.0588 c -0.38313,0.0324 -0.80804,-0.0527 -0.94425,-0.18884 z m 4.80729,-5.45023 c 0.17177,-0.17177 0.31237,-0.52323 0.31237,-0.78095 0,-0.82558 -0.49029,-1.09334 -2.00208,-1.09334 h -1.37733 v 1.09334 1.09334 h 1.37733 c 0.98706,0 1.46583,-0.0884 1.68971,-0.31239 z m 7.51301,5.37022 c -0.43137,-0.30213 -0.44183,-0.40288 -0.44183,-4.26268 0,-4.89971 -0.25333,-4.57213 3.53613,-4.57213 1.45885,0 2.8255,0.0926 3.03698,0.20577 0.46357,0.24809 0.51052,1.09486 0.07,1.26387 -0.17299,0.0664 -1.24641,0.12064 -2.38547,0.12064 h -2.07103 v 0.99396 0.99393 h 1.9737 c 1.52921,0 2.04403,0.0704 2.28606,0.31238 0.17177,0.17177 0.31239,0.38906 0.31239,0.48277 0,0.0937 -0.1406,0.31098 -0.31239,0.48278 -0.24203,0.24204 -0.75685,0.31238 -2.28606,0.31238 h -1.9737 v 1.19274 1.19272 h 2.24632 c 2.31207,0 2.72341,0.12502 2.72341,0.82793 0,0.61181 -0.69543,0.76239 -3.5209,0.76239 -2.16893,0 -2.84547,-0.0655 -3.19369,-0.30946 z m 8.50367,0.1646 c -0.16406,-0.0625 -0.3639,-0.21192 -0.44422,-0.3322 -0.0804,-0.12029 -0.14743,-2.01918 -0.14901,-4.2198 -0.004,-4.4259 0.0247,-4.52663 1.2264,-4.41127 l 0.65905,0.0632 0.0995,3.67759 0.0994,3.6776 2.18668,0.0995 c 2.13575,0.0972 2.18828,0.11066 2.25525,0.58522 0.11942,0.84597 -0.39029,1.00667 -3.13809,0.98939 -1.37311,-0.009 -2.63074,-0.0667 -2.79476,-0.12922 z m 10.77884,-0.1646 c -0.43137,-0.30213 -0.44181,-0.40288 -0.44181,-4.26268 0,-4.89971 -0.25334,-4.57213 3.53611,-4.57213 1.45885,0 2.8255,0.0926 3.03698,0.20577 0.46357,0.24809 0.51052,1.09486 0.07,1.26387 -0.17299,0.0664 -1.24641,0.12064 -2.38547,0.12064 h -2.07103 v 0.99396 0.99393 h 1.9737 c 1.52921,0 2.04403,0.0704 2.28606,0.31238 0.17177,0.17177 0.3124,0.38906 0.3124,0.48277 0,0.0937 -0.14061,0.31098 -0.3124,0.48278 -0.24203,0.24204 -0.75685,0.31238 -2.28606,0.31238 h -1.9737 v 1.19274 1.19272 h 2.24632 c 2.31207,0 2.72341,0.12502 2.72341,0.82793 0,0.61181 -0.69541,0.76239 -3.5209,0.76239 -2.16893,0 -2.84547,-0.0655 -3.19369,-0.30946 z m 8.1131,-0.0751 c -0.12169,-0.22733 -0.20579,-1.9686 -0.20579,-4.25976 0,-4.32352 0.0511,-4.50001 1.30426,-4.50001 0.6532,0 0.75271,0.10961 2.57006,2.83166 l 1.89056,2.83169 v -2.44717 c 0,-1.34594 0.0926,-2.62021 0.20579,-2.83167 0.26097,-0.48763 1.48146,-0.53909 1.66145,-0.07 0.23993,0.62529 0.13412,8.33931 -0.11785,8.59129 -0.25331,0.25332 -1.11473,0.31703 -1.62722,0.1203 -0.1695,-0.065 -1.09363,-1.33699 -2.05386,-2.82661 l -1.74586,-2.70844 -0.0558,2.56524 c -0.0322,1.47565 -0.14796,2.67627 -0.27282,2.82663 -0.33346,0.40178 -1.31342,0.32405 -1.55276,-0.12309 z m 11.10674,-0.0781 c -2.26722,-1.19707 -2.78961,-5.44762 -0.91632,-7.4559 1.58866,-1.70315 5.21947,-1.63383 6.47083,0.12362 0.55371,0.77762 0.56441,1.74405 0.0226,2.03407 -0.5785,0.3096 -1.00744,0.0968 -1.63471,-0.8113 -0.67923,-0.98322 -1.35182,-1.27301 -2.25946,-0.97347 -0.98431,0.32484 -1.53653,1.23169 -1.62837,2.674 -0.1322,2.07591 0.76264,3.38256 2.28692,3.33934 0.79853,-0.0226 1.34664,-0.46049 1.8768,-1.49923 0.42002,-0.82298 1.08579,-0.9976 1.6505,-0.43291 0.6484,0.6484 -0.29163,2.51114 -1.55732,3.08596 -1.20475,0.54714 -3.18912,0.50843 -4.31139,-0.084 z m 7.5675,-0.0473 c -0.10663,-0.28045 -0.19387,-2.10845 -0.19387,-4.06224 0,-4.16317 0.0968,-4.57213 1.08144,-4.57213 0.48237,0 0.75636,0.11714 0.89947,0.38451 0.12134,0.22661 0.20577,1.94619 0.20577,4.18762 0,2.24144 -0.0846,3.96103 -0.20577,4.18764 -0.14305,0.26738 -0.4171,0.38452 -0.89947,0.38452 -0.56171,0 -0.73058,-0.097 -0.88757,-0.50992 z m 3.98769,0.12537 c -0.12169,-0.22733 -0.20577,-1.9686 -0.20577,-4.25976 0,-4.32352 0.0511,-4.50001 1.30426,-4.50001 0.65319,0 0.75269,0.10961 2.57006,2.83166 l 1.89056,2.83169 v -2.44717 c 0,-1.34594 0.0926,-2.62021 0.20577,-2.83167 0.26097,-0.48763 1.48146,-0.53909 1.66145,-0.07 0.23995,0.62529 0.13412,8.33931 -0.11784,8.59129 -0.2533,0.25332 -1.11474,0.31703 -1.62723,0.1203 -0.16932,-0.065 -1.09362,-1.33699 -2.05384,-2.82661 l -1.74586,-2.70844 -0.0558,2.56524 c -0.0322,1.47565 -0.14814,2.67627 -0.27284,2.82663 -0.33344,0.40178 -1.31342,0.32405 -1.55276,-0.12309 z m 8.98723,0.15496 c -0.13605,-0.13623 -0.2475,-0.39703 -0.2475,-0.57978 0,-0.40614 2.69387,-7.26375 3.09848,-7.88765 0.34426,-0.53079 1.66225,-0.62787 2.13302,-0.15706 0.15969,0.15951 0.9897,2.0434 1.84464,4.1862 1.70445,4.27195 1.72734,4.51747 0.43139,4.62879 -0.6805,0.0585 -0.71587,0.0266 -1.15947,-1.04363 l -0.45757,-1.10395 h -1.66326 -1.66327 l -0.29286,0.74546 c -0.16109,0.41001 -0.3668,0.87964 -0.45718,1.04365 -0.20998,0.38103 -1.24263,0.49178 -1.56642,0.16792 z m 5.06873,-3.59711 c -0.0515,-0.13675 -0.29667,-0.80758 -0.54487,-1.49091 -0.24822,-0.68334 -0.5067,-1.24242 -0.57441,-1.24242 -0.13097,0 -1.01633,2.41368 -1.01633,2.77059 0,0.12397 0.4603,0.21124 1.1146,0.21124 0.80907,0 1.08894,-0.0681 1.02101,-0.2485 z m 4.47325,3.59723 c -0.30153,-0.30155 -0.35002,-8.04721 -0.0532,-8.51724 0.14148,-0.22415 0.679,-0.315 2.16464,-0.36592 2.50723,-0.086 4.0545,0.21626 4.58942,0.89632 0.9631,1.22438 0.65262,3.0247 -0.63708,3.69397 l -0.74356,0.3859 0.68368,0.79872 c 1.63208,1.90672 1.80031,3.33772 0.39241,3.33772 -0.64204,0 -0.7558,-0.0972 -1.43422,-1.22437 -1.07881,-1.79252 -1.82176,-2.56018 -2.52597,-2.60991 l -0.59636,-0.042 -0.0994,1.88849 -0.0995,1.88849 -0.69662,0.0588 c -0.38313,0.0324 -0.80804,-0.0527 -0.94425,-0.18884 z m 4.80729,-5.45023 c 0.17177,-0.17177 0.31238,-0.52322 0.31238,-0.78095 0,-0.82558 -0.49029,-1.09334 -2.00208,-1.09334 h -1.37733 v 1.09334 1.09334 h 1.37733 c 0.98706,0 1.46582,-0.0884 1.6897,-0.31239 z M 77.319561,196.28856 c 0.359036,-0.94433 0.767713,-1.2428 1.701751,-1.2428 0.475073,0 0.863754,0.0791 0.863754,0.17566 0,0.0967 -0.358091,0.49916 -0.795729,0.89455 -0.538266,0.48628 -0.986917,0.71889 -1.386611,0.71889 -0.562342,0 -0.58085,-0.0264 -0.383165,-0.5463 z"
       style="fill:#000000;stroke-width:1.75097"
       id="path1-06" /></g></svg>
