<?xml version="1.0" encoding="UTF-8" standalone="no"?>
<!-- Created with Inkscape (http://www.inkscape.org/) -->

<svg
   width="210.71777mm"
   height="243.63277mm"
   viewBox="0 0 210.71777 243.63277"
   version="1.1"
   id="svg1"
   xml:space="preserve"
   inkscape:version="1.3.2 (091e20ef0f, 2023-11-25, custom)"
   sodipodi:docname="logo.svg"
   xmlns:inkscape="http://www.inkscape.org/namespaces/inkscape"
   xmlns:sodipodi="http://sodipodi.sourceforge.net/DTD/sodipodi-0.dtd"
   xmlns="http://www.w3.org/2000/svg"
   xmlns:svg="http://www.w3.org/2000/svg"><sodipodi:namedview
     id="namedview1"
     pagecolor="#505050"
     bordercolor="#ffffff"
     borderopacity="1"
     inkscape:showpageshadow="0"
     inkscape:pageopacity="0"
     inkscape:pagecheckerboard="1"
     inkscape:deskcolor="#d1d1d1"
     inkscape:document-units="mm"
     inkscape:zoom="0.42050406"
     inkscape:cx="818.06582"
     inkscape:cy="498.2116"
     inkscape:window-width="1920"
     inkscape:window-height="1031"
     inkscape:window-x="0"
     inkscape:window-y="0"
     inkscape:window-maximized="0"
     inkscape:current-layer="layer1"
     showgrid="false"><inkscape:page
       x="0"
       y="0"
       width="210.71777"
       height="243.63277"
       id="page2"
       margin="0"
       bleed="0"
       inkscape:label="original" /><inkscape:page
       x="220"
       y="0"
       width="67.73333"
       height="67.73333"
       id="page3"
       margin="0 0 0"
       bleed="0"
       inkscape:label="favicon"
       inkscape:export-filename="../cer-el-encinar-website/src/images/favicon.png"
       inkscape:export-xdpi="96"
       inkscape:export-ydpi="96" /><inkscape:page
       x="324.92334"
       y="19.579746"
       width="33.866665"
       height="33.866665"
       id="page4"
       margin="0"
       bleed="0"
       inkscape:label="logo 128"
       inkscape:export-filename="../cer-el-encinar-website/src/images/favicon.png"
       inkscape:export-xdpi="96"
       inkscape:export-ydpi="96" /><inkscape:page
       x="370.02124"
       y="20.994446"
       width="16.933332"
       height="16.933332"
       id="page5"
       margin="0"
       bleed="0"
       inkscape:label="logo 64" /></sodipodi:namedview><defs
     id="defs1" /><g
     inkscape:label="Layer 1"
     inkscape:groupmode="layer"
     id="layer1"><g
       id="g1"
       transform="matrix(0.17646893,0,0,0.17646893,372.83715,-7.7917265)"
       inkscape:export-filename="logo128.png"
       inkscape:export-xdpi="96"
       inkscape:export-ydpi="96"><path
         d="m -92.324306,304.76397 c -0.16371,-0.028 -1.59475,-0.19291 -3.18009,-0.36641 -1.58535,-0.17352 -3.4639,-0.3946 -4.17456,-0.49131 -3.344724,-0.45518 -4.349854,-0.56381 -5.322534,-0.57521 -0.93112,-0.0105 -1.06901,0.0415 -1.23104,0.46767 -0.10033,0.26399 -0.34415,0.52967 -0.54175,0.59041 -0.5774,0.17749 -6.21322,-0.43069 -7.91325,-0.85393 -0.43734,-0.10891 -1.68971,-0.38047 -2.78305,-0.60351 -2.56372,-0.52298 -4.10735,-0.88235 -5.46669,-1.27269 -0.60133,-0.17265 -1.71952,-0.49372 -2.48485,-0.71345 -2.0542,-0.58973 -5.64933,-1.79093 -6.56003,-2.19185 -0.43734,-0.19252 -1.15298,-0.46177 -1.59032,-0.59831 -1.0898,-0.34025 -7.19607,-3.33288 -9.14428,-4.48154 -1.67647,-0.98842 -4.59961,-2.90608 -5.82953,-3.82431 -2.89451,-2.161 -7.43205,-6.42555 -9.25932,-8.70231 -2.46229,-3.06795 -2.95706,-3.72441 -4.04039,-5.36072 -2.20526,-3.33093 -4.50645,-7.51548 -5.44207,-9.89603 -0.22424,-0.57054 -0.52756,-1.30572 -0.67407,-1.63373 -1.34024,-3.00083 -3.05031,-8.33895 -3.88461,-12.12612 -0.0963,-0.43732 -0.31654,-1.37661 -0.48935,-2.08728 -0.17282,-0.71066 -0.40358,-1.78413 -0.51286,-2.38546 -0.10926,-0.60134 -0.28498,-1.54062 -0.39051,-2.08729 -0.49611,-2.5699 -0.94278,-6.16026 -1.08814,-8.74645 -0.0553,-0.98385 -0.14201,-1.92312 -0.19251,-2.08728 -0.0506,-0.16406 -0.23139,-1.50156 -0.40181,-2.97206 -0.47942,-4.1363 -0.57101,-3.98192 -1.18746,2.00155 -0.26336,2.55632 -0.5325,4.91622 -0.59807,5.24421 -0.0655,0.32801 -0.24707,1.71457 -0.40332,3.08124 -0.32314,2.82635 -0.55569,4.20996 -0.85204,5.06911 -0.11312,0.328 -0.38219,1.66982 -0.59791,2.98184 -0.21572,1.312 -0.49752,2.74328 -0.62621,3.18062 -0.1287,0.43732 -0.27927,1.01878 -0.33456,1.29212 -0.0553,0.27333 -0.17387,0.67588 -0.26368,0.89454 -0.28163,0.68634 -1.59602,4.85115 -1.59602,5.05721 0,0.10803 -0.58377,1.59839 -1.29729,3.31187 -4.13826,9.93788 -9.79685,17.86884 -17.06499,23.91791 -2.38046,1.98119 -3.0719,2.49643 -5.39637,4.02121 -5.01768,3.29143 -10.93163,6.12525 -16.49606,7.9045 -1.09334,0.3496 -2.1668,0.7125 -2.38547,0.80644 -0.36689,0.15759 -2.6847,0.82811 -5.2279,1.51226 -0.57934,0.15584 -1.2291,0.28338 -1.44392,0.28338 -0.21482,0 -0.54591,0.0821 -0.73576,0.18231 -0.18985,0.10033 -1.01609,0.28506 -1.8361,0.41066 -0.82,0.12554 -1.81825,0.31307 -2.21834,0.41662 -0.40008,0.10348 -1.33936,0.17911 -2.08728,0.16792 -0.74792,-0.0105 -1.67236,0.077 -2.05431,0.19621 -0.38194,0.11907 -1.09817,0.2166 -1.59162,0.2166 -0.49345,0 -1.20124,0.0872 -1.57287,0.1938 -0.62546,0.17937 -0.72412,0.14235 -1.32716,-0.49698 -0.73888,-0.78344 -1.16922,-0.83964 -3.71629,-0.48539 -0.81213,0.11294 -2.22751,0.28823 -3.14531,0.38949 -0.9178,0.1012 -3.17821,0.35212 -5.02312,0.55749 -1.84492,0.20537 -3.58929,0.33895 -3.87638,0.29684 -1.3571,-0.19901 -2.17219,-0.5791 -3.05655,-1.42529 -0.79452,-0.76023 -0.94424,-1.02048 -0.94424,-1.64118 0,-0.82154 0.67728,-1.79119 1.56429,-2.23956 0.78664,-0.39765 2.32007,-0.69272 4.15451,-0.79948 0.904,-0.0525 1.75383,-0.16459 1.8885,-0.24908 0.13467,-0.0844 1.9445,-0.31766 4.02184,-0.51839 6.21215,-0.60023 5.95328,-0.54856 6.02826,-1.20351 0.0355,-0.31034 -0.059,-0.71289 -0.21005,-0.89455 -0.44914,-0.54018 -0.74909,-1.39651 -0.74909,-2.13864 0,-0.94528 -0.49658,-1.83664 -1.10879,-1.99029 -0.27785,-0.0697 -0.92477,-0.0592 -1.4376,0.0235 -0.51283,0.0826 -1.42442,0.14411 -2.02576,0.1364 -1.65586,-0.021 -7.99464,-0.005 -12.12611,0.0294 l -3.6776,0.0312 -1.14807,-0.59076 c -1.3374,-0.68814 -2.07264,-1.39177 -2.30653,-2.2073 -0.22861,-0.79712 0.50141,-1.92565 1.6163,-2.49864 1.01493,-0.5216 3.74168,-0.69724 11.77774,-0.75859 2.84268,-0.0217 5.7947,-0.0994 6.56003,-0.17264 l 1.39153,-0.13325 -0.0347,-0.59637 c -0.0191,-0.32801 -0.1671,-1.17782 -0.32897,-1.88849 -0.16186,-0.71068 -0.39126,-1.76869 -0.50977,-2.35115 -0.1185,-0.58246 -0.25896,-1.12938 -0.3121,-1.21537 -0.21408,-0.34638 -6.10417,-0.55399 -8.65454,-0.30503 -0.38267,0.0373 -2.49514,0.0847 -4.69437,0.10523 -3.9814,0.0371 -4.00322,0.035 -5.06912,-0.49935 -1.89485,-0.94986 -2.50776,-1.85144 -2.14696,-3.15815 0.44937,-1.62748 2.37252,-2.30966 6.57374,-2.33188 1.56852,-0.009 3.92531,-0.0932 5.23731,-0.18858 1.31201,-0.0954 3.61585,-0.20531 5.11965,-0.24419 1.68468,-0.0436 2.82092,-0.15741 2.96013,-0.29661 0.27658,-0.27658 -0.0621,-5.27646 -0.38378,-5.66607 -0.19728,-0.23894 0.005,-4.52834 0.24985,-5.30003 0.0554,-0.17475 0.19187,-1.07762 0.30319,-2.00658 0.11131,-0.92894 0.29549,-2.35991 0.40928,-3.1799 0.1138,-0.82 0.23022,-1.71455 0.25873,-1.9879 0.0957,-0.91775 1.33674,-6.04363 1.94915,-8.05092 0.79094,-2.59244 2.11523,-6.65089 2.33516,-7.15641 0.0951,-0.21867 0.45361,-1.0945 0.7966,-1.94628 l 0.62362,-1.54875 -0.3184,-1.73131 c -0.17512,-0.95221 -0.40114,-2.29039 -0.50227,-2.97374 -0.3697,-2.49806 -0.5631,-3.75486 -0.7724,-5.01941 -0.28935,-1.7482 -0.58245,-3.92814 -0.80182,-5.96366 -0.10015,-0.92935 -0.2783,-2.45008 -0.39588,-3.37941 -0.29528,-2.33399 -0.63334,-6.00483 -0.69566,-7.55399 -0.0286,-0.71066 -0.15032,-2.2314 -0.27052,-3.37941 -0.86436,-8.2553 -0.87112,-18.71174 -0.0166,-25.84253 0.57974,-4.83846 1.41772,-9.04319 2.05151,-10.29392 0.63122,-1.24566 1.65211,-2.13769 2.85544,-2.49505 0.98175,-0.29154 1.62432,-0.22636 4.72038,0.47884 5.5655,1.26767 14.32764,6.04155 21.86473,11.91255 1.0527,0.82 2.23406,1.73616 2.62526,2.03589 1.60445,1.22939 8.83533,7.79 10.54723,9.56955 1.06783,1.11004 1.99906,1.91219 2.2199,1.91219 0.2092,0 0.81271,-0.18621 1.34112,-0.4138 1.49244,-0.64282 6.25411,-2.17045 6.76535,-2.17045 0.18127,0 0.60431,-0.0865 0.94007,-0.19229 5.21853,-1.64387 14.78138,-2.64218 20.88695,-2.18052 5.1973,0.393 11.32743,1.24487 12.01467,1.6696 0.1033,0.0639 0.70737,0.20821 1.34236,0.32078 0.63501,0.11259 1.82546,0.41097 2.64546,0.66311 0.82001,0.25212 2.02765,0.61878 2.68366,0.81476 0.656,0.196 1.8338,0.61116 2.61736,0.92259 0.78355,0.31142 1.57343,0.56622 1.7553,0.56622 0.18185,0 1.50878,-1.1892 2.9487,-2.64266 3.16031,-3.19001 7.7748,-7.32745 10.46603,-9.38405 0.5723,-0.43734 1.78508,-1.37661 2.69506,-2.08728 4.13125,-3.22636 8.28661,-5.82819 13.47277,-8.43583 2.27698,-1.14487 5.05899,-2.25784 5.17604,-2.07073 0.19053,0.3046 0.72897,2.98556 0.63133,3.14354 -0.0685,0.11066 -0.0256,0.53793 0.0954,0.94941 0.12099,0.41146 0.34943,2.16612 0.50782,3.89925 0.15846,1.73311 0.33764,3.23149 0.39834,3.3297 0.22943,0.37122 0.73655,0.13868 2.62002,-1.20176 1.06679,-0.75919 2.20801,-1.56507 2.53602,-1.79086 0.32799,-0.22577 1.39422,-0.9939 2.36941,-1.70697 0.97519,-0.71306 1.84484,-1.22468 1.93258,-1.13696 0.16197,0.16179 0.44189,1.75912 0.76777,4.37925 0.0989,0.79492 0.22957,1.52594 0.29047,1.62446 0.51762,0.83753 0.51937,25.22382 0.002,26.06115 -0.0525,0.0849 -0.18941,1.21367 -0.30423,2.50821 -0.19928,2.24697 -0.36569,4.02748 -0.76803,8.21801 -0.0998,1.03866 -0.28389,2.55939 -0.40924,3.37941 -0.12537,0.81999 -0.31885,2.20655 -0.43004,3.08122 -0.35739,2.81179 -0.54588,4.14988 -0.74209,5.2679 -0.54741,3.11935 -0.79694,4.82283 -0.91727,6.26185 -0.12449,1.48848 -0.093,1.68578 0.49167,3.08122 0.98205,2.34404 1.54159,3.93653 2.58431,7.3552 0.35016,1.148 0.71775,2.29275 0.81687,2.5439 0.0991,0.25114 0.18021,0.67184 0.18021,0.93489 0,0.26305 0.0791,0.68376 0.17595,0.9349 0.40892,1.06126 0.91369,3.6237 1.407634,7.14588 0.0867,0.61772 0.22584,1.23375 0.30937,1.36891 0.42789,0.69232 1.0312,8.55978 0.72356,9.43525 -0.33122,0.94254 -0.47994,5.41226 -0.18613,5.59384 0.26056,0.16109 4.3468,0.37982 11.9818,0.6415 5.2516,0.18 6.02072,0.34085 6.95836,1.45516 0.36254,0.43087 0.49623,0.82251 0.49623,1.45378 0,1.10546 -0.62265,1.87638 -2.09873,2.59857 l -1.08655,0.5316 -7.20378,-0.12222 c -7.58707,-0.1287 -9.64271,-0.031 -9.89834,0.47084 -0.0835,0.16406 -0.256484,1.05855 -0.384304,1.98787 -0.12782,0.92935 -0.37726,2.11479 -0.55434,2.63432 -0.25627,0.75192 -0.27165,0.99492 -0.0753,1.19124 0.18487,0.18488 2.475434,0.27979 9.146334,0.37896 9.82806,0.14603 9.71931,0.13185 11.03287,1.44541 0.55206,0.55206 0.72457,0.88701 0.72457,1.40678 0,1.16454 -1.51487,2.53784 -3.28002,2.97352 -0.57907,0.14288 -4.27652,0.15006 -14.48494,0.0278 l -4.943064,-0.0592 -0.37018,0.81507 c -0.20358,0.44829 -0.37211,1.06685 -0.37451,1.37458 -0.002,0.30774 -0.19063,0.99247 -0.41826,1.52163 -0.22764,0.52916 -0.38419,1.17194 -0.34788,1.42837 0.0623,0.44027 0.18793,0.47909 2.25268,0.69617 1.20267,0.12642 2.768144,0.32647 3.478814,0.4445 0.71066,0.11802 2.96991,0.38552 5.02052,0.59441 3.10916,0.31675 3.88502,0.46129 4.67154,0.87033 0.89865,0.46739 2.01577,1.73376 2.02988,2.30111 0.014,0.56483 -1.26965,2.0254 -2.16252,2.46052 -0.83211,0.40549 -2.66396,0.73304 -3.39749,0.6075 z M -208.90414,270.24653 c 3.89198,-0.83577 6.70089,-3.41959 8.26652,-7.60409 0.54931,-1.46816 0.5917,-4.84051 0.0798,-6.34831 -1.29388,-3.81107 -3.90682,-6.4624 -7.52429,-7.63482 -1.23368,-0.39985 -4.80996,-0.3018 -6.05746,0.16599 -4.40369,1.65155 -7.39107,5.92022 -7.39107,10.56108 0,4.19768 2.51593,8.20927 6.24434,9.95646 2.37563,1.11325 4.20188,1.37183 6.38215,0.90362 z m -2.91743,-3.92513 c -2.14343,-0.31747 -4.12972,-1.76964 -5.08153,-3.71507 -0.75773,-1.54873 -0.887,-4.20296 -0.28269,-5.80414 0.82548,-2.1872 3.00216,-4.00959 5.205,-4.35782 1.25349,-0.19814 3.16556,0.0732 4.18661,0.59407 0.92318,0.47097 2.42794,1.94099 2.87828,2.81186 0.39377,0.76148 0.30839,0.85354 -2.11287,2.27834 -1.08271,0.63713 -1.97204,1.25717 -1.9763,1.37784 -0.004,0.12064 0.93154,0.79078 2.07954,1.4891 1.33578,0.81254 2.08728,1.39148 2.08728,1.60804 0,0.51524 -2.09602,2.66744 -3.04058,3.1221 -1.06718,0.51367 -2.76483,0.77015 -3.94274,0.59568 z m 72.29988,3.92862 c 4.32303,-0.82446 7.64393,-4.22206 8.61663,-8.81567 0.33139,-1.56494 0.34354,-1.92813 0.11504,-3.43941 -0.42713,-2.82423 -1.3192,-4.61937 -3.26822,-6.57671 -5.11793,-5.13979 -13.46805,-3.6461 -16.7625,2.99851 -1.13844,2.29614 -1.45453,5.86306 -0.72472,8.17858 0.87609,2.77973 3.04406,5.42685 5.39402,6.58619 2.60047,1.28293 4.17498,1.53668 6.62982,1.06851 z m -4.58658,-4.47251 c -4.71541,-2.23861 -5.41916,-8.88975 -1.27502,-12.05013 1.23785,-0.94397 2.34301,-1.29853 4.04765,-1.29853 1.84852,0 3.05702,0.42517 4.24537,1.49359 1.1442,1.02875 2.11659,2.375 1.93162,2.67431 -0.0732,0.11854 -1.06922,0.76617 -2.21327,1.43925 -1.23655,0.72751 -2.05683,1.33307 -2.02275,1.49325 0.0315,0.14813 0.95142,0.82922 2.0442,1.51338 1.09277,0.68415 2.01439,1.38689 2.04804,1.56162 0.034,0.17643 -0.49591,0.89164 -1.19171,1.60853 -1.54204,1.58874 -2.81199,2.13137 -4.98764,2.13112 -1.16424,-1.2e-4 -1.65797,-0.10663 -2.62649,-0.56639 z m -35.38442,36.81942 c -2.08257,-0.79562 -2.87795,-1.22958 -4.05058,-2.20993 -2.26335,-1.89224 -3.33249,-3.78515 -4.6317,-8.20038 -0.42177,-1.43343 -0.32296,-4.68278 0.17531,-5.76488 1.21715,-2.64326 4.66667,-4.01459 10.85175,-4.31405 2.2865,-0.11067 5.99065,0.32522 7.27106,0.85571 0.36869,0.15269 0.80657,0.27772 0.97307,0.27772 0.64607,0 2.95879,1.641 3.48503,2.47283 1.48568,2.34833 0.86732,7.77737 -1.29943,11.40873 -0.84592,1.41771 -3.18393,3.80402 -4.35724,4.44724 -1.72625,0.94634 -3.42667,1.35225 -5.61801,1.34105 -1.29556,-0.007 -2.28523,-0.11767 -2.79926,-0.31404 z"
         style="fill:#000000;stroke-width:1.75097"
         id="path1-0-2" /><path
         d="m -188.6716,335.52842 c -0.15794,-0.26513 -0.25587,-6.98968 -0.20005,-13.7429 l 0.0497,-6.01336 h 2.11046 c 2.08689,0 2.10929,0.005 2.00649,0.44727 -0.0573,0.24601 -0.2586,1.07347 -0.44758,1.8388 -0.27925,1.13085 -0.36067,2.63507 -0.43459,8.02963 l -0.091,6.63813 5.75137,-0.1448 5.75139,-0.14481 -0.33839,1.34428 c -0.24092,0.95701 -0.44993,1.38554 -0.72553,1.48748 -0.5878,0.21745 -13.31093,0.46381 -13.4323,0.26011 z m -18.96873,-3.46074 c -3.59135,-0.37816 -6.5988,-2.17082 -8.16208,-4.86517 -0.42535,-0.73308 -0.71217,-1.00999 -1.0929,-1.0551 l -0.5162,-0.0611 0.0877,1.65147 c 0.0482,0.90832 0.12108,1.98694 0.16186,2.39694 l 0.0742,0.74546 -1.91927,-0.004 c -1.0556,-0.002 -2.02394,-0.0697 -2.15187,-0.15093 -0.16777,-0.10681 -0.25601,-2.11363 -0.31666,-7.20305 -0.0462,-3.88031 -0.15328,-7.25637 -0.23788,-7.50238 l -0.15379,-0.44727 h 3.67365 c 4.19296,0 5.2384,0.14936 7.03104,1.00497 1.85258,0.88415 2.36236,1.7153 2.36236,3.85165 0,2.42756 -0.6979,3.4264 -3.33022,4.76624 -0.87493,0.44534 -0.90091,0.59115 -0.27069,1.51862 0.94448,1.38993 3.34723,2.17737 6.64382,2.17737 h 1.37644 l -0.16336,0.84486 c -0.0898,0.46466 -0.16739,1.22504 -0.17212,1.68971 l -0.009,0.84484 -0.74546,-0.027 c -0.41,-0.014 -1.38643,-0.0946 -2.16981,-0.17697 z m -6.65346,-9.38447 c 1.36626,-0.50817 1.81598,-0.9626 1.81598,-1.83502 0,-1.41414 -2.19339,-2.9742 -3.61029,-2.56783 -1.01884,0.29218 -1.34139,0.94016 -1.39072,2.79383 -0.0537,2.0186 0.13948,2.33485 1.30778,2.14052 0.44593,-0.0742 1.29069,-0.31335 1.87725,-0.5315 z m 115.423781,9.38556 c -2.810201,-0.3007 -4.626581,-1.06719 -6.459291,-2.72569 -0.67409,-0.61 -1.49542,-1.58719 -1.8252,-2.17151 -0.46458,-0.82322 -0.70718,-1.0624 -1.07756,-1.0624 -0.4454,0 -0.4773,0.0711 -0.46779,1.04365 0.005,0.574 0.0774,1.64746 0.15934,2.38548 l 0.14918,1.34182 -1.8988,-0.004 c -1.04435,-0.002 -2.00273,-0.0692 -2.12971,-0.14989 -0.16547,-0.10523 -0.25599,-2.14723 -0.31943,-7.20306 -0.0487,-3.88087 -0.15881,-7.26635 -0.24477,-7.52329 l -0.15618,-0.46716 4.35203,0.0884 c 4.16175,0.0846 4.40921,0.11171 5.65937,0.62224 1.9897,0.8125 3.165421,2.26893 3.165421,3.92116 0,2.15462 -1.030991,3.76916 -3.054501,4.78334 -0.67071,0.33615 -1.25492,0.64349 -1.29825,0.68298 -0.19014,0.17334 1.04695,1.71327 1.75002,2.17854 0.91192,0.60348 3.211981,1.06486 5.359231,1.07503 l 1.46437,0.007 -0.13465,1.34182 c -0.0741,0.73801 -0.18,1.49837 -0.23534,1.6897 -0.11049,0.38199 -0.40035,0.39723 -2.75749,0.14498 z m -7.790281,-9.05685 c 2.1967,-0.56923 2.90273,-1.10726 2.91364,-2.22034 0.005,-0.49181 -0.18082,-0.8332 -0.77745,-1.42982 -0.99126,-0.99126 -2.06301,-1.34515 -3.06866,-1.01326 -0.97586,0.32206 -1.16058,0.76082 -1.19086,2.8284 -0.0336,2.30011 0.0499,2.3723 2.12333,1.83502 z m -51.84637,8.35506 c -2.25867,-1.55425 -4.00419,-3.68903 -5.88164,-7.19321 -0.48244,-0.90047 -0.97574,-1.63847 -1.09619,-1.64001 -0.23931,-0.004 -0.47781,2.37101 -0.46907,4.66875 0.005,1.21704 0.26748,2.34253 0.85885,3.67761 0.11644,0.26266 -0.73795,0.29064 -7.17278,0.23487 -4.01768,-0.0348 -7.33169,-0.0902 -7.36448,-0.12291 -0.0327,-0.0327 -0.14253,-2.41958 -0.2439,-5.304 -0.10138,-2.88441 -0.23165,-6.29547 -0.28954,-7.58016 l -0.10523,-2.33576 h 5.09476 5.09479 l -0.13973,1.7394 c -0.0769,0.95668 -0.20381,1.80492 -0.28223,1.88497 -0.0785,0.08 -0.50786,-0.0352 -0.95427,-0.25601 -0.68041,-0.33664 -1.12937,-0.39232 -2.77663,-0.34435 l -1.96497,0.0573 -0.0581,1.54063 -0.0581,1.54061 h 2.65867 2.65867 l -0.0804,1.14303 c -0.0441,0.62867 -0.11487,1.25215 -0.15689,1.38553 -0.0538,0.17019 -0.83471,0.25907 -2.61969,0.29817 l -2.54309,0.0557 -0.0995,1.46101 c -0.0546,0.80353 -0.0439,1.55039 0.0238,1.65965 0.2125,0.34247 5.52914,0.11628 6.27474,-0.26698 0.76887,-0.3952 0.84386,-0.27792 0.88694,1.38684 0.0606,2.34042 0.32235,-1.69922 0.47772,-7.37143 l 0.1511,-5.5164 h 0.52948 c 0.29122,0 0.98142,0.1343 1.53378,0.29824 1.67214,0.49658 2.933,1.96141 4.63718,5.38734 0.78311,1.57428 1.49472,2.86234 1.58134,2.86234 0.17089,0 0.32158,-1.73734 0.52287,-6.0298 l 0.12905,-2.74979 1.96279,0.0662 c 1.07954,0.0364 1.9629,0.0779 1.96303,0.0921 1.4e-4,0.014 -0.21416,0.59577 -0.47621,1.29213 -0.76712,2.03853 -0.98972,4.61706 -0.85945,9.95577 0.087,3.56927 0.0578,4.72589 -0.11924,4.71763 -0.12905,-0.005 -0.68188,-0.31875 -1.22855,-0.69493 z m 30.61347,-0.0571 c -2.06884,-1.31672 -3.94274,-3.61104 -5.79835,-7.09922 -0.87659,-1.64782 -1.2385,-2.02468 -1.27896,-1.33187 -0.0105,0.19133 -0.0769,0.83989 -0.14603,1.44122 -0.0692,0.60134 -0.12607,1.89842 -0.12625,2.88243 -4.2e-4,1.52015 0.0788,1.95913 0.52713,2.92007 l 0.52762,1.13095 -2.12046,-0.11469 c -1.16623,-0.063 -2.12566,-0.12467 -2.13205,-0.13693 -0.007,-0.0122 0.0751,-3.35453 0.181,-7.42722 l 0.1926,-7.40489 h 0.62844 c 0.94269,0 2.31958,0.53191 3.15107,1.2173 1.01194,0.83412 2.18605,2.61759 3.32523,5.05106 0.52554,1.12258 1.04283,2.09503 1.14955,2.16099 0.11714,0.0723 0.23902,-0.53077 0.30749,-1.52077 0.12046,-1.74109 0.39603,-6.20889 0.41391,-6.70979 0.009,-0.24391 0.34461,-0.29535 1.8458,-0.28262 1.00933,0.009 1.88152,0.062 1.93817,0.11854 0.0567,0.0567 -0.0242,0.40747 -0.17956,0.77958 -0.15549,0.37214 -0.44491,1.39223 -0.64331,2.26691 -0.30849,1.35995 -0.3552,2.40379 -0.32256,7.20609 0.021,3.08868 -0.0261,5.61495 -0.10471,5.6139 -0.0786,-10e-4 -0.67968,-0.34349 -1.33568,-0.76101 z m 3.59455,-0.39945 c -0.75633,-0.18142 -1.40995,-0.43423 -1.45246,-0.56177 -0.0426,-0.12747 0.14568,-0.97707 0.41818,-1.88784 0.27251,-0.91078 1.08694,-3.98179 1.80982,-6.82447 0.72291,-2.84266 1.36513,-5.33855 1.4272,-5.54639 0.10751,-0.36032 0.30206,-0.37252 4.18425,-0.26245 2.23928,0.0636 4.10056,0.14463 4.13619,0.18021 0.0356,0.0355 0.0877,0.69044 0.11574,1.45518 l 0.0511,1.39041 -1.33753,0.059 c -1.61725,0.0713 -1.71478,0.22257 -1.15053,1.78372 0.91408,2.5291 2.84076,8.83246 2.73272,8.94048 -0.29236,0.29236 -2.84837,1.24354 -3.34164,1.24354 -0.55077,0 -0.55241,-0.004 -0.55241,-1.37497 0,-0.75906 -0.0909,-1.40526 -0.20303,-1.44262 -0.3217,-0.10717 -3.96694,0.16249 -4.10846,0.304 -0.0702,0.0702 -0.22635,0.73154 -0.34702,1.46968 -0.25608,1.56629 -0.2821,1.57802 -2.38215,1.07429 z m 6.44429,-5.61651 c 0,-0.18844 -1.03568,-3.93862 -1.30617,-4.72965 -0.15531,-0.45415 -0.27479,-0.17282 -0.88881,2.09206 -0.81602,3.01016 -0.85927,2.85641 0.80347,2.85641 0.88007,0 1.39151,-0.0804 1.39151,-0.21882 z m -114.38479,5.13884 c -0.0546,-0.35532 -0.14632,-2.16679 -0.20384,-4.02547 -0.0575,-1.85867 -0.16505,-5.01196 -0.23897,-7.00731 l -0.13441,-3.62789 h 5.02054 5.02054 l -0.0695,1.77279 c -0.0382,0.97502 -0.12789,1.83107 -0.19931,1.90236 -0.0714,0.0713 -0.49275,-0.0555 -0.93633,-0.28188 -0.64927,-0.33123 -1.17742,-0.41144 -2.70915,-0.41144 -1.34859,0 -1.92504,0.0723 -1.97953,0.24848 -0.0423,0.13658 -0.13143,0.85232 -0.19809,1.59032 l -0.1212,1.34182 h 2.71403 2.71404 l -0.12425,0.62121 c -0.0683,0.34167 -0.12425,0.96785 -0.12425,1.39153 v 0.77031 h -2.47313 c -1.36022,0 -2.51344,0.0671 -2.56271,0.149 -0.0493,0.082 -0.12164,0.82 -0.16083,1.64 l -0.0713,1.49091 2.88244,-0.005 c 2.35556,-0.005 3.00053,-0.0693 3.5285,-0.353 l 0.64607,-0.34707 v 1.89359 1.89361 h -5.06008 -5.06011 z m 32.41396,-3.28001 c -0.072,-2.15935 -0.18881,-5.60337 -0.25951,-7.65337 l -0.12853,-3.72729 h 5.0242 5.02421 l -0.0853,1.7838 c -0.0469,0.9811 -0.13868,1.83715 -0.20384,1.90236 -0.0651,0.0651 -0.48148,-0.0665 -0.92505,-0.29289 -0.64928,-0.33123 -1.17744,-0.41144 -2.70917,-0.41144 -1.34858,0 -1.92504,0.0723 -1.97953,0.24848 -0.0424,0.13658 -0.13149,0.85232 -0.19808,1.59032 l -0.12117,1.34182 h 2.71404 2.71404 l -0.12432,0.62121 c -0.0683,0.34167 -0.12432,0.96785 -0.12432,1.39153 v 0.77031 h -2.47313 c -1.36022,0 -2.51344,0.0671 -2.56272,0.149 -0.0492,0.082 -0.12169,0.82 -0.16091,1.64 l -0.0713,1.49091 h 2.89145 c 2.41907,0 2.97814,-0.0569 3.42211,-0.34786 0.29187,-0.19135 0.57854,-0.34789 0.63706,-0.34789 0.0585,0 0.10646,0.84983 0.10646,1.88851 v 1.88849 h -5.13795 -5.13794 z m 56.04504,3.18063 c 0.0678,-0.30068 0.20041,-0.85976 0.29488,-1.24244 0.26404,-1.0695 0.37409,-3.62597 0.37966,-8.81896 l 0.005,-4.74377 2.07529,0.0769 c 1.14142,0.0422 2.1265,0.128 2.1891,0.19061 0.0625,0.0627 -0.0594,0.5078 -0.27079,0.98937 -0.76426,1.73996 -0.91336,3.20792 -0.89154,8.77742 l 0.0208,5.31762 h -1.9628 -1.96282 z m -97.52205,0.17229 c -1.25463,-0.27441 -2.31368,-0.96529 -2.94824,-1.92332 -1.09348,-1.65084 -1.32572,-2.65872 -1.32572,-5.75322 0,-2.71217 0.0159,-2.81687 0.62907,-4.11088 0.83275,-1.75774 2.01901,-3.02769 3.20599,-3.43214 1.3547,-0.46159 2.80267,-0.58316 3.78663,-0.31793 1.51754,0.40908 3.24065,2.38922 3.68505,4.23476 0.30755,1.27719 -1.41249,2.93042 -3.04884,2.93042 -0.50937,0 -1.09977,-0.13132 -1.312,-0.29186 -0.36317,-0.27468 -0.3645,-0.29222 -0.0227,-0.29818 0.55258,-0.0105 1.52532,-1.08777 1.52532,-1.69061 0,-1.37028 -1.21343,-2.28705 -2.52808,-1.91001 -1.03097,0.29567 -1.81932,0.85176 -2.12408,1.49828 -0.7435,1.57723 -0.85875,4.69077 -0.22812,6.16265 0.33919,0.79166 1.21422,1.59893 2.16254,1.99507 0.71219,0.29749 0.80154,0.29427 1.39141,-0.0503 0.34669,-0.20248 0.82783,-0.72019 1.06918,-1.15048 0.39518,-0.70448 0.41002,-0.82629 0.1492,-1.22434 -0.1593,-0.24312 -0.28963,-0.48991 -0.28963,-0.54842 0,-0.0585 0.98401,-0.10646 2.18668,-0.10646 1.20267,0 2.18383,0.0671 2.18036,0.149 -0.004,0.082 -0.13767,0.32273 -0.29819,0.53496 -0.16053,0.21224 -0.29186,0.68544 -0.29186,1.05156 0,0.81697 -0.56658,1.95831 -1.33371,2.6867 -1.20387,1.14303 -4.43348,1.95536 -6.22026,1.56453 z m 89.45496,6.5e-4 c -2.91863,-0.63567 -4.52297,-3.73262 -4.33875,-8.37527 0.0667,-1.68182 0.15549,-2.06038 0.80371,-3.42519 1.01131,-2.12953 2.12101,-3.17745 3.81545,-3.60308 1.79207,-0.45016 2.65462,-0.40808 3.85046,0.18783 1.15765,0.57687 1.82933,1.28833 2.53957,2.68993 0.84726,1.672 0.52443,2.7341 -1.13934,3.74847 -0.73971,0.451 -2.12955,0.53659 -2.80896,0.173 -0.41734,-0.22337 -0.40832,-0.23946 0.26058,-0.46469 1.60599,-0.54074 1.70385,-2.5855 0.15987,-3.34021 -0.62282,-0.30444 -0.86059,-0.32454 -1.57204,-0.13289 -1.83927,0.49528 -2.66841,2.28113 -2.52986,5.44898 0.0925,2.11335 0.43568,2.8822 1.6646,3.72857 1.24182,0.85524 1.71507,0.88832 2.52576,0.17653 0.38265,-0.33598 0.80802,-0.88193 0.94524,-1.21321 0.21244,-0.51288 0.20131,-0.6556 -0.0749,-0.96081 -0.17843,-0.19716 -0.3244,-0.41852 -0.3244,-0.4919 0,-0.0734 0.99358,-0.13342 2.20795,-0.13342 2.0261,0 2.19588,0.0287 2.0614,0.34788 -0.0805,0.19133 -0.2195,0.77612 -0.30864,1.29953 -0.21502,1.26226 -0.92458,2.50765 -1.74278,3.05875 -1.54936,1.04359 -4.34398,1.6409 -5.99492,1.28132 z"
         style="fill:#000000;stroke-width:1.75097"
         id="path1-8-9" /></g><g
       id="g5"
       transform="translate(-0.46441662,4.6817415)"><path
         style="fill:#000000;stroke-width:1.40609"
         d="m 26.485101,175.01625 v -0.47889 h 79.338209 79.3382 v 0.47889 0.47891 h -79.3382 -79.338209 z"
         id="path1"
         sodipodi:nodetypes="ccccccccc" /><path
         d="m 171.6921,135.07577 c -0.13147,-0.0225 -1.28064,-0.15491 -2.55372,-0.29424 -1.27309,-0.13934 -2.78163,-0.31688 -3.35232,-0.39454 -2.68592,-0.36552 -3.49308,-0.45276 -4.27417,-0.46191 -0.74772,-0.008 -0.85845,0.0333 -0.98857,0.37555 -0.0806,0.212 -0.27636,0.42535 -0.43504,0.47412 -0.46367,0.14253 -4.98943,-0.34586 -6.35461,-0.68573 -0.3512,-0.0875 -1.3569,-0.30553 -2.23489,-0.48464 -2.05875,-0.41997 -3.29834,-0.70856 -4.38994,-1.02201 -0.48289,-0.13865 -1.38083,-0.39648 -1.99542,-0.57293 -1.64959,-0.47357 -4.5366,-1.43818 -5.26792,-1.76013 -0.3512,-0.1546 -0.92589,-0.37082 -1.27709,-0.48046 -0.87514,-0.27324 -5.77869,-2.67642 -7.34317,-3.59883 -1.34626,-0.79374 -3.69364,-2.33369 -4.68131,-3.07105 -2.32439,-1.73536 -5.96819,-5.15994 -7.43555,-6.98826 -1.9773,-2.46366 -2.37462,-2.99082 -3.24457,-4.30484 -1.7709,-2.67485 -3.61883,-6.03519 -4.37017,-7.94685 -0.18007,-0.45816 -0.42364,-1.04854 -0.5413,-1.31194 -1.07626,-2.40977 -2.4495,-6.696457 -3.11947,-9.737687 -0.0773,-0.35118 -0.25419,-1.10547 -0.39297,-1.67616 -0.13878,-0.570683 -0.32409,-1.432716 -0.41184,-1.915605 -0.0877,-0.482897 -0.22885,-1.237165 -0.31359,-1.676161 -0.3984,-2.063718 -0.75709,-4.946905 -0.87382,-7.023698 -0.0444,-0.790068 -0.11404,-1.544336 -0.15459,-1.676157 -0.0406,-0.131751 -0.18581,-1.205806 -0.32267,-2.386668 -0.38499,-3.321592 -0.45854,-3.197617 -0.95357,1.607315 -0.21149,2.052806 -0.42761,3.94789 -0.48027,4.211279 -0.0526,0.263403 -0.1984,1.376857 -0.32388,2.474339 -0.25949,2.269653 -0.44624,3.380745 -0.68422,4.070671 -0.0908,0.263392 -0.30691,1.340919 -0.48014,2.394515 -0.17323,1.05358 -0.39952,2.20295 -0.50287,2.55415 -0.10335,0.35118 -0.22426,0.81811 -0.26866,1.03761 -0.0444,0.2195 -0.13963,0.54276 -0.21175,0.71835 -0.22615,0.55115 -1.28165,3.89564 -1.28165,4.06111 0,0.0867 -0.468788,1.283567 -1.041769,2.659547 -3.323167,7.98046 -7.867212,14.34929 -13.703777,19.2069 -1.911592,1.59097 -2.466842,2.00472 -4.333468,3.22917 -4.029375,2.64313 -8.778481,4.91878 -13.246906,6.34758 -0.877988,0.28074 -1.740014,0.57216 -1.91561,0.6476 -0.294629,0.12655 -2.155911,0.665 -4.198189,1.2144 -0.465227,0.12514 -0.987008,0.22756 -1.159513,0.22756 -0.172506,0 -0.438384,0.0659 -0.59084,0.1464 -0.152457,0.0806 -0.81596,0.22892 -1.474451,0.32978 -0.658491,0.10081 -1.460123,0.2514 -1.781402,0.33456 -0.321281,0.0831 -1.075552,0.14383 -1.67616,0.13484 -0.600607,-0.008 -1.342963,0.0618 -1.649679,0.15757 -0.306717,0.0956 -0.881874,0.17393 -1.278128,0.17393 -0.396254,0 -0.964634,0.07 -1.263068,0.15563 -0.502268,0.14404 -0.581496,0.11431 -1.065757,-0.39909 -0.593348,-0.62913 -0.938923,-0.67426 -2.98431,-0.38979 -0.652162,0.0907 -1.788767,0.23146 -2.525791,0.31278 -0.737023,0.0813 -2.552206,0.28276 -4.033738,0.44768 -1.481531,0.16492 -2.882321,0.27219 -3.112866,0.23837 -1.089795,-0.15981 -1.74434,-0.46503 -2.45451,-1.14455 -0.638024,-0.61049 -0.758262,-0.81948 -0.758262,-1.31793 0,-0.65972 0.543884,-1.43838 1.256181,-1.79844 0.631697,-0.31933 1.863098,-0.55628 3.336219,-0.64201 0.725943,-0.0422 1.40838,-0.13217 1.516525,-0.20002 0.108142,-0.0678 1.561499,-0.25509 3.229676,-0.41628 4.98857,-0.48201 4.780689,-0.44052 4.840902,-0.96646 0.02853,-0.24922 -0.04737,-0.57248 -0.168677,-0.71836 -0.360681,-0.43378 -0.601551,-1.12144 -0.601551,-1.7174 0,-0.75909 -0.398764,-1.47488 -0.890392,-1.59827 -0.223125,-0.056 -0.742626,-0.0475 -1.154445,0.0189 -0.411819,0.0663 -1.143857,0.11573 -1.62675,0.10953 -1.329714,-0.0169 -6.419969,-0.004 -9.737688,0.0236 l -2.953233,0.0251 -0.921944,-0.4744 c -1.073974,-0.55266 -1.664401,-1.1177 -1.852224,-1.7726 -0.18358,-0.64011 0.402656,-1.54636 1.297952,-2.00649 0.815018,-0.41886 3.00469,-0.55991 9.457926,-0.60917 2.28277,-0.0174 4.653338,-0.0798 5.26793,-0.13864 l 1.11744,-0.107 -0.02784,-0.47891 c -0.01531,-0.2634 -0.134184,-0.94583 -0.264168,-1.51652 -0.129979,-0.5707 -0.314195,-1.42032 -0.409365,-1.88806 -0.09516,-0.46773 -0.207953,-0.90693 -0.250631,-0.97598 -0.171911,-0.27815 -4.901857,-0.44487 -6.949892,-0.24495 -0.307296,0.0299 -2.003678,0.068 -3.769739,0.0845 -3.197197,0.0298 -3.214719,0.0281 -4.070671,-0.40099 -1.521635,-0.76277 -2.01382,-1.48677 -1.724084,-2.53611 0.360858,-1.30692 1.905211,-1.85473 5.27894,-1.87258 1.259569,-0.007 3.152152,-0.0748 4.205737,-0.15143 1.053586,-0.0766 2.903651,-0.16487 4.111255,-0.19609 1.352854,-0.035 2.265292,-0.12641 2.377087,-0.23819 0.222098,-0.22211 -0.04986,-4.23718 -0.308189,-4.55005 -0.158424,-0.19188 0.0039,-3.63642 0.200635,-4.25611 0.04452,-0.140327 0.15408,-0.865357 0.243471,-1.611347 0.08939,-0.74597 0.237292,-1.89509 0.328668,-2.55357 0.09138,-0.65849 0.184874,-1.37684 0.207772,-1.59635 0.07688,-0.73699 1.073441,-4.853243 1.565235,-6.465168 0.635149,-2.081814 1.698599,-5.34089 1.875213,-5.746842 0.07639,-0.175593 0.364259,-0.878919 0.639693,-1.562925 l 0.500791,-1.243704 -0.255688,-1.390299 c -0.140628,-0.764659 -0.322132,-1.839264 -0.403342,-2.388018 -0.296881,-2.006025 -0.452186,-3.015274 -0.620262,-4.030752 -0.232361,-1.403867 -0.467725,-3.154435 -0.643887,-4.789028 -0.08043,-0.746296 -0.223485,-1.967499 -0.317904,-2.71378 -0.237127,-1.874276 -0.5086,-4.822086 -0.558641,-6.066109 -0.02296,-0.57069 -0.120713,-1.791893 -0.217239,-2.713782 -0.694111,-6.629289 -0.699539,-15.026174 -0.01335,-20.752445 0.465553,-3.885447 1.138477,-7.261989 1.647434,-8.266373 0.506894,-1.000306 1.326698,-1.716638 2.293019,-2.003606 0.788378,-0.234114 1.304385,-0.18178 3.790622,0.384523 4.469288,1.01798 11.505585,4.851571 17.558128,9.56619 0.845355,0.658485 1.794029,1.394193 2.108177,1.634888 1.288428,0.987243 7.095068,6.255635 8.469787,7.684672 0.857504,0.891404 1.605319,1.535562 1.782655,1.535562 0.167999,0 0.652636,-0.149538 1.076966,-0.332301 1.19848,-0.516203 5.02227,-1.742947 5.432806,-1.742947 0.145572,0 0.485284,-0.06946 0.754916,-0.154416 4.190651,-1.320079 11.869952,-2.121761 16.772932,-1.751031 4.17361,0.315596 9.09632,0.999673 9.64819,1.340748 0.0829,0.05132 0.56805,0.167198 1.07796,0.257596 0.50994,0.09041 1.46591,0.330023 2.12439,0.5325 0.6585,0.202462 1.62827,0.496898 2.15507,0.654282 0.52679,0.157397 1.47261,0.49078 2.10183,0.740868 0.62922,0.250087 1.26352,0.454701 1.40957,0.454701 0.14603,0 1.2116,-0.954974 2.3679,-2.122154 2.53785,-2.561685 6.24345,-5.884189 8.40458,-7.535712 0.45958,-0.351199 1.4335,-1.105467 2.16423,-1.676156 3.31754,-2.590875 6.65444,-4.68024 10.8191,-6.77426 1.82849,-0.91937 4.06254,-1.813123 4.15653,-1.662868 0.15301,0.244603 0.58539,2.397508 0.50698,2.524366 -0.055,0.08886 -0.0206,0.431979 0.0766,0.76241 0.0972,0.330418 0.28061,1.739474 0.40781,3.131235 0.12725,1.391748 0.27114,2.594994 0.31988,2.673862 0.18424,0.298105 0.59148,0.111362 2.10397,-0.965055 0.85667,-0.609653 1.7731,-1.256805 2.03651,-1.438121 0.26338,-0.181301 1.1196,-0.798138 1.90271,-1.370754 0.78312,-0.572616 1.48147,-0.983462 1.55193,-0.913016 0.13007,0.129922 0.35486,1.412627 0.61655,3.516685 0.0794,0.638351 0.18435,1.22538 0.23326,1.3045 0.41566,0.672561 0.41707,20.25559 0.002,20.927996 -0.0422,0.06819 -0.1521,0.974617 -0.24431,2.014181 -0.16002,1.804393 -0.29366,3.234203 -0.61675,6.599341 -0.0801,0.834078 -0.22797,2.05528 -0.32863,2.71378 -0.10069,0.658486 -0.25605,1.771939 -0.34534,2.474324 -0.287,2.257968 -0.43836,3.332502 -0.59592,4.230304 -0.4396,2.504948 -0.63997,3.872904 -0.73661,5.028485 -0.1,1.195303 -0.0747,1.353741 0.39483,2.474323 0.78862,1.882347 1.23795,3.161171 2.07529,5.906476 0.28119,0.921889 0.57638,1.841162 0.65598,2.042838 0.0796,0.201676 0.14471,0.539513 0.14471,0.750751 0,0.211238 0.0635,0.549083 0.1413,0.750757 0.32837,0.852228 0.73372,2.909958 1.13037,5.738388 0.0696,0.49605 0.18136,0.99074 0.24843,1.09928 0.34362,0.55596 0.82809,6.873797 0.58104,7.576827 -0.26598,0.75689 -0.38541,4.34623 -0.14947,4.49205 0.20924,0.12936 3.49063,0.305 9.6218,0.51514 4.21721,0.14455 4.83484,0.27372 5.5878,1.16855 0.29113,0.346 0.39849,0.6605 0.39849,1.16743 0,0.88772 -0.50001,1.5068 -1.68535,2.08674 l -0.87253,0.42689 -5.78488,-0.0982 c -6.09268,-0.10335 -7.74343,-0.0249 -7.94871,0.37811 -0.067,0.13174 -0.20596,0.85005 -0.3086,1.59632 -0.10266,0.7463 -0.30297,1.69825 -0.44516,2.11545 -0.20579,0.60382 -0.21814,0.79896 -0.0605,0.95661 0.14846,0.14846 1.98786,0.22468 7.34482,0.30432 7.89227,0.11726 7.80494,0.10588 8.85977,1.16071 0.44332,0.44332 0.58186,0.7123 0.58186,1.12969 0,0.93517 -1.2165,2.03797 -2.63397,2.38783 -0.46502,0.11474 -3.43419,0.12051 -11.63191,0.0223 l -3.96944,-0.0475 -0.29727,0.65453 c -0.16348,0.35999 -0.29882,0.85671 -0.30074,1.10383 -0.002,0.24713 -0.15309,0.79699 -0.33588,1.22192 -0.1828,0.42494 -0.30852,0.94111 -0.27936,1.14703 0.05,0.35356 0.15091,0.38473 1.80898,0.55905 0.96578,0.10152 2.22291,0.26217 2.7936,0.35695 0.57069,0.0948 2.38494,0.30959 4.03165,0.47733 2.49676,0.25436 3.11981,0.37043 3.75141,0.69891 0.72165,0.37533 1.61873,1.39227 1.63006,1.84787 0.0112,0.45357 -1.01957,1.62646 -1.73658,1.97588 -0.66821,0.32562 -2.13925,0.58866 -2.7283,0.48784 z M 78.074498,107.35709 c 3.125399,-0.67115 5.381048,-2.74605 6.638303,-6.10635 0.441118,-1.17898 0.47516,-3.887097 0.06411,-5.097907 -1.03903,-3.06042 -3.137308,-5.189529 -6.042261,-6.131022 -0.990689,-0.321093 -3.862567,-0.242356 -4.864349,0.133296 -3.536314,1.326246 -5.935286,4.754136 -5.935286,8.480906 0,3.370877 2.020382,6.592327 5.014424,7.995377 1.907711,0.89398 3.374249,1.10163 5.12508,0.72564 z m -2.342795,-3.15202 c -1.72125,-0.25494 -3.316304,-1.42108 -4.08064,-2.98333 -0.608484,-1.243677 -0.712296,-3.375117 -0.227013,-4.660917 0.662887,-1.7564 2.410839,-3.21984 4.179797,-3.49948 1.006591,-0.15911 2.542052,0.0588 3.361986,0.47706 0.741346,0.3782 1.949725,1.55868 2.311357,2.25802 0.316216,0.61149 0.247655,0.68542 -1.6967,1.82958 -0.869455,0.51164 -1.583622,1.00955 -1.587039,1.10646 -0.0028,0.0969 0.748054,0.63502 1.669942,1.19579 1.072678,0.652497 1.676158,1.117407 1.676158,1.291317 0,0.41375 -1.683174,2.14204 -2.441689,2.50715 -0.856983,0.4125 -2.220257,0.61846 -3.166159,0.47835 z m 58.059287,3.15482 c 3.47154,-0.66207 6.13833,-3.39046 6.91945,-7.07929 0.26611,-1.256697 0.27587,-1.548347 0.0924,-2.761957 -0.343,-2.26796 -1.05937,-3.70951 -2.6245,-5.28133 -4.10987,-4.127418 -10.8153,-2.927938 -13.46086,2.40791 -0.9142,1.84388 -1.16804,4.70824 -0.58197,6.567677 0.70353,2.23222 2.44448,4.35795 4.33158,5.28894 2.08827,1.03024 3.35265,1.23401 5.32397,0.85805 z m -3.68318,-3.59158 c -3.78664,-1.79768 -4.35178,-7.138777 -1.02389,-9.676667 0.99404,-0.75804 1.88152,-1.04276 3.2504,-1.04276 1.48443,0 2.45489,0.34142 3.40918,1.1994 0.91883,0.82612 1.69969,1.90721 1.55116,2.14756 -0.0588,0.0952 -0.85862,0.61526 -1.77733,1.15577 -0.993,0.58422 -1.65171,1.0705 -1.62434,1.19913 0.0253,0.11896 0.76402,0.66589 1.64156,1.2153 0.87753,0.549387 1.61762,1.113717 1.64465,1.254027 0.0273,0.14168 -0.39824,0.71602 -0.95699,1.29171 -1.23831,1.27581 -2.25812,1.71156 -4.00524,1.71136 -0.93493,-9e-5 -1.33141,-0.0856 -2.10916,-0.45483 z m -28.4149,29.56725 c -1.67238,-0.63891 -2.311093,-0.98739 -3.252755,-1.77465 -1.817552,-1.51953 -2.67611,-3.0396 -3.719414,-6.58518 -0.338699,-1.1511 -0.259354,-3.76043 0.140777,-4.6294 0.977415,-2.12262 3.747499,-3.22385 8.714332,-3.46433 1.83613,-0.0889 4.81069,0.26117 5.83891,0.68717 0.29607,0.12261 0.6477,0.22302 0.78141,0.22302 0.51881,0 2.37601,1.31778 2.79859,1.98577 1.19306,1.88578 0.69649,6.24549 -1.04348,9.16159 -0.67931,1.13847 -2.55681,3.05476 -3.49902,3.57129 -1.38623,0.75994 -2.75173,1.0859 -4.51145,1.07691 -1.04038,-0.006 -1.83512,-0.0945 -2.2479,-0.25219 z"
         style="fill:#000000;stroke-width:1.40609"
         id="path1-0" /><path
         d="m 94.710744,166.22686 c -0.126829,-0.21291 -0.205472,-5.61295 -0.160646,-11.03602 l 0.03993,-4.82893 h 1.694774 c 1.675848,0 1.693832,0.004 1.611281,0.35917 -0.04598,0.19755 -0.207666,0.86203 -0.359426,1.47662 -0.224242,0.90811 -0.289625,2.11605 -0.34899,6.44807 l -0.07312,5.33064 4.618553,-0.11628 4.61856,-0.11629 -0.27174,1.07951 c -0.19346,0.76851 -0.3613,1.11263 -0.58262,1.19449 -0.47202,0.17462 -10.689133,0.37246 -10.786603,0.20888 z m -15.232543,-2.77909 c -2.883973,-0.30368 -5.299058,-1.74325 -6.554429,-3.9069 -0.341567,-0.58869 -0.571898,-0.81106 -0.877634,-0.84728 l -0.414526,-0.0491 0.07043,1.32619 c 0.03874,0.72941 0.09723,1.59558 0.129979,1.92482 l 0.05954,0.59863 -1.541243,-0.003 c -0.847683,-0.002 -1.625293,-0.056 -1.728019,-0.1212 -0.134731,-0.0858 -0.205589,-1.69732 -0.254295,-5.7843 -0.03713,-3.11602 -0.123089,-5.82711 -0.19102,-6.02467 l -0.123497,-0.35917 h 2.950062 c 3.367095,0 4.206615,0.11994 5.646168,0.80703 1.487685,0.71 1.897054,1.37744 1.897054,3.093 0,1.94942 -0.560439,2.75152 -2.674283,3.82746 -0.702594,0.35762 -0.72346,0.47471 -0.217367,1.2195 0.758444,1.11616 2.687936,1.7485 5.335208,1.7485 h 1.105338 l -0.131187,0.67846 c -0.07214,0.37313 -0.134423,0.98374 -0.138219,1.35689 l -0.0071,0.67844 -0.598628,-0.0217 c -0.329248,-0.0112 -1.113353,-0.076 -1.742438,-0.14211 z m -5.342956,-7.53606 c 1.097158,-0.40807 1.458297,-0.773 1.458297,-1.47358 0,-1.1356 -1.761366,-2.38838 -2.899187,-2.06205 -0.818162,0.23463 -1.07718,0.75498 -1.116796,2.24354 -0.04314,1.621 0.112008,1.87496 1.050189,1.71891 0.358103,-0.0596 1.036471,-0.25163 1.507497,-0.42682 z m 92.689255,7.53693 c -2.25669,-0.24147 -3.7153,-0.85699 -5.18703,-2.18882 -0.54132,-0.48985 -1.20088,-1.27457 -1.4657,-1.7438 -0.37307,-0.66107 -0.56789,-0.85314 -0.86532,-0.85314 -0.35767,0 -0.38329,0.0571 -0.37565,0.83808 0.004,0.46095 0.0622,1.32297 0.12796,1.91563 l 0.11979,1.07752 -1.5248,-0.003 c -0.83865,-0.002 -1.60826,-0.0556 -1.71023,-0.12036 -0.13288,-0.0845 -0.20557,-1.7243 -0.25651,-5.78431 -0.0391,-3.11647 -0.12753,-5.83513 -0.19656,-6.04146 l -0.12542,-0.37514 3.49483,0.071 c 3.34203,0.0679 3.54075,0.0897 4.54467,0.49968 1.5978,0.65247 2.54194,1.82203 2.54194,3.14883 0,1.73023 -0.82792,3.02677 -2.45287,3.84119 -0.5386,0.26994 -1.00774,0.51674 -1.04254,0.54845 -0.15269,0.1392 0.84074,1.37582 1.40533,1.74945 0.7323,0.48461 2.57933,0.85511 4.30364,0.86328 l 1.17594,0.006 -0.10813,1.07753 c -0.0595,0.59265 -0.14454,1.20324 -0.18898,1.35689 -0.0887,0.30675 -0.3215,0.31899 -2.21436,0.11642 z m -6.25586,-7.27296 c 1.76402,-0.45711 2.33099,-0.88917 2.33975,-1.78301 0.004,-0.39494 -0.1452,-0.66909 -0.62432,-1.14819 -0.79601,-0.79602 -1.65667,-1.0802 -2.46424,-0.81369 -0.78365,0.25863 -0.93198,0.61097 -0.9563,2.27131 -0.027,1.84706 0.0401,1.90503 1.70511,1.47358 z m -41.63441,6.7094 c -1.81379,-1.24812 -3.2155,-2.96242 -4.72316,-5.77639 -0.38741,-0.72311 -0.78355,-1.31575 -0.88028,-1.31699 -0.19217,-0.003 -0.38369,1.904 -0.37668,3.74917 0.004,0.97732 0.2148,1.88113 0.68969,2.95324 0.0935,0.21093 -0.5926,0.2334 -5.75999,0.18861 -3.22633,-0.0279 -5.8876,-0.0724 -5.91393,-0.0987 -0.0263,-0.0263 -0.11445,-1.943 -0.19586,-4.25929 -0.0814,-2.31628 -0.18602,-5.05548 -0.23251,-6.08713 l -0.0845,-1.87569 h 4.09127 4.09129 l -0.11221,1.39679 c -0.0617,0.76825 -0.16366,1.44942 -0.22664,1.5137 -0.063,0.0642 -0.40783,-0.0283 -0.76631,-0.20559 -0.54639,-0.27033 -0.90692,-0.31504 -2.22973,-0.27652 l -1.57794,0.046 -0.0467,1.23718 -0.0467,1.23716 h 2.13501 2.135 l -0.0646,0.9179 c -0.0354,0.50484 -0.0923,1.00552 -0.12599,1.11262 -0.0432,0.13667 -0.6703,0.20805 -2.1037,0.23944 l -2.04219,0.0447 -0.0799,1.17324 c -0.0439,0.64527 -0.0353,1.24502 0.0191,1.33276 0.17065,0.27502 4.44009,0.0934 5.03883,-0.21439 0.61743,-0.31736 0.67765,-0.22318 0.71225,1.11368 0.0487,1.87943 0.25886,-1.36454 0.38362,-5.91951 l 0.12134,-4.42986 h 0.42519 c 0.23386,0 0.78812,0.10785 1.23168,0.23949 1.34279,0.39878 2.3553,1.57508 3.72381,4.32622 0.62887,1.2642 1.20032,2.29856 1.26987,2.29856 0.13724,0 0.25824,-1.39514 0.41989,-4.84214 l 0.10363,-2.20817 1.57619,0.0532 c 0.8669,0.0292 1.57627,0.0626 1.57637,0.074 1.1e-4,0.0112 -0.17198,0.47842 -0.38241,1.03762 -0.61603,1.63701 -0.79478,3.70766 -0.69016,7.99483 0.0699,2.86624 0.0464,3.79505 -0.0957,3.78842 -0.10364,-0.004 -0.54758,-0.25597 -0.98657,-0.55806 z m 24.58366,-0.0459 c -1.66135,-1.05737 -3.16615,-2.89979 -4.65627,-5.70092 -0.70393,-1.32326 -0.99456,-1.62589 -1.02705,-1.06954 -0.008,0.15365 -0.0617,0.67446 -0.11727,1.15735 -0.0556,0.4829 -0.10124,1.5245 -0.10138,2.31469 -3.4e-4,1.22073 0.0633,1.57325 0.4233,2.34492 l 0.4237,0.90819 -1.7028,-0.0921 c -0.93653,-0.0506 -1.70698,-0.10011 -1.71211,-0.10996 -0.006,-0.01 0.0603,-2.6938 0.14535,-5.96431 l 0.15466,-5.94638 h 0.50466 c 0.75701,0 1.8627,0.42714 2.53042,0.97753 0.81262,0.66983 1.75547,2.10202 2.67027,4.05618 0.42203,0.90147 0.83743,1.68238 0.92313,1.73534 0.0941,0.0581 0.19194,-0.42622 0.24692,-1.22123 0.0967,-1.39815 0.31803,-4.98595 0.33239,-5.38819 0.007,-0.19587 0.27673,-0.23717 1.48224,-0.22695 0.81053,0.007 1.51092,0.0498 1.55642,0.0952 0.0455,0.0455 -0.0194,0.32721 -0.1442,0.62603 -0.12486,0.29884 -0.35728,1.11801 -0.5166,1.82041 -0.24773,1.09208 -0.28524,1.93032 -0.25902,5.78673 0.0169,2.48032 -0.021,4.509 -0.0841,4.50816 -0.0631,-8.1e-4 -0.54581,-0.27584 -1.0726,-0.61112 z m 2.88655,-0.32078 c -0.60736,-0.14568 -1.13224,-0.3487 -1.16638,-0.45112 -0.0342,-0.10236 0.11699,-0.78462 0.33582,-1.516 0.21883,-0.73138 0.87285,-3.19751 1.45334,-5.48028 0.58052,-2.28275 1.09625,-4.28704 1.14609,-4.45394 0.0863,-0.28935 0.24257,-0.29915 3.3601,-0.21076 1.79822,0.0511 3.29289,0.11615 3.3215,0.14472 0.0286,0.0285 0.0704,0.55444 0.093,1.16856 l 0.041,1.11654 -1.07408,0.0474 c -1.29871,0.0573 -1.37703,0.17873 -0.92392,1.43239 0.73404,2.03096 2.28123,7.09277 2.19447,7.17951 -0.23477,0.23478 -2.28734,0.99861 -2.68345,0.99861 -0.44229,0 -0.4436,-0.003 -0.4436,-1.10415 0,-0.60955 -0.073,-1.12847 -0.16304,-1.15847 -0.25834,-0.0861 -3.18559,0.13048 -3.29924,0.24412 -0.0564,0.0564 -0.18177,0.58745 -0.27867,1.1802 -0.20564,1.25779 -0.22653,1.26721 -1.91295,0.86269 z m 5.17498,-4.51025 c 0,-0.15132 -0.83168,-3.16284 -1.0489,-3.79807 -0.12471,-0.36469 -0.22066,-0.13878 -0.71374,1.68 -0.65529,2.41726 -0.69002,2.29379 0.64521,2.29379 0.70673,0 1.11743,-0.0646 1.11743,-0.17572 z m -91.854907,4.12667 c -0.04385,-0.28534 -0.117493,-1.74001 -0.163685,-3.23259 -0.04619,-1.49258 -0.132539,-4.02478 -0.191905,-5.62711 l -0.107931,-2.91332 h 4.031663 4.031663 l -0.05579,1.42361 c -0.03068,0.78297 -0.1027,1.47041 -0.160048,1.52766 -0.05734,0.0573 -0.395697,-0.0446 -0.751903,-0.22636 -0.521388,-0.26599 -0.94551,-0.3304 -2.175542,-0.3304 -1.082966,0 -1.545873,0.0581 -1.589634,0.19954 -0.03396,0.10968 -0.105541,0.68444 -0.159069,1.27708 l -0.09733,1.07753 h 2.179462 2.179462 l -0.09978,0.49885 c -0.05488,0.27437 -0.09978,0.77722 -0.09978,1.11745 v 0.61858 h -1.986007 c -1.092304,0 -2.018378,0.0539 -2.057944,0.11965 -0.03957,0.0659 -0.09768,0.65849 -0.12915,1.31698 l -0.05722,1.19725 2.314696,-0.004 c 1.891591,-0.004 2.409531,-0.0556 2.833508,-0.28347 l 0.518811,-0.27871 v 1.52061 1.52064 h -4.063413 -4.06344 z m 26.029526,-2.63396 c -0.05779,-1.73403 -0.151619,-4.4997 -0.208397,-6.14592 l -0.103206,-2.99314 h 4.034604 4.034605 l -0.06848,1.43245 c -0.03769,0.78786 -0.111362,1.4753 -0.163683,1.52766 -0.05231,0.0523 -0.386646,-0.0534 -0.742851,-0.2352 -0.521391,-0.26599 -0.945524,-0.3304 -2.175558,-0.3304 -1.082956,0 -1.545868,0.0581 -1.589626,0.19954 -0.03402,0.10968 -0.105597,0.68444 -0.159071,1.27708 l -0.0973,1.07753 h 2.179466 2.179467 l -0.09983,0.49885 c -0.05484,0.27437 -0.09983,0.77722 -0.09983,1.11745 v 0.61858 h -1.986005 c -1.092306,0 -2.018385,0.0539 -2.057952,0.11965 -0.03951,0.0659 -0.09772,0.65849 -0.12922,1.31698 l -0.05723,1.19725 h 2.321932 c 1.942597,0 2.391547,-0.0457 2.748075,-0.27934 0.234381,-0.15366 0.464586,-0.27937 0.511577,-0.27937 0.04696,0 0.08549,0.68244 0.08549,1.51654 v 1.51652 h -4.125945 -4.125944 z m 45.006091,2.55415 c 0.0544,-0.24145 0.16093,-0.69041 0.23679,-0.99772 0.21204,-0.85884 0.30041,-2.91178 0.30488,-7.08193 l 0.004,-3.80941 1.66653,0.0618 c 0.9166,0.0339 1.70765,0.10279 1.75792,0.15306 0.0502,0.0503 -0.0477,0.40779 -0.21745,0.7945 -0.61373,1.39725 -0.73346,2.57607 -0.71594,7.04857 l 0.0167,4.27023 h -1.57619 -1.57621 z m -78.313555,0.13836 c -1.007511,-0.22036 -1.857961,-0.77516 -2.367538,-1.54449 -0.878097,-1.32568 -1.064597,-2.13505 -1.064597,-4.62004 0,-2.17796 0.01279,-2.26204 0.505165,-3.30117 0.668727,-1.41153 1.621337,-2.43134 2.574522,-2.75613 1.087868,-0.37067 2.250638,-0.4683 3.040791,-0.25531 1.218635,0.32851 2.602351,1.91863 2.959223,3.40066 0.24697,1.02563 -1.134278,2.35323 -2.448322,2.35323 -0.40904,0 -0.883151,-0.10546 -1.05358,-0.23438 -0.291637,-0.22057 -0.292709,-0.23466 -0.01822,-0.23945 0.443741,-0.008 1.224885,-0.87351 1.224885,-1.35761 0,-1.10039 -0.974432,-1.83658 -2.030139,-1.53381 -0.827899,0.23744 -1.460975,0.684 -1.705711,1.20317 -0.59705,1.26657 -0.689599,3.76685 -0.183184,4.94882 0.272381,0.63573 0.975057,1.284 1.736592,1.60211 0.57191,0.2389 0.643665,0.23631 1.11735,-0.0404 0.278407,-0.1626 0.664774,-0.57834 0.858593,-0.92388 0.317335,-0.56572 0.329256,-0.66353 0.119812,-0.98318 -0.127926,-0.19524 -0.232583,-0.39342 -0.232583,-0.4404 0,-0.047 0.790189,-0.0855 1.755977,-0.0855 0.965787,0 1.753692,0.0539 1.750899,0.11965 -0.0028,0.0659 -0.110547,0.25916 -0.239451,0.42959 -0.128911,0.17044 -0.234375,0.55043 -0.234375,0.84444 0,0.65605 -0.45498,1.57259 -1.071019,2.15751 -0.966743,0.91789 -3.560231,1.57022 -4.995082,1.25637 z m 71.835405,5.2e-4 c -2.34376,-0.51046 -3.6321,-2.99742 -3.48417,-6.72563 0.0536,-1.35056 0.12487,-1.65455 0.64541,-2.75054 0.81211,-1.71009 1.70324,-2.5516 3.06394,-2.8934 1.43909,-0.36149 2.13175,-0.3277 3.09205,0.15083 0.92963,0.46325 1.46901,1.03458 2.03936,2.16011 0.68038,1.34267 0.42113,2.19558 -0.91493,3.01015 -0.59401,0.36217 -1.7101,0.4309 -2.25569,0.13892 -0.33514,-0.17937 -0.3279,-0.19229 0.20925,-0.37316 1.28967,-0.43423 1.36825,-2.07624 0.12838,-2.6823 -0.50014,-0.24448 -0.69108,-0.26062 -1.2624,-0.10672 -1.47699,0.39773 -2.14282,1.83183 -2.03156,4.37572 0.0743,1.69709 0.34986,2.31451 1.33673,2.99417 0.99722,0.68679 1.37726,0.71335 2.02827,0.14176 0.30728,-0.2698 0.64887,-0.70822 0.75906,-0.97425 0.1706,-0.41186 0.16166,-0.52647 -0.0602,-0.77156 -0.14328,-0.15833 -0.2605,-0.33609 -0.2605,-0.39501 0,-0.0589 0.79788,-0.10714 1.77306,-0.10714 1.62703,0 1.76337,0.023 1.65537,0.27935 -0.0646,0.15365 -0.17626,0.62326 -0.24785,1.04357 -0.17266,1.01364 -0.74246,2.01373 -1.39951,2.45628 -1.24419,0.83804 -3.48836,1.3177 -4.81412,1.02895 z"
         style="fill:#000000;stroke-width:1.40609"
         id="path1-8" /><path
         d="m 66.589563,209.98733 c -1.474326,-0.46627 -2.522214,-1.37589 -3.144899,-2.72993 -0.318248,-0.69205 -0.367054,-1.05289 -0.367054,-2.71378 0,-1.77592 0.03267,-1.98215 0.447958,-2.82784 0.979747,-1.99516 2.845057,-2.93222 5.597226,-2.81184 1.207466,0.0528 1.640864,0.14543 2.385783,0.50988 1.064043,0.52059 1.70079,1.27411 1.818551,2.15205 0.10391,0.77445 -0.333947,1.30158 -1.081043,1.30158 -0.665292,0 -1.016111,-0.21442 -1.419996,-0.86792 -0.726611,-1.17567 -2.219582,-1.55054 -3.524353,-0.8849 -1.931206,0.98524 -2.346388,4.58419 -0.73341,6.35748 0.83088,0.91345 2.34281,1.13287 3.852458,0.55909 l 0.798167,-0.30338 0.04823,-0.83384 0.04823,-0.83384 h -0.942319 c -0.518284,0 -1.168558,-0.0789 -1.445052,-0.17525 -0.430123,-0.14995 -0.502719,-0.25316 -0.502719,-0.71468 0,-0.90764 0.44109,-1.06985 2.725831,-1.00239 2.514017,0.0743 2.542097,0.10165 2.542097,2.47922 0,0.91793 -0.07438,1.80801 -0.165371,1.97795 -0.199594,0.37297 -1.353782,0.97718 -2.537484,1.32839 -1.039157,0.30831 -3.473941,0.32709 -4.400872,0.0339 z m 10.814546,-0.0841 c -1.324266,-0.6164 -2.003801,-1.74714 -2.291037,-3.81226 -0.230514,-1.65734 0.03431,-3.6271 0.661706,-4.92144 0.791457,-1.63285 1.903082,-2.21685 4.016519,-2.11014 1.451506,0.0732 2.194413,0.50046 2.710744,1.55865 0.310394,0.63612 0.321192,0.74355 0.112346,1.11743 -0.180991,0.32392 -0.374202,0.42416 -0.890631,0.46205 -0.563448,0.0414 -0.702201,-0.0141 -0.952724,-0.37859 -0.555461,-0.80886 -0.998099,-1.18633 -1.391156,-1.18633 -0.630814,0 -1.341073,0.72085 -1.613221,1.63729 -0.365217,1.22981 -0.34601,1.26415 0.498262,0.89068 1.084727,-0.47983 2.529555,-0.36492 3.43256,0.27298 1.010992,0.71419 1.334477,1.46981 1.334477,3.11717 0,1.22675 -0.0457,1.4375 -0.440345,2.03398 -0.2422,0.36597 -0.739631,0.86357 -1.105397,1.10578 -0.575836,0.3813 -0.848631,0.44629 -2.033979,0.4846 -1.094908,0.0354 -1.504867,-0.0189 -2.048039,-0.27185 z m 2.65928,-1.69967 c 1.565808,-1.31753 0.341104,-4.47751 -1.379978,-3.5606 -1.271287,0.67729 -1.327812,2.6745 -0.102926,3.63798 0.556798,0.43798 0.891208,0.42053 1.482932,-0.0773 z m 6.421133,1.79233 c -0.798265,-0.96184 0.462294,-5.02314 2.434939,-7.84505 l 0.710384,-1.01622 -2.314479,-0.0515 c -2.072829,-0.0461 -2.338088,-0.0838 -2.540719,-0.36133 -0.297951,-0.40809 -0.287236,-0.96321 0.0246,-1.27507 0.212446,-0.21244 0.774685,-0.25085 3.671594,-0.25085 3.264336,0 3.436089,0.0153 3.756636,0.33591 0.482541,0.48254 0.314978,1.04203 -0.726456,2.4257 -1.166914,1.55037 -2.077132,3.53344 -2.396019,5.2201 -0.326691,1.72797 -0.556094,2.5817 -0.761412,2.83351 -0.219518,0.26923 -1.63261,0.25768 -1.859089,-0.0152 z m 8.898394,-0.035 c -2.421777,-0.7457 -2.995055,-4.41889 -0.874827,-5.60543 0.260268,-0.14566 0.243817,-0.19943 -0.195404,-0.63865 -0.641894,-0.64191 -0.887692,-1.5755 -0.656503,-2.4936 0.362855,-1.44102 1.560267,-2.17783 3.548366,-2.18345 2.376643,-0.007 3.627862,0.9948 3.625502,2.9019 -8e-4,0.87074 -0.28509,1.4983 -0.889742,1.96606 -0.301973,0.23359 -0.301917,0.23979 0.004,0.42193 0.816752,0.48631 1.363912,1.50072 1.363912,2.52869 0,1.4085 -1.09424,2.82897 -2.440403,3.16793 -0.974701,0.24544 -2.572834,0.21544 -3.484908,-0.0654 z m 2.548425,-1.5724 c 1.278109,-0.66093 1.143456,-2.64979 -0.217887,-3.2186 -1.00603,-0.42035 -2.043864,0.38311 -2.043864,1.58228 0,1.39214 1.139607,2.2166 2.261751,1.63632 z m 0.251606,-5.53326 c 0.541568,-0.64362 0.525357,-1.17729 -0.05329,-1.75601 -0.610721,-0.61072 -1.315129,-0.62751 -1.8557,-0.0442 -0.811159,0.87524 -0.227984,2.29138 0.943613,2.29138 0.420589,0 0.650625,-0.11698 0.965435,-0.49116 z m 6.299123,7.10566 c -2.42179,-0.7457 -2.99505,-4.41889 -0.87484,-5.60543 0.26028,-0.14566 0.24383,-0.19943 -0.19539,-0.63865 -0.64189,-0.64191 -0.88769,-1.5755 -0.6565,-2.4936 0.36284,-1.44102 1.56025,-2.17783 3.54837,-2.18345 2.37664,-0.007 3.62786,0.9948 3.62549,2.9019 -8.1e-4,0.87074 -0.28509,1.4983 -0.88975,1.96606 -0.30196,0.23359 -0.3019,0.23979 0.004,0.42193 0.81677,0.48631 1.36392,1.50072 1.36392,2.52869 0,1.4085 -1.09424,2.82897 -2.44039,3.16793 -0.9747,0.24544 -2.57285,0.21544 -3.48492,-0.0654 z m 2.54844,-1.5724 c 1.2781,-0.66093 1.14345,-2.64979 -0.21791,-3.2186 -1.00603,-0.42035 -2.04385,0.38311 -2.04385,1.58228 0,1.39214 1.1396,2.2166 2.26176,1.63632 z m 0.25159,-5.53326 c 0.54158,-0.64362 0.52537,-1.17729 -0.0533,-1.75601 -0.61072,-0.61072 -1.31511,-0.62751 -1.85569,-0.0442 -0.81116,0.87524 -0.22798,2.29138 0.94362,2.29138 0.42059,0 0.65062,-0.11698 0.96542,-0.49116 z m 8.01066,7.00878 c -0.21318,-0.30436 -0.25421,-0.91106 -0.25421,-3.75955 0,-1.86814 -0.0328,-3.39661 -0.0727,-3.39661 -0.0401,0 -0.33768,0.1798 -0.66152,0.39956 -1.28039,0.86889 -2.33481,0.86694 -2.55359,-0.004 -0.15378,-0.61273 0.008,-0.82564 1.02186,-1.33696 1.17239,-0.5918 1.81995,-1.13082 2.43825,-2.02949 0.42978,-0.62466 0.54852,-0.69998 1.10342,-0.69998 1.10991,0 1.11914,0.0455 1.11647,5.50298 -0.003,5.55652 -0.004,5.56563 -1.14405,5.63965 -0.61918,0.0402 -0.78111,-0.0112 -0.99391,-0.31488 z m 9.09914,0 c -0.21319,-0.30436 -0.2542,-0.91106 -0.2542,-3.75955 0,-1.86814 -0.0328,-3.39661 -0.0727,-3.39661 -0.0399,0 -0.33769,0.1798 -0.66152,0.39956 -1.28039,0.86889 -2.33481,0.86694 -2.55359,-0.004 -0.15378,-0.61273 0.008,-0.82564 1.02186,-1.33696 1.17238,-0.5918 1.81993,-1.13082 2.43825,-2.02949 0.42977,-0.62466 0.54851,-0.69998 1.10341,-0.69998 1.10991,0 1.11915,0.0455 1.11646,5.50298 -0.003,5.55652 -0.004,5.56563 -1.14403,5.63965 -0.6192,0.0402 -0.78111,-0.0112 -0.99391,-0.31488 z m 16.48679,0.0969 c -2.42179,-0.7457 -2.99507,-4.41889 -0.87484,-5.60543 0.26026,-0.14566 0.24381,-0.19943 -0.19541,-0.63865 -0.64189,-0.64191 -0.88768,-1.5755 -0.6565,-2.4936 0.36285,-1.44102 1.56026,-2.17783 3.54837,-2.18345 2.37665,-0.007 3.62787,0.9948 3.62549,2.9019 -8e-4,0.87074 -0.28508,1.4983 -0.88974,1.96606 -0.30196,0.23359 -0.3019,0.23979 0.004,0.42193 0.81676,0.48631 1.36392,1.50072 1.36392,2.52869 0,1.4085 -1.09424,2.82897 -2.4404,3.16793 -0.9747,0.24544 -2.57283,0.21544 -3.4849,-0.0654 z m 2.54842,-1.5724 c 1.27809,-0.66093 1.14346,-2.64979 -0.21791,-3.2186 -1.00602,-0.42035 -2.04385,0.38311 -2.04385,1.58228 0,1.39214 1.13961,2.2166 2.26176,1.63632 z m 0.25159,-5.53326 c 0.54158,-0.64362 0.52538,-1.17729 -0.0533,-1.75601 -0.61072,-0.61072 -1.31513,-0.62751 -1.8557,-0.0442 -0.81116,0.87524 -0.22798,2.29138 0.94363,2.29138 0.42059,0 0.65061,-0.11698 0.96541,-0.49116 z m -13.55885,6.80709 c -0.46983,-0.46984 -0.47893,-0.61173 -0.0928,-1.44709 0.2673,-0.5782 0.94815,-1.27543 4.03508,-4.13206 0.67404,-0.62374 0.93345,-0.98845 1.01598,-1.42839 0.14309,-0.76272 -0.12556,-1.40393 -0.74047,-1.76713 -0.83901,-0.49563 -1.84161,0.0403 -2.21998,1.18683 -0.27728,0.84016 -0.76849,1.183 -1.4987,1.046 -0.5987,-0.11234 -0.73447,-0.32473 -0.73447,-1.14918 0,-1.19541 0.96489,-2.41377 2.20615,-2.78565 0.89086,-0.26691 3.16201,-0.12782 3.9141,0.23959 0.90623,0.4428 1.43555,1.34305 1.514,2.57491 0.0879,1.38053 -0.32007,2.19286 -1.70033,3.38553 -0.58171,0.50267 -1.49035,1.32564 -2.01918,1.82882 l -0.96151,0.91487 2.02782,0.003 c 1.15193,0.002 2.19761,0.0804 2.42089,0.18211 0.48397,0.22052 0.62974,0.71072 0.37159,1.24965 l -0.19498,0.40706 -3.47414,0.043 -3.47413,0.043 z"
         style="fill:#000000;stroke-width:1.40609"
         id="path1-1" /><path
         d="m 30.12713,188.93395 c -0.109323,-0.10939 -0.198755,-0.31883 -0.198755,-0.46559 0,-0.32613 2.16327,-5.83303 2.488198,-6.33405 0.276441,-0.42624 1.334836,-0.50419 1.712884,-0.12613 0.128165,0.1281 0.794758,1.64092 1.481309,3.36167 1.368729,3.43052 1.387104,3.62768 0.346424,3.71708 -0.546473,0.047 -0.574877,0.0214 -0.931103,-0.83807 l -0.367436,-0.88651 h -1.335662 -1.335661 l -0.235176,0.59863 c -0.129345,0.32924 -0.294555,0.70637 -0.367131,0.83808 -0.168616,0.30598 -0.997879,0.39492 -1.257891,0.13485 z m 4.070365,-2.8886 c -0.04134,-0.10981 -0.238239,-0.64851 -0.437556,-1.19726 -0.199314,-0.54874 -0.406881,-0.9977 -0.461259,-0.9977 -0.105133,0 -0.816159,1.93826 -0.816159,2.22488 0,0.0995 0.369635,0.16963 0.895068,0.16963 0.649717,0 0.874465,-0.0547 0.819906,-0.19955 z m 4.530156,2.8 c -0.703834,-0.34673 -1.156166,-1.0875 -1.100516,-1.80229 0.04055,-0.52093 0.08034,-0.55871 0.588496,-0.55871 0.458293,0 0.593561,0.0889 0.850238,0.55871 0.41394,0.75769 0.712472,0.95781 1.428874,0.95781 1.008697,0 1.603755,-0.89707 0.997323,-1.50351 -0.137079,-0.13709 -0.65789,-0.36181 -1.157349,-0.4994 -2.075249,-0.57168 -2.637477,-1.0456 -2.637477,-2.22316 0,-0.87282 0.260813,-1.29767 1.040938,-1.69567 0.540948,-0.27597 0.878339,-0.32555 1.899497,-0.27917 1.368487,0.0621 1.961319,0.355 2.358177,1.16497 0.509232,1.03931 -0.750536,1.74891 -1.359423,0.76573 -0.407778,-0.65846 -0.694476,-0.83809 -1.337601,-0.83809 -0.561722,0 -1.111669,0.3691 -1.111669,0.7461 0,0.34145 0.635809,0.71021 1.763334,1.02265 1.976355,0.54767 2.480373,1.02383 2.451899,2.31634 -0.03102,1.40776 -1.053446,2.14301 -2.97171,2.13702 -0.756535,-0.003 -1.352411,-0.0966 -1.703031,-0.26933 z m 7.202496,-0.0638 c -1.490308,-0.73767 -2.146502,-2.72941 -1.555212,-4.72051 0.480816,-1.61908 1.451411,-2.27881 3.352654,-2.27881 2.308125,0 3.593385,1.27733 3.590881,3.56869 -0.0018,1.70001 -0.647953,2.93148 -1.816372,3.46209 -0.940633,0.42716 -2.676327,0.41187 -3.571951,-0.0315 z m 2.791834,-1.19198 c 0.560161,-0.36228 0.904286,-1.17272 0.910381,-2.14405 0.0069,-1.10524 -0.415448,-1.88533 -1.24069,-2.29137 -0.542407,-0.26689 -0.66397,-0.27446 -1.190275,-0.0741 -0.877993,0.33415 -1.309656,1.08276 -1.309353,2.2707 3.1e-4,1.21754 0.36553,1.9938 1.117192,2.37458 0.591649,0.29971 1.10201,0.25927 1.712745,-0.13568 z m 5.136726,1.15736 c -1.820666,-0.96128 -2.240165,-4.37462 -0.735843,-5.98733 1.275753,-1.36769 4.191405,-1.31202 5.196286,0.0993 0.444653,0.62446 0.453246,1.40053 0.01808,1.63342 -0.464559,0.24863 -0.80901,0.0777 -1.312729,-0.65149 -0.545441,-0.78956 -1.085559,-1.02227 -1.814416,-0.78173 -0.790429,0.26085 -1.233889,0.98908 -1.30764,2.1473 -0.106146,1.66704 0.612437,2.71631 1.836474,2.68161 0.641239,-0.0181 1.081398,-0.36978 1.507132,-1.20393 0.337293,-0.66088 0.871935,-0.80111 1.325401,-0.34764 0.52069,0.52069 -0.23418,2.01652 -1.250576,2.47813 -0.967458,0.43937 -2.560965,0.40829 -3.462176,-0.0675 z m 6.236584,-0.038 c -0.08563,-0.22522 -0.155682,-1.69316 -0.155682,-3.26212 0,-3.34317 0.07767,-3.67157 0.868421,-3.67157 0.387364,0 0.607393,0.0941 0.722305,0.30877 0.0974,0.18198 0.16525,1.56286 0.16525,3.3628 0,1.79996 -0.06786,3.18085 -0.16525,3.36282 -0.11492,0.21471 -0.334941,0.30878 -0.722305,0.30878 -0.451078,0 -0.586673,-0.0779 -0.712739,-0.40948 z m 2.756856,0.22512 c -0.109309,-0.1094 -0.198756,-0.31884 -0.198756,-0.46559 0,-0.32614 2.16327,-5.83304 2.488199,-6.33405 0.276441,-0.42624 1.334836,-0.5042 1.712884,-0.12613 0.128165,0.1281 0.794757,1.64092 1.48131,3.36167 1.368728,3.43051 1.387103,3.62768 0.346423,3.71707 -0.546473,0.047 -0.574877,0.0214 -0.931104,-0.83807 l -0.367436,-0.88651 h -1.335661 -1.335661 l -0.235177,0.59863 c -0.129346,0.32925 -0.294555,0.70638 -0.36713,0.83809 -0.168616,0.30597 -0.99788,0.39491 -1.257891,0.13484 z m 4.070363,-2.88861 c -0.04134,-0.10981 -0.238238,-0.64851 -0.437554,-1.19726 -0.199315,-0.54873 -0.406881,-0.99769 -0.461259,-0.99769 -0.105147,0 -0.816159,1.93826 -0.816159,2.22487 0,0.0996 0.369633,0.16964 0.895068,0.16964 0.649717,0 0.874463,-0.0547 0.819904,-0.19956 z m 4.495957,2.7015 c -1.820662,-0.96129 -2.24016,-4.37463 -0.735835,-5.98734 1.275745,-1.36769 4.191398,-1.31203 5.196287,0.0993 0.444648,0.62445 0.453239,1.40053 0.01814,1.63342 -0.464558,0.24862 -0.809008,0.0777 -1.312739,-0.6515 -0.545436,-0.78956 -1.085557,-1.02227 -1.814417,-0.78173 -0.79042,0.26086 -1.233886,0.98909 -1.307636,2.14732 -0.106159,1.66702 0.612437,2.71631 1.83648,2.6816 0.641233,-0.0182 1.081395,-0.36979 1.507131,-1.20393 0.337291,-0.66088 0.871929,-0.80111 1.325393,-0.34764 0.520689,0.52068 -0.234171,2.01653 -1.250575,2.47813 -0.96746,0.43938 -2.560953,0.40828 -3.462172,-0.0675 z m 6.236596,-0.038 c -0.08563,-0.22522 -0.155696,-1.69316 -0.155696,-3.26212 0,-3.34317 0.07761,-3.67158 0.868429,-3.67158 0.387364,0 0.607386,0.0941 0.722305,0.30877 0.09744,0.18198 0.165244,1.56286 0.165244,3.36281 0,1.79995 -0.06791,3.18084 -0.165244,3.36282 -0.114877,0.21471 -0.334941,0.30878 -0.722305,0.30878 -0.451074,0 -0.586677,-0.0779 -0.712733,-0.40948 z m 4.512054,0.0726 c -1.490314,-0.73768 -2.146508,-2.72942 -1.555219,-4.72051 0.480826,-1.61908 1.451422,-2.27881 3.352666,-2.27881 2.308123,0 3.593373,1.27732 3.59087,3.56868 -0.0014,1.70001 -0.647954,2.93149 -1.816372,3.46209 -0.940632,0.42716 -2.676322,0.41187 -3.571945,-0.0315 z m 2.791833,-1.19198 c 0.560158,-0.36229 0.904284,-1.17272 0.910387,-2.14405 0.0071,-1.10525 -0.415458,-1.88533 -1.240691,-2.29138 -0.542414,-0.26689 -0.66397,-0.27445 -1.190284,-0.0741 -0.87799,0.33416 -1.309659,1.08277 -1.30935,2.27069 3.09e-4,1.21756 0.365527,1.99381 1.117194,2.37459 0.59164,0.29971 1.102009,0.25928 1.712744,-0.13568 z m 3.880061,1.22006 c -0.09772,-0.18255 -0.165243,-1.58085 -0.165243,-3.42074 0,-3.47193 0.04106,-3.61366 1.047367,-3.61366 0.524528,0 0.604436,0.088 2.063844,2.27393 l 1.51817,2.27394 v -1.96516 c 0,-1.08084 0.07438,-2.10412 0.165257,-2.27393 0.209564,-0.39158 1.189664,-0.43291 1.334196,-0.0562 0.192691,0.50213 0.107706,6.69675 -0.09463,6.8991 -0.203405,0.20342 -0.895173,0.25458 -1.306721,0.0966 -0.135969,-0.0522 -0.878215,-1.07365 -1.6493,-2.26987 l -1.401984,-2.17496 -0.04486,2.05997 c -0.02587,1.185 -0.118955,2.14914 -0.219096,2.26989 -0.267763,0.32263 -1.054722,0.26022 -1.246921,-0.0989 z m 11.473259,-0.0627 c -1.82068,-0.96128 -2.240172,-4.37462 -0.735854,-5.98733 1.275764,-1.36769 4.191414,-1.31202 5.196284,0.0993 0.44465,0.62446 0.45325,1.40053 0.0181,1.63342 -0.46456,0.24863 -0.80901,0.0777 -1.31272,-0.65149 -0.54544,-0.78956 -1.08556,-1.02227 -1.81442,-0.78173 -0.79043,0.26085 -1.23388,0.98908 -1.30763,2.1473 -0.10616,1.66704 0.61243,2.71631 1.83646,2.68161 0.64125,-0.0181 1.08141,-0.36978 1.50713,-1.20393 0.33729,-0.66088 0.87194,-0.80111 1.32541,-0.34764 0.52068,0.52069 -0.23419,2.01652 -1.25058,2.47813 -0.96746,0.43937 -2.56096,0.40829 -3.46217,-0.0675 z m 6.43567,0.1229 c -0.3464,-0.24262 -0.35478,-0.32353 -0.35478,-3.42309 0,-3.93462 -0.20344,-3.67157 2.83961,-3.67157 1.17153,0 2.26898,0.0744 2.43881,0.16524 0.37226,0.19923 0.40996,0.87922 0.0562,1.01493 -0.13892,0.0533 -1.00091,0.0969 -1.91561,0.0969 h -1.66311 v 0.79818 0.79817 h 1.58494 c 1.22801,0 1.64144,0.0565 1.83579,0.25084 0.13794,0.13794 0.25086,0.31243 0.25086,0.38769 0,0.0752 -0.1129,0.24972 -0.25086,0.38768 -0.19435,0.19437 -0.60778,0.25085 -1.83579,0.25085 h -1.58494 v 0.95782 0.9578 h 1.80387 c 1.85667,0 2.18698,0.10039 2.18698,0.66485 0,0.4913 -0.55843,0.61223 -2.8274,0.61223 -1.74172,0 -2.28501,-0.0526 -2.56463,-0.24852 z m 6.54872,0.0642 c -0.24217,-0.24216 -0.28108,-6.46219 -0.0427,-6.83964 0.1136,-0.17999 0.54525,-0.25296 1.73827,-0.29385 2.0134,-0.0691 3.25588,0.17367 3.68546,0.71978 0.7734,0.98323 0.52406,2.42894 -0.51159,2.96638 l -0.59711,0.30989 0.54902,0.6414 c 1.31061,1.53117 1.44572,2.68031 0.31512,2.68031 -0.51558,0 -0.60694,-0.0781 -1.15173,-0.98321 -0.86632,-1.43946 -1.46295,-2.05592 -2.02843,-2.09584 l -0.47891,-0.0337 -0.0798,1.51652 -0.0799,1.51653 -0.55941,0.0472 c -0.30767,0.026 -0.64888,-0.0423 -0.75826,-0.15164 z m 3.86042,-4.37672 c 0.13793,-0.13794 0.25084,-0.42017 0.25084,-0.62713 0,-0.66297 -0.39372,-0.87799 -1.60774,-0.87799 h -1.10604 v 0.87799 0.87799 h 1.10604 c 0.79264,0 1.17711,-0.071 1.3569,-0.25086 z m 6.0332,4.31247 c -0.34641,-0.24262 -0.35481,-0.32352 -0.35481,-3.42308 0,-3.93463 -0.20343,-3.67157 2.83963,-3.67157 1.17151,0 2.26898,0.0744 2.4388,0.16524 0.37227,0.19922 0.40997,0.87921 0.0562,1.01493 -0.13892,0.0533 -1.00091,0.0969 -1.91562,0.0969 h -1.66311 v 0.79818 0.79816 h 1.58495 c 1.22801,0 1.64143,0.0565 1.83579,0.25085 0.13793,0.13794 0.25086,0.31243 0.25086,0.38768 0,0.0752 -0.11291,0.24973 -0.25086,0.38769 -0.19436,0.19437 -0.60778,0.25085 -1.83579,0.25085 h -1.58495 v 0.95782 0.95779 h 1.80388 c 1.85667,0 2.18699,0.1004 2.18699,0.66486 0,0.4913 -0.55846,0.61222 -2.82741,0.61222 -1.74172,0 -2.28501,-0.0526 -2.56464,-0.24851 z m 6.82873,0.13218 c -0.13174,-0.0502 -0.29222,-0.17018 -0.35672,-0.26677 -0.0646,-0.0966 -0.11839,-1.62147 -0.11966,-3.38864 -0.003,-3.55415 0.0198,-3.63504 0.98484,-3.5424 l 0.52924,0.0507 0.0799,2.95323 0.0798,2.95324 1.75598,0.0799 c 1.71508,0.0781 1.75727,0.0889 1.81105,0.46995 0.0959,0.67935 -0.31342,0.80839 -2.52,0.79452 -1.10265,-0.007 -2.11257,-0.0536 -2.24429,-0.10377 z m 8.65578,-0.13218 c -0.3464,-0.24262 -0.35479,-0.32352 -0.35479,-3.42308 0,-3.93463 -0.20344,-3.67157 2.83962,-3.67157 1.17151,0 2.26897,0.0744 2.4388,0.16524 0.37226,0.19922 0.40996,0.87921 0.0562,1.01493 -0.13892,0.0533 -1.00091,0.0969 -1.91561,0.0969 h -1.66311 v 0.79818 0.79816 h 1.58495 c 1.22801,0 1.64142,0.0565 1.83578,0.25085 0.13794,0.13794 0.25087,0.31243 0.25087,0.38768 0,0.0752 -0.11291,0.24973 -0.25087,0.38769 -0.19436,0.19437 -0.60777,0.25085 -1.83578,0.25085 h -1.58495 v 0.95782 0.95779 h 1.80387 c 1.85667,0 2.18699,0.1004 2.18699,0.66486 0,0.4913 -0.55843,0.61222 -2.8274,0.61222 -1.74173,0 -2.28501,-0.0526 -2.56464,-0.24851 z m 6.5151,-0.0603 c -0.0977,-0.18255 -0.16526,-1.58085 -0.16526,-3.42073 0,-3.47193 0.041,-3.61366 1.04737,-3.61366 0.52454,0 0.60445,0.088 2.06384,2.27392 l 1.51819,2.27394 v -1.96516 c 0,-1.08083 0.0744,-2.10412 0.16525,-2.27393 0.20957,-0.39158 1.18967,-0.4329 1.33421,-0.0562 0.19267,0.50213 0.1077,6.69675 -0.0946,6.8991 -0.20342,0.20343 -0.89517,0.25459 -1.30671,0.0966 -0.13612,-0.0522 -0.87823,-1.07365 -1.64932,-2.26987 l -1.40199,-2.17497 -0.0448,2.05998 c -0.0259,1.185 -0.11882,2.14913 -0.21908,2.26988 -0.26778,0.32264 -1.05472,0.26022 -1.24692,-0.0988 z m 8.91909,-0.0627 c -1.82065,-0.96129 -2.24015,-4.37463 -0.73583,-5.98735 1.27574,-1.36768 4.19141,-1.31202 5.19629,0.0993 0.44465,0.62445 0.45324,1.40053 0.0181,1.63342 -0.46455,0.24862 -0.80901,0.0777 -1.31273,-0.6515 -0.54544,-0.78956 -1.08555,-1.02227 -1.81442,-0.78173 -0.79043,0.26086 -1.23389,0.98909 -1.30764,2.14732 -0.10616,1.66702 0.61243,2.71631 1.83648,2.6816 0.64125,-0.0182 1.0814,-0.36979 1.50713,-1.20393 0.33729,-0.66088 0.87193,-0.80111 1.32541,-0.34764 0.52069,0.52068 -0.23419,2.01653 -1.25058,2.47813 -0.96746,0.43937 -2.56097,0.40828 -3.46219,-0.0675 z m 6.07696,-0.038 c -0.0856,-0.22521 -0.15568,-1.69315 -0.15568,-3.26211 0,-3.34317 0.0777,-3.67158 0.86843,-3.67158 0.38736,0 0.60739,0.0941 0.72231,0.30877 0.0974,0.18198 0.16524,1.56286 0.16524,3.36281 0,1.79995 -0.0679,3.18084 -0.16524,3.36281 -0.11488,0.21472 -0.33495,0.30879 -0.72231,0.30879 -0.45107,0 -0.58668,-0.0779 -0.71275,-0.40949 z m 3.20225,0.10068 c -0.0977,-0.18255 -0.16524,-1.58085 -0.16524,-3.42073 0,-3.47194 0.041,-3.61366 1.04737,-3.61366 0.52453,0 0.60444,0.088 2.06385,2.27392 l 1.51818,2.27394 v -1.96516 c 0,-1.08084 0.0744,-2.10412 0.16524,-2.27393 0.20957,-0.39158 1.18966,-0.43291 1.3342,-0.0562 0.19269,0.50213 0.10771,6.69675 -0.0946,6.8991 -0.20341,0.20342 -0.89517,0.25458 -1.30672,0.0966 -0.13597,-0.0522 -0.87821,-1.07365 -1.6493,-2.26986 l -1.40199,-2.17497 -0.0448,2.05997 c -0.0258,1.185 -0.11896,2.14914 -0.2191,2.26988 -0.26776,0.32265 -1.05472,0.26023 -1.24692,-0.0988 z m 7.21706,0.12444 c -0.10925,-0.1094 -0.19875,-0.31883 -0.19875,-0.46558 0,-0.32615 2.16327,-5.83304 2.48818,-6.33406 0.27646,-0.42624 1.33485,-0.5042 1.71289,-0.12612 0.12824,0.12809 0.79476,1.64092 1.48131,3.36166 1.36873,3.43052 1.38711,3.62768 0.34642,3.71708 -0.54646,0.047 -0.57487,0.0214 -0.93109,-0.83807 l -0.36745,-0.88651 h -1.33565 -1.33566 l -0.23518,0.59863 c -0.12936,0.32925 -0.29455,0.70638 -0.36713,0.83808 -0.16862,0.30598 -0.99788,0.39492 -1.25789,0.13485 z m 4.07036,-2.8886 c -0.0413,-0.10982 -0.23823,-0.64852 -0.43755,-1.19726 -0.19933,-0.54874 -0.40689,-0.9977 -0.46127,-0.9977 -0.10517,0 -0.81615,1.93827 -0.81615,2.22488 0,0.0995 0.36964,0.16963 0.89507,0.16963 0.64971,0 0.87445,-0.0547 0.8199,-0.19955 z m 3.59218,2.8887 c -0.24214,-0.24216 -0.28108,-6.46219 -0.0427,-6.83964 0.11362,-0.18 0.54526,-0.25296 1.73828,-0.29385 2.0134,-0.0691 3.25591,0.17367 3.68547,0.71978 0.7734,0.98322 0.52407,2.42894 -0.5116,2.96638 l -0.59711,0.30989 0.54902,0.6414 c 1.31062,1.53117 1.44571,2.68031 0.31512,2.68031 -0.51558,0 -0.60693,-0.0781 -1.15173,-0.98321 -0.86632,-1.43946 -1.46293,-2.05592 -2.02844,-2.09585 l -0.47889,-0.0337 -0.0798,1.51652 -0.0799,1.51653 -0.55941,0.0472 c -0.30766,0.026 -0.64888,-0.0423 -0.75826,-0.15164 z m 3.86041,-4.37673 c 0.13794,-0.13793 0.25086,-0.42016 0.25086,-0.62713 0,-0.66296 -0.39372,-0.87799 -1.60774,-0.87799 h -1.10605 v 0.87799 0.87799 h 1.10605 c 0.79264,0 1.1771,-0.071 1.35688,-0.25086 z m -98.707301,-3.54012 c 0.288318,-0.75833 0.6165,-0.99801 1.366564,-0.99801 0.3815,0 0.693624,0.0635 0.693624,0.14106 0,0.0777 -0.287559,0.40085 -0.638997,0.71836 -0.432246,0.3905 -0.792529,0.57729 -1.113496,0.57729 -0.45158,0 -0.466443,-0.0212 -0.307695,-0.4387 z"
         style="fill:#000000;stroke-width:1.40609"
         id="path1-06" /></g><g
       id="g2"
       transform="translate(312.79142,-67.73333)"
       style="fill:#808080"><path
         d="m -29.544425,125.99186 c -0.0576,-0.0105 -0.562881,-0.0681 -1.122401,-0.12933 -0.559599,-0.0612 -1.222639,-0.13928 -1.47352,-0.17339 -1.18052,-0.16064 -1.535319,-0.199 -1.878599,-0.203 -0.328801,-0.004 -0.377201,0.0148 -0.434521,0.16503 -0.036,0.0932 -0.1216,0.18697 -0.1912,0.20837 -0.203999,0.0627 -2.19304,-0.15201 -2.79308,-0.30141 -0.1544,-0.0384 -0.5964,-0.13428 -0.98232,-0.21299 -0.90488,-0.18456 -1.44972,-0.3114 -1.92952,-0.44921 -0.2124,-0.061 -0.60696,-0.17424 -0.87708,-0.25181 -0.72504,-0.20816 -1.994001,-0.63212 -2.31544,-0.77364 -0.1544,-0.0679 -0.40692,-0.16295 -0.56128,-0.21116 -0.3848,-0.12007 -2.53996,-1.17637 -3.227601,-1.58181 -0.591719,-0.34887 -1.623479,-1.02572 -2.057599,-1.34982 -1.02168,-0.76275 -2.623241,-2.26798 -3.268161,-3.07158 -0.869079,-1.08287 -1.04376,-1.31457 -1.42612,-1.89213 -0.778359,-1.1757 -1.5906,-2.65268 -1.92084,-3.49292 -0.0792,-0.20136 -0.1864,-0.46087 -0.237999,-0.57664 -0.473001,-1.05918 -1.076601,-2.94334 -1.37112,-4.28005 -0.03201,-0.15437 -0.111601,-0.4859 -0.172801,-0.73673 -0.06079,-0.25085 -0.142399,-0.62973 -0.1812,-0.84198 -0.04,-0.21224 -0.100398,-0.54378 -0.1376,-0.73673 -0.175199,-0.90707 -0.3328,-2.17433 -0.384,-3.08715 -0.02,-0.34729 -0.05,-0.6788 -0.068,-0.73674 -0.016,-0.058 -0.0816,-0.52999 -0.142,-1.04902 -0.1692,-1.459954 -0.2016,-1.405464 -0.41912,0.70647 -0.0928,0.90228 -0.188,1.73524 -0.2112,1.851 -0.024,0.11576 -0.0872,0.60517 -0.1424,1.08757 -0.114,0.99758 -0.196,1.48595 -0.3008,1.78919 -0.04,0.11576 -0.134801,0.58938 -0.2112,1.05247 -0.076,0.46309 -0.1756,0.96828 -0.221201,1.12265 -0.0452,0.15436 -0.0984,0.35955 -0.117999,0.45606 -0.02,0.0965 -0.0616,0.23856 -0.0932,0.31572 -0.0992,0.24225 -0.563321,1.71227 -0.563321,1.785 0,0.038 -0.206,0.56417 -0.457879,1.16896 -1.460641,3.50769 -3.457881,6.30701 -6.02328,8.4421 -0.8402,0.69928 -1.08428,0.88114 -1.90472,1.41933 -1.77104,1.16175 -3.85844,2.16198 -5.822481,2.78999 -0.385999,0.1234 -0.7648,0.25148 -0.84196,0.28463 -0.1296,0.0556 -0.9476,0.29229 -1.84528,0.53378 -0.2044,0.055 -0.43376,0.1 -0.50964,0.1 -0.0756,0 -0.1928,0.0288 -0.2596,0.0643 -0.0672,0.0356 -0.3588,0.10061 -0.648079,0.14492 -0.289601,0.0443 -0.641761,0.11048 -0.782961,0.14705 -0.1412,0.0364 -0.47276,0.0632 -0.73676,0.0593 -0.264,-0.004 -0.59028,0.0273 -0.72508,0.0693 -0.1348,0.042 -0.387599,0.0764 -0.56176,0.0764 -0.174,0 -0.42404,0.0308 -0.5552,0.0684 -0.2208,0.0633 -0.2556,0.0502 -0.46844,-0.17541 -0.2608,-0.27651 -0.41264,-0.29632 -1.31172,-0.17131 -0.2868,0.04 -0.7862,0.10176 -1.11012,0.13747 -0.324,0.0356 -1.121801,0.12429 -1.773,0.19677 -0.651201,0.0725 -1.26688,0.11963 -1.368201,0.10479 -0.478999,-0.0702 -0.76668,-0.2044 -1.078839,-0.50306 -0.280401,-0.26833 -0.333201,-0.36021 -0.333201,-0.57928 0,-0.28996 0.239201,-0.63223 0.552161,-0.79048 0.2776,-0.14036 0.81888,-0.24448 1.46636,-0.28217 0.3192,-0.0184 0.61904,-0.058 0.66656,-0.0879 0.0476,-0.0296 0.68632,-0.11213 1.419559,-0.18296 2.192641,-0.21184 2.101281,-0.19361 2.127721,-0.4248 0.012,-0.10951 -0.02,-0.25159 -0.074,-0.31576 -0.1584,-0.19064 -0.2644,-0.49291 -0.2644,-0.75485 0,-0.33363 -0.1752,-0.64826 -0.3912,-0.7025 -0.098,-0.0244 -0.3264,-0.0207 -0.50744,0.008 -0.1808,0.0292 -0.50272,0.0509 -0.715,0.0482 -0.5844,-0.007 -2.82176,-0.002 -4.28004,0.0105 l -1.29804,0.0112 -0.405241,-0.20852 c -0.471999,-0.24287 -0.731559,-0.49124 -0.814119,-0.77909 -0.0808,-0.28131 0.1772,-0.67968 0.570519,-0.88192 0.358401,-0.18408 1.320681,-0.24608 4.157081,-0.26772 1.00336,-0.007 2.04528,-0.0352 2.315439,-0.0609 l 0.491121,-0.047 -0.012,-0.21048 c -0.008,-0.11576 -0.0588,-0.41572 -0.116,-0.66657 -0.0572,-0.25084 -0.138,-0.62428 -0.18,-0.82985 -0.0416,-0.20557 -0.09161,-0.39865 -0.11,-0.42899 -0.0756,-0.12224 -2.15452,-0.19552 -3.054721,-0.10768 -0.135199,0.0132 -0.880679,0.03 -1.656919,0.0372 -1.40528,0.0132 -1.413,0.0124 -1.789241,-0.17624 -0.668799,-0.33528 -0.885119,-0.65348 -0.757759,-1.11471 0.1584,-0.57443 0.83736,-0.81521 2.32028,-0.82306 0.5536,-0.003 1.38548,-0.0328 1.84856,-0.0666 0.46308,-0.0336 1.27624,-0.0725 1.80704,-0.0862 0.59464,-0.0152 0.99564,-0.0555 1.044799,-0.10469 0.0976,-0.0977 -0.01999,-1.86238 -0.1356,-1.9999 -0.0696,-0.0844 0.0021,-1.59834 0.088,-1.87071 0.01999,-0.0616 0.06759,-0.38036 0.1072,-0.70824 0.04,-0.32788 0.104401,-0.83296 0.1444,-1.12239 0.0404,-0.2894 0.0812,-0.60516 0.0912,-0.70165 0.03201,-0.32391 0.471841,-2.13317 0.687961,-2.84167 0.2792,-0.91502 0.7466,-2.34749 0.824239,-2.52593 0.03201,-0.0771 0.160001,-0.38632 0.281201,-0.68696 l 0.219999,-0.54665 -0.112399,-0.61109 c -0.062,-0.33611 -0.1416,-0.80842 -0.1772,-1.049604 -0.1304,-0.88172 -0.1988,-1.32533 -0.2728,-1.77166 -0.102002,-0.61705 -0.2056,-1.38648 -0.2832,-2.10495 -0.036,-0.328 -0.0984,-0.86478 -0.1396,-1.19279 -0.104401,-0.82382 -0.2236,-2.11948 -0.245601,-2.66627 -0.012,-0.25084 -0.0528,-0.7876 -0.0956,-1.1928 -0.3052,-2.9138 -0.307599,-6.60452 -0.008,-9.12142 0.204399,-1.70778 0.500399,-3.19189 0.72412,-3.63335 0.2228,-0.43968 0.583119,-0.75452 1.00784,-0.88066 0.3464,-0.10288 0.57332,-0.0799 1.66612,0.169 1.9644,0.44744 5.05712,2.13244 7.7174,4.20468 0.3716,0.2894 0.78856,0.61279 0.9266,0.71859 0.56632,0.43392 3.11856,2.74957 3.72276,3.37767 0.3768,0.39184 0.70564,0.67494 0.78356,0.67494 0.074,0 0.286801,-0.0657 0.47336,-0.14604 0.52676,-0.22688 2.207481,-0.76609 2.38792,-0.76609 0.064,0 0.213201,-0.0304 0.332,-0.0679 1.84192,-0.58022 5.21724,-0.93259 7.372281,-0.76964 1.83444,0.13872 3.99812,0.43939 4.24072,0.58931 0.036,0.0224 0.2496,0.0735 0.47376,0.1132 0.224,0.0396 0.64432,0.14504 0.9338,0.23404 0.2896,0.089 0.71568,0.2184 0.9472,0.28756 0.2316,0.0692 0.64728,0.21572 0.92384,0.32564 0.2764,0.10992 0.55536,0.19984 0.61956,0.19984 0.064,0 0.53252,-0.41974 1.04076,-0.93276 1.11548,-1.12595 2.7442,-2.5863 3.69412,-3.3122 0.202,-0.15436 0.63008,-0.4859 0.95124,-0.73674 1.45816,-1.13877 2.92484,-2.05712 4.755361,-2.97751 0.803679,-0.4041 1.785639,-0.79693 1.82696,-0.73089 0.0672,0.10752 0.257199,1.05378 0.222799,1.10954 -0.024,0.0392 -0.008,0.18984 0.03201,0.33508 0.0428,0.1452 0.1232,0.76456 0.179199,1.37629 0.056,0.61172 0.1192,1.14059 0.1404,1.17525 0.0812,0.13104 0.26,0.049 0.924761,-0.42417 0.3764,-0.26796 0.77936,-0.55241 0.89512,-0.63211 0.1156,-0.0797 0.49212,-0.3508 0.83632,-0.60249 0.344399,-0.25168 0.65116,-0.43227 0.68216,-0.40131 0.0572,0.0571 0.156,0.62091 0.2708,1.54572 0.036,0.28056 0.0812,0.53859 0.1024,0.57336 0.1828,0.29561 0.1832,8.90304 7.2e-4,9.19858 -0.02,0.03 -0.0668,0.42839 -0.107201,0.88531 -0.07039,0.79309 -0.129199,1.42154 -0.2712,2.90063 -0.036,0.3666 -0.1,0.90337 -0.1444,1.1928 -0.0444,0.2894 -0.112399,0.77883 -0.151599,1.08756 -0.126001,0.99245 -0.1928,1.46474 -0.262,1.85936 -0.1932,1.10102 -0.2812,1.702274 -0.323601,2.210184 -0.04399,0.52538 -0.032,0.59502 0.173601,1.08756 0.3464,0.82736 0.54408,1.38944 0.91216,2.5961 0.1236,0.40521 0.2532,0.80925 0.2884,0.8979 0.036,0.0887 0.0636,0.23712 0.0636,0.33 0,0.0929 0.028,0.24133 0.062,0.32997 0.1444,0.37459 0.3224,1.27902 0.49684,2.52221 0.032,0.21801 0.0796,0.43548 0.1092,0.48317 0.1512,0.24436 0.364,3.02127 0.255201,3.33028 -0.1168,0.33268 -0.1696,1.91032 -0.0656,1.97442 0.092,0.0568 1.53424,0.13403 4.22908,0.22639 1.85364,0.0635 2.12508,0.12032 2.45604,0.51362 0.128,0.15208 0.1752,0.29031 0.1752,0.51312 0,0.3902 -0.2196,0.66229 -0.74076,0.9172 l -0.383599,0.18764 -2.542641,-0.0432 c -2.67796,-0.0455 -3.40356,-0.0108 -3.49376,0.16616 -0.028,0.058 -0.0904,0.37365 -0.1356,0.70165 -0.0452,0.32804 -0.1332,0.74643 -0.195601,0.92981 -0.0904,0.2654 -0.096,0.35116 -0.028,0.42045 0.0652,0.0653 0.87372,0.0987 3.22828,0.13377 3.468919,0.0516 3.43056,0.0465 3.89416,0.51017 0.1948,0.19484 0.2556,0.31308 0.2556,0.49654 0,0.41104 -0.53468,0.89576 -1.15772,1.04954 -0.204401,0.0504 -1.50944,0.0529 -5.112641,0.0105 l -1.744679,-0.0208 -0.1308,0.28771 c -0.072,0.15824 -0.1312,0.37657 -0.132001,0.48517 -7.2e-4,0.10861 -0.0672,0.35028 -0.147599,0.53708 -0.0804,0.18676 -0.1356,0.41365 -0.122801,0.50416 0.024,0.1554 0.0664,0.16908 0.795121,0.24572 0.424479,0.0446 0.977039,0.11524 1.22788,0.15689 0.2508,0.0416 1.04828,0.13608 1.77204,0.20979 1.0974,0.1118 1.37128,0.1628 1.64888,0.30716 0.3172,0.16497 0.71148,0.61196 0.716439,0.81221 0.004,0.19936 -0.448079,0.71489 -0.763279,0.86847 -0.293601,0.14311 -0.94024,0.25872 -1.1992,0.2144 z m -41.148162,-12.18331 c 1.37372,-0.295 2.365119,-1.20699 2.91776,-2.68396 0.194,-0.5182 0.208799,-1.70851 0.028,-2.24071 -0.45668,-1.34516 -1.378961,-2.28099 -2.6558,-2.6948 -0.4354,-0.14112 -1.69768,-0.10652 -2.13804,0.0586 -1.55432,0.58293 -2.608761,2.0896 -2.608761,3.72765 0,1.48162 0.88804,2.89756 2.204041,3.51424 0.838479,0.39296 1.48308,0.4842 2.25264,0.31892 z m -1.02976,-1.38543 c -0.75652,-0.11204 -1.4576,-0.62462 -1.793561,-1.31127 -0.2676,-0.54665 -0.313199,-1.48349 -0.1,-2.04864 0.2912,-0.772 1.059639,-1.41524 1.83716,-1.53814 0.44244,-0.0699 1.11732,0.026 1.47772,0.20967 0.325999,0.16624 0.856959,0.68509 1.01592,0.99248 0.1388,0.26877 0.1088,0.30129 -0.74576,0.80417 -0.382,0.22488 -0.69608,0.44373 -0.697561,0.48632 -10e-4,0.0426 0.3288,0.27908 0.734001,0.52559 0.47148,0.28676 0.73672,0.49114 0.73672,0.56758 0,0.18184 -0.7398,0.94151 -1.073241,1.10198 -0.3768,0.18128 -0.975839,0.27184 -1.391639,0.21024 z m 25.519081,1.38665 c 1.52588,-0.29104 2.698,-1.49023 3.041359,-3.1116 0.1168,-0.55235 0.121201,-0.68054 0.0408,-1.21397 -0.1508,-0.99684 -0.465681,-1.63046 -1.153601,-2.32132 -1.806399,-1.81414 -4.753679,-1.28694 -5.916479,1.05835 -0.401841,0.81045 -0.5134,2.06943 -0.255601,2.88673 0.3092,0.98113 1.07444,1.91546 1.903881,2.32466 0.917839,0.45284 1.473599,0.5424 2.34004,0.37716 z m -1.61888,-1.57862 c -1.664321,-0.79015 -1.91276,-3.13774 -0.45004,-4.25324 0.43692,-0.33315 0.826999,-0.45833 1.42864,-0.45833 0.652479,0 1.07904,0.15005 1.49848,0.52719 0.40384,0.36312 0.747079,0.83828 0.6818,0.94393 -0.024,0.0418 -0.377201,0.27039 -0.7812,0.508 -0.43648,0.25676 -0.726,0.47052 -0.71392,0.52705 0.012,0.0523 0.3356,0.29268 0.72152,0.53417 0.3856,0.24148 0.711,0.48952 0.72288,0.55119 0.012,0.0623 -0.175201,0.31467 -0.420681,0.56774 -0.54428,0.56077 -0.992479,0.7523 -1.760439,0.75221 -0.410921,-4e-5 -0.58516,-0.0376 -0.92704,-0.19991 z m -12.489361,12.99583 c -0.73504,-0.2808 -1.01576,-0.434 -1.42968,-0.78003 -0.798879,-0.66788 -1.1762,-1.33601 -1.634801,-2.89441 -0.148799,-0.50594 -0.113999,-1.65283 0.062,-2.03478 0.42964,-0.93297 1.64716,-1.41699 3.83028,-1.52269 0.80704,-0.0392 2.114441,0.1148 2.56636,0.302 0.13,0.0539 0.284801,0.098 0.3436,0.098 0.228,0 1.04436,0.57921 1.230081,0.87281 0.524399,0.82887 0.305999,2.74511 -0.45868,4.02685 -0.298401,0.50039 -1.123801,1.34267 -1.537921,1.56969 -0.60928,0.33405 -1.20948,0.4773 -1.98292,0.47335 -0.45732,-0.002 -0.8066,-0.0415 -0.98804,-0.11085 z"
         style="fill:#808080;stroke-width:0.618024"
         id="path1-0-5"
         inkscape:export-filename="logo64.png"
         inkscape:export-xdpi="96"
         inkscape:export-ydpi="96" /></g><path
       d="m 385.833,35.559903 c -0.0144,-0.002 -0.14072,-0.017 -0.2806,-0.0324 -0.1399,-0.0153 -0.30566,-0.0348 -0.36838,-0.0434 -0.29513,-0.0401 -0.38383,-0.0497 -0.46965,-0.0507 -0.0822,-7.9e-4 -0.0943,0.004 -0.10863,0.0413 -0.009,0.0233 -0.0304,0.0467 -0.0478,0.0521 -0.051,0.0157 -0.54826,-0.038 -0.69827,-0.0753 -0.0386,-0.01 -0.1491,-0.0336 -0.24558,-0.0533 -0.22622,-0.0461 -0.36243,-0.0778 -0.48238,-0.1123 -0.0531,-0.0152 -0.15174,-0.0436 -0.21927,-0.063 -0.18126,-0.052 -0.4985,-0.15803 -0.57886,-0.19341 -0.0386,-0.017 -0.10173,-0.0407 -0.14032,-0.0528 -0.0962,-0.03 -0.63499,-0.29409 -0.8069,-0.39545 -0.14793,-0.0872 -0.40587,-0.25643 -0.5144,-0.33745 -0.25542,-0.19069 -0.65581,-0.567 -0.81704,-0.7679 -0.21727,-0.27071 -0.26094,-0.32864 -0.35653,-0.47303 -0.19459,-0.29392 -0.39765,-0.66317 -0.48021,-0.87323 -0.0198,-0.0503 -0.0466,-0.11521 -0.0595,-0.14416 -0.11825,-0.26479 -0.26915,-0.73583 -0.34278,-1.07001 -0.008,-0.0386 -0.0279,-0.12147 -0.0432,-0.18418 -0.0152,-0.0627 -0.0356,-0.15744 -0.0453,-0.2105 -0.01,-0.0531 -0.0251,-0.13594 -0.0344,-0.18418 -0.0438,-0.22677 -0.0832,-0.54358 -0.096,-0.77179 -0.005,-0.0868 -0.0125,-0.1697 -0.017,-0.18418 -0.004,-0.0145 -0.0204,-0.1325 -0.0355,-0.26226 -0.0423,-0.36499 -0.0504,-0.35136 -0.10478,0.17662 -0.0232,0.22557 -0.047,0.43381 -0.0528,0.46275 -0.006,0.0289 -0.0218,0.15129 -0.0356,0.27189 -0.0285,0.2494 -0.049,0.37149 -0.0752,0.4473 -0.01,0.0289 -0.0337,0.14734 -0.0528,0.26312 -0.019,0.11577 -0.0439,0.24207 -0.0553,0.28066 -0.0113,0.0386 -0.0246,0.0899 -0.0295,0.11401 -0.005,0.0241 -0.0154,0.0596 -0.0233,0.0789 -0.0248,0.0606 -0.14083,0.42807 -0.14083,0.44625 0,0.01 -0.0515,0.14104 -0.11447,0.29224 -0.36516,0.87693 -0.86447,1.57675 -1.50581,2.11053 -0.21005,0.17482 -0.27107,0.22028 -0.47618,0.35483 -0.44276,0.29044 -0.96461,0.5405 -1.45562,0.6975 -0.0965,0.0309 -0.1912,0.0629 -0.21049,0.0712 -0.0324,0.0139 -0.2369,0.0731 -0.46132,0.13344 -0.0511,0.0138 -0.10844,0.025 -0.12741,0.025 -0.0189,0 -0.0482,0.007 -0.0649,0.0161 -0.0168,0.009 -0.0897,0.0251 -0.16202,0.0362 -0.0724,0.0111 -0.16044,0.0276 -0.19574,0.0368 -0.0353,0.009 -0.11819,0.0158 -0.18419,0.0148 -0.066,-7.9e-4 -0.14757,0.007 -0.18127,0.0173 -0.0337,0.0105 -0.0969,0.0191 -0.14044,0.0191 -0.0435,0 -0.10601,0.008 -0.1388,0.0171 -0.0552,0.0158 -0.0639,0.0125 -0.11711,-0.0439 -0.0652,-0.0691 -0.10316,-0.0741 -0.32793,-0.0428 -0.0717,0.01 -0.19655,0.0254 -0.27753,0.0344 -0.081,0.009 -0.28045,0.0311 -0.44325,0.0492 -0.1628,0.0181 -0.31672,0.0299 -0.34205,0.0262 -0.11975,-0.0176 -0.19167,-0.0511 -0.26971,-0.12576 -0.0701,-0.0671 -0.0833,-0.09 -0.0833,-0.14482 0,-0.0725 0.0598,-0.15806 0.13804,-0.19762 0.0694,-0.0351 0.20472,-0.0611 0.36659,-0.0705 0.0798,-0.005 0.15476,-0.0145 0.16664,-0.022 0.0119,-0.007 0.17158,-0.028 0.35489,-0.0457 0.54816,-0.053 0.52532,-0.0484 0.53193,-0.1062 0.003,-0.0274 -0.005,-0.0629 -0.0185,-0.0789 -0.0396,-0.0477 -0.0661,-0.12323 -0.0661,-0.18871 0,-0.0834 -0.0438,-0.16207 -0.0978,-0.17563 -0.0245,-0.006 -0.0816,-0.005 -0.12686,0.002 -0.0452,0.007 -0.12568,0.0127 -0.17875,0.0121 -0.1461,-0.002 -0.70544,-5.3e-4 -1.07001,0.002 l -0.32451,0.003 -0.10131,-0.0521 c -0.118,-0.0607 -0.18289,-0.12281 -0.20353,-0.19477 -0.0202,-0.0703 0.0443,-0.16992 0.14263,-0.22048 0.0896,-0.046 0.33017,-0.0615 1.03927,-0.0669 0.25084,-0.002 0.51132,-0.009 0.57886,-0.0152 l 0.12278,-0.0118 -0.003,-0.0526 c -0.002,-0.0289 -0.0147,-0.10393 -0.029,-0.16665 -0.0143,-0.0627 -0.0345,-0.15606 -0.045,-0.20746 -0.0104,-0.0514 -0.0229,-0.0997 -0.0275,-0.10725 -0.0189,-0.0306 -0.53863,-0.0489 -0.76368,-0.0269 -0.0338,0.003 -0.22017,0.007 -0.41423,0.009 -0.35132,0.003 -0.35325,0.003 -0.44731,-0.0441 -0.1672,-0.0838 -0.22128,-0.16336 -0.18944,-0.27867 0.0396,-0.14361 0.20934,-0.20381 0.58007,-0.20577 0.1384,-7.9e-4 0.34637,-0.008 0.46214,-0.0166 0.11577,-0.008 0.31906,-0.0181 0.45176,-0.0215 0.14866,-0.004 0.24891,-0.0139 0.2612,-0.0262 0.0244,-0.0245 -0.005,-0.46559 -0.0339,-0.49997 -0.0174,-0.0211 5.3e-4,-0.39959 0.022,-0.46768 0.005,-0.0154 0.0169,-0.0951 0.0268,-0.17706 0.01,-0.082 0.0261,-0.20824 0.0361,-0.2806 0.0101,-0.0724 0.0203,-0.15129 0.0228,-0.17541 0.008,-0.081 0.11796,-0.53329 0.17199,-0.71042 0.0698,-0.22875 0.18665,-0.58687 0.20606,-0.63148 0.008,-0.0193 0.04,-0.0966 0.0703,-0.17174 l 0.055,-0.13666 -0.0281,-0.15277 c -0.0155,-0.084 -0.0354,-0.20211 -0.0443,-0.26241 -0.0326,-0.22042 -0.0497,-0.33133 -0.0682,-0.44291 -0.0255,-0.15426 -0.0514,-0.34662 -0.0708,-0.52624 -0.009,-0.082 -0.0246,-0.21619 -0.0349,-0.29819 -0.0261,-0.20596 -0.0559,-0.52987 -0.0614,-0.66657 -0.003,-0.0627 -0.0132,-0.1969 -0.0239,-0.2982 -0.0763,-0.72845 -0.0769,-1.65113 -0.002,-2.28035 0.0511,-0.42695 0.1251,-0.79798 0.18103,-0.90834 0.0557,-0.10992 0.14578,-0.18863 0.25196,-0.22016 0.0866,-0.0257 0.14333,-0.02 0.41653,0.0422 0.4911,0.11186 1.26428,0.5331 1.92935,1.05116 0.0929,0.0724 0.19714,0.1532 0.23165,0.17965 0.14158,0.10848 0.77964,0.68739 0.93069,0.84442 0.0942,0.098 0.17641,0.16873 0.19589,0.16873 0.0185,0 0.0717,-0.0164 0.11834,-0.0365 0.13169,-0.0567 0.55187,-0.19152 0.59698,-0.19152 0.016,0 0.0533,-0.008 0.083,-0.017 0.46047,-0.14505 1.3043,-0.23315 1.84306,-0.19241 0.45861,0.0347 0.99953,0.10985 1.06018,0.14733 0.009,0.006 0.0624,0.0184 0.11844,0.0283 0.056,0.01 0.16108,0.0363 0.23345,0.0585 0.0724,0.0222 0.17892,0.0546 0.2368,0.0719 0.0579,0.0173 0.16182,0.0539 0.23096,0.0814 0.0691,0.0275 0.13884,0.05 0.15489,0.05 0.016,0 0.13313,-0.10494 0.26019,-0.23319 0.27887,-0.28149 0.68605,-0.64658 0.92353,-0.82805 0.0505,-0.0386 0.15752,-0.12147 0.23781,-0.18418 0.36454,-0.2847 0.73121,-0.51429 1.18884,-0.74438 0.20092,-0.10103 0.44641,-0.19924 0.45674,-0.18273 0.0168,0.0269 0.0643,0.26345 0.0557,0.27739 -0.006,0.01 -0.002,0.0475 0.008,0.0838 0.0107,0.0363 0.0308,0.19114 0.0448,0.34407 0.014,0.15293 0.0298,0.28515 0.0351,0.29381 0.0203,0.0328 0.065,0.0122 0.23119,-0.10604 0.0941,-0.067 0.19484,-0.1381 0.22378,-0.15803 0.0289,-0.0199 0.12303,-0.0877 0.20908,-0.15062 0.0861,-0.0629 0.16279,-0.10806 0.17054,-0.10032 0.0143,0.0143 0.039,0.15522 0.0677,0.38642 0.009,0.0701 0.0203,0.13465 0.0256,0.14335 0.0457,0.0739 0.0458,2.22575 1.8e-4,2.29964 -0.005,0.007 -0.0167,0.10709 -0.0268,0.22132 -0.0176,0.19828 -0.0323,0.35539 -0.0678,0.72516 -0.009,0.0917 -0.025,0.22585 -0.0361,0.2982 -0.0111,0.0724 -0.0281,0.19471 -0.0379,0.27189 -0.0315,0.24811 -0.0482,0.36619 -0.0655,0.46484 -0.0483,0.27526 -0.0703,0.42557 -0.0809,0.55255 -0.011,0.13134 -0.008,0.14875 0.0434,0.27189 0.0866,0.20684 0.13602,0.34736 0.22804,0.64902 0.0309,0.1013 0.0633,0.20231 0.0721,0.22448 0.009,0.0222 0.0159,0.0593 0.0159,0.0825 0,0.0232 0.007,0.0603 0.0155,0.0825 0.0361,0.0936 0.0806,0.31975 0.12421,0.63055 0.008,0.0545 0.0199,0.10887 0.0273,0.12079 0.0378,0.0611 0.091,0.75532 0.0638,0.83257 -0.0292,0.0832 -0.0424,0.47758 -0.0164,0.4936 0.023,0.0142 0.38356,0.0335 1.05727,0.0566 0.46341,0.0159 0.53127,0.0301 0.61401,0.12841 0.032,0.038 0.0438,0.0726 0.0438,0.12828 0,0.0975 -0.0549,0.16557 -0.18519,0.2293 l -0.0959,0.0469 -0.63566,-0.0108 c -0.66949,-0.0114 -0.85089,-0.003 -0.87344,0.0415 -0.007,0.0145 -0.0226,0.0934 -0.0339,0.17541 -0.0113,0.082 -0.0333,0.18661 -0.0489,0.23245 -0.0226,0.0663 -0.024,0.0878 -0.007,0.10512 0.0163,0.0163 0.21843,0.0247 0.80707,0.0334 0.86723,0.0129 0.85764,0.0116 0.97354,0.12754 0.0487,0.0487 0.0639,0.0783 0.0639,0.12413 0,0.10276 -0.13367,0.22394 -0.28943,0.26239 -0.0511,0.0126 -0.37736,0.0132 -1.27816,0.002 l -0.43617,-0.005 -0.0327,0.0719 c -0.018,0.0396 -0.0328,0.0941 -0.033,0.12129 -1.8e-4,0.0272 -0.0168,0.0876 -0.0369,0.13427 -0.0201,0.0467 -0.0339,0.10341 -0.0307,0.12604 0.006,0.0388 0.0166,0.0423 0.19878,0.0614 0.10612,0.0111 0.24426,0.0288 0.30697,0.0392 0.0627,0.0104 0.26207,0.034 0.44301,0.0524 0.27435,0.028 0.34282,0.0407 0.41222,0.0768 0.0793,0.0413 0.17787,0.15299 0.17911,0.20306 10e-4,0.0498 -0.11202,0.17872 -0.19082,0.21711 -0.0734,0.0358 -0.23506,0.0647 -0.2998,0.0536 z m -10.28703,-3.04582 c 0.34343,-0.0737 0.59128,-0.30175 0.72944,-0.67099 0.0485,-0.12955 0.0522,-0.42713 0.007,-0.56018 -0.11417,-0.33629 -0.34474,-0.57025 -0.66395,-0.6737 -0.10885,-0.0353 -0.42442,-0.0266 -0.53451,0.0147 -0.38858,0.14573 -0.65219,0.5224 -0.65219,0.93191 0,0.37041 0.22201,0.72439 0.55101,0.87856 0.20962,0.0982 0.37077,0.12105 0.56316,0.0797 z m -0.25744,-0.34636 c -0.18913,-0.028 -0.3644,-0.15615 -0.44839,-0.32782 -0.0669,-0.13666 -0.0783,-0.37087 -0.025,-0.51216 0.0728,-0.193 0.26491,-0.35381 0.45929,-0.38453 0.11061,-0.0175 0.27933,0.007 0.36943,0.0524 0.0815,0.0416 0.21424,0.17127 0.25398,0.24812 0.0347,0.0672 0.0272,0.0753 -0.18644,0.20104 -0.0955,0.0562 -0.17402,0.11093 -0.17439,0.12158 -2.5e-4,0.0106 0.0822,0.0698 0.1835,0.1314 0.11787,0.0717 0.18418,0.12278 0.18418,0.14189 0,0.0455 -0.18495,0.23538 -0.26831,0.2755 -0.0942,0.0453 -0.24396,0.068 -0.34791,0.0526 z m 6.37976,0.34666 c 0.38147,-0.0728 0.6745,-0.37256 0.76034,-0.7779 0.0292,-0.13809 0.0303,-0.17013 0.0102,-0.30349 -0.0377,-0.24921 -0.11642,-0.40761 -0.2884,-0.58033 -0.4516,-0.45353 -1.18842,-0.32173 -1.47912,0.26459 -0.10046,0.20261 -0.12835,0.51736 -0.0639,0.72168 0.0773,0.24528 0.26861,0.47887 0.47597,0.58116 0.22946,0.11321 0.3684,0.1356 0.58501,0.0943 z m -0.40472,-0.39466 c -0.41608,-0.19753 -0.47819,-0.78443 -0.11251,-1.0633 0.10923,-0.0833 0.20675,-0.11459 0.35716,-0.11459 0.16312,0 0.26976,0.0375 0.37462,0.1318 0.10096,0.0908 0.18677,0.20957 0.17045,0.23599 -0.006,0.0105 -0.0943,0.0676 -0.1953,0.12699 -0.10912,0.0642 -0.1815,0.11763 -0.17848,0.13176 0.003,0.0131 0.0839,0.0732 0.18038,0.13355 0.0964,0.0604 0.17775,0.12238 0.18072,0.1378 0.003,0.0156 -0.0438,0.0787 -0.10517,0.14193 -0.13607,0.1402 -0.24812,0.18808 -0.44011,0.18805 -0.10273,0 -0.14629,-0.009 -0.23176,-0.05 z m -3.12233,3.24896 c -0.18376,-0.0702 -0.25394,-0.1085 -0.35742,-0.19501 -0.19972,-0.16696 -0.29405,-0.334 -0.4087,-0.7236 -0.0372,-0.12648 -0.0285,-0.4132 0.0155,-0.50869 0.10741,-0.23324 0.41179,-0.35425 0.95757,-0.38067 0.20176,-0.01 0.52861,0.0287 0.64158,0.0755 0.0325,0.0135 0.0712,0.0245 0.0859,0.0245 0.057,0 0.26109,0.1448 0.30752,0.2182 0.1311,0.20721 0.0765,0.68628 -0.11466,1.00671 -0.0746,0.1251 -0.28095,0.33567 -0.38449,0.39243 -0.15231,0.0835 -0.30236,0.11932 -0.49573,0.11833 -0.11432,-5.3e-4 -0.20164,-0.0104 -0.247,-0.0277 z"
       style="fill:#000000;stroke-width:0.154506"
       id="path1-0-5-1"
       inkscape:export-filename="logo64.png"
       inkscape:export-xdpi="96"
       inkscape:export-ydpi="96" /></g></svg>
